<svg width="345" height="342" viewBox="0 0 345 342" fill="none" xmlns="http://www.w3.org/2000/svg">
<g filter="url(#filter0_d_307_212)">
<circle cx="172.5" cy="162.5" r="162.5" fill="white"/>
</g>
<path d="M108.609 169.917C108.208 169.516 107.646 169.266 107.021 169.266C106.396 169.266 105.833 169.516 105.427 169.917V169.927C105.021 170.333 104.771 170.896 104.771 171.516C104.771 172.141 105.021 172.703 105.427 173.109C105.839 173.516 106.401 173.771 107.021 173.771C107.641 173.771 108.203 173.516 108.609 173.109H108.62C109.021 172.708 109.271 172.141 109.271 171.516C109.271 170.891 109.021 170.328 108.62 169.927L108.609 169.917ZM108.286 114.656H105.75V117.193H108.286V114.656ZM104.078 111.302H111.635V120.542H108.693V128.266H105.344V120.542H102.401V111.302H104.078ZM108.693 134.76V166.172C109.563 166.448 110.339 166.927 110.974 167.557L110.979 167.562C111.99 168.578 112.62 169.979 112.62 171.516C112.62 173.057 111.99 174.458 110.974 175.474C109.969 176.49 108.568 177.12 107.021 177.12C105.474 177.12 104.073 176.49 103.063 175.479C102.047 174.463 101.422 173.062 101.422 171.516C101.422 169.969 102.047 168.568 103.063 167.557C103.693 166.927 104.474 166.443 105.344 166.172V134.76H108.693Z" fill="black"/>
<path d="M121.474 109.75H118.938V112.286H121.474V109.75ZM117.266 106.396H124.828V115.635H121.885V128.265H118.531V115.635H115.589V106.396H117.266ZM121.797 207.099C121.396 206.693 120.833 206.443 120.208 206.443C119.578 206.443 119.016 206.693 118.615 207.099V207.104C118.208 207.51 117.958 208.073 117.958 208.698C117.958 209.318 118.208 209.88 118.615 210.286C119.021 210.693 119.589 210.948 120.208 210.948C120.828 210.948 121.391 210.693 121.797 210.286H121.807C122.208 209.885 122.458 209.323 122.458 208.698C122.458 208.068 122.208 207.505 121.807 207.104L121.797 207.099ZM121.885 134.76V203.349C122.75 203.625 123.526 204.104 124.161 204.734L124.167 204.74C125.182 205.76 125.807 207.156 125.807 208.698C125.807 210.24 125.177 211.635 124.161 212.651C123.156 213.672 121.755 214.297 120.208 214.297C118.661 214.297 117.26 213.672 116.25 212.656C115.234 211.641 114.609 210.24 114.609 208.693C114.609 207.146 115.234 205.745 116.25 204.734C116.88 204.104 117.661 203.625 118.531 203.349V134.76H121.885Z" fill="black"/>
<path d="M134.984 225.214C134.583 224.813 134.021 224.557 133.396 224.557C132.765 224.557 132.203 224.813 131.807 225.214V225.219C131.396 225.625 131.146 226.188 131.146 226.813C131.146 227.432 131.396 227.995 131.807 228.401C132.208 228.807 132.776 229.063 133.396 229.063C134.015 229.063 134.578 228.807 134.984 228.401H134.995C135.396 228 135.646 227.438 135.646 226.813C135.646 226.188 135.396 225.625 134.995 225.219L134.984 225.214ZM134.667 92.1926H132.125V94.7292H134.667V92.1926ZM130.453 88.8438H138.01V98.0833H135.073V128.266H131.719V98.0833H128.776V88.8438H130.453ZM135.073 134.76V221.469C135.937 221.74 136.719 222.219 137.349 222.849L137.354 222.854C138.37 223.875 138.995 225.271 138.995 226.813C138.995 228.354 138.37 229.75 137.349 230.771C136.344 231.786 134.943 232.411 133.396 232.411C131.849 232.411 130.448 231.786 129.437 230.771C128.422 229.76 127.792 228.354 127.792 226.813C127.792 225.266 128.422 223.865 129.437 222.849C130.073 222.219 130.849 221.74 131.719 221.464V134.76H135.073Z" fill="black"/>
<path d="M148.172 204.479C147.771 204.073 147.208 203.823 146.583 203.823C145.958 203.823 145.396 204.073 144.995 204.479V204.484C144.583 204.891 144.333 205.453 144.333 206.078C144.333 206.698 144.583 207.26 144.995 207.667C145.401 208.073 145.964 208.328 146.583 208.328C147.203 208.328 147.766 208.073 148.172 207.667H148.182C148.583 207.266 148.833 206.703 148.833 206.078C148.833 205.453 148.583 204.885 148.182 204.484L148.172 204.479ZM147.849 99.6666H145.313V102.203H147.849V99.6666ZM143.641 96.3176H151.203V105.557H148.26V128.266H144.906V105.557H141.964V96.3176H143.641ZM148.26 134.76V200.729C149.125 201.005 149.906 201.484 150.536 202.115L150.542 202.12C151.557 203.141 152.182 204.536 152.182 206.078C152.182 207.615 151.557 209.016 150.536 210.031C149.531 211.052 148.125 211.677 146.583 211.677C145.036 211.677 143.641 211.052 142.625 210.036C141.609 209.021 140.984 207.625 140.984 206.078C140.984 204.526 141.609 203.13 142.625 202.115C143.26 201.484 144.036 201.005 144.906 200.729V134.76H148.26Z" fill="black"/>
<path d="M161.359 254.536C160.964 254.135 160.396 253.885 159.771 253.885C159.146 253.885 158.583 254.135 158.182 254.536V254.542C157.776 254.948 157.521 255.516 157.521 256.135C157.521 256.755 157.776 257.318 158.182 257.729C158.589 258.135 159.151 258.385 159.771 258.385C160.391 258.385 160.953 258.135 161.359 257.729H161.37C161.771 257.323 162.021 256.76 162.021 256.135C162.021 255.51 161.771 254.948 161.37 254.542L161.359 254.536ZM161.042 81.6249H158.5V84.1614H161.042V81.6249ZM156.828 78.2708H164.391V87.5103H161.448V128.266H158.094V87.5103H155.151V78.2708H156.828ZM161.448 134.76V250.786C162.318 251.062 163.094 251.542 163.724 252.172L163.729 252.177C164.745 253.198 165.375 254.594 165.375 256.135C165.375 257.672 164.745 259.073 163.729 260.088C162.719 261.109 161.318 261.734 159.771 261.734C158.229 261.734 156.828 261.109 155.813 260.094C154.797 259.078 154.172 257.677 154.172 256.135C154.172 254.588 154.797 253.182 155.813 252.172C156.448 251.542 157.224 251.062 158.099 250.786V134.76H161.448Z" fill="black"/>
<mask id="mask0_307_212" style="mask-type:luminance" maskUnits="userSpaceOnUse" x="167" y="73" width="12" height="201">
<path d="M167 73.8906H179V273.891H167V73.8906Z" fill="white"/>
</mask>
<g mask="url(#mask0_307_212)">
<path d="M174.547 266.682C174.151 266.281 173.589 266.031 172.958 266.031C172.333 266.031 171.771 266.281 171.37 266.682V266.693C170.964 267.099 170.708 267.661 170.708 268.281C170.708 268.901 170.964 269.464 171.37 269.87C171.776 270.281 172.339 270.531 172.958 270.531C173.578 270.531 174.146 270.281 174.547 269.87H174.557C174.964 269.474 175.208 268.906 175.208 268.281C175.208 267.656 174.958 267.094 174.557 266.693L174.547 266.682ZM174.229 77.2448H171.693V79.7812H174.229V77.2448ZM170.016 73.8906H177.578V83.1354H174.635V128.266H171.281V83.1354H168.344V73.8906H170.016ZM174.635 134.76V262.938C175.505 263.208 176.281 263.693 176.911 264.323L176.917 264.328C177.932 265.344 178.563 266.745 178.563 268.281C178.563 269.823 177.932 271.224 176.917 272.24C175.906 273.255 174.505 273.885 172.958 273.885C171.417 273.885 170.016 273.255 169 272.245C167.984 271.229 167.359 269.828 167.359 268.281C167.359 266.734 167.984 265.333 169 264.323C169.635 263.693 170.411 263.208 171.286 262.938V134.76H174.635Z" fill="black"/>
</g>
<path d="M187.74 243.386C187.339 242.979 186.771 242.729 186.146 242.729C185.521 242.729 184.958 242.979 184.557 243.386V243.391C184.151 243.797 183.896 244.359 183.896 244.984C183.896 245.604 184.151 246.167 184.557 246.573C184.964 246.984 185.526 247.234 186.146 247.234C186.766 247.234 187.333 246.984 187.74 246.573H187.745C188.146 246.172 188.396 245.609 188.396 244.984C188.396 244.354 188.146 243.792 187.745 243.391L187.74 243.386ZM187.417 85.6459H184.88V88.1824H187.417V85.6459ZM183.203 82.2917H190.766V91.5313H187.823V128.266H184.474V91.5313H181.531V82.2917H183.203ZM187.823 134.76V239.636C188.693 239.912 189.469 240.391 190.099 241.021L190.104 241.026C191.12 242.047 191.75 243.443 191.75 244.984C191.75 246.521 191.12 247.922 190.104 248.938C189.094 249.953 187.693 250.583 186.146 250.583C184.604 250.583 183.203 249.953 182.188 248.943C181.172 247.927 180.547 246.526 180.547 244.979C180.547 243.438 181.172 242.031 182.188 241.021C182.823 240.391 183.604 239.912 184.474 239.636V134.76H187.823Z" fill="black"/>
<path d="M200.927 195.057C200.526 194.651 199.964 194.401 199.333 194.401C198.708 194.401 198.146 194.651 197.745 195.057V195.063C197.339 195.469 197.083 196.031 197.083 196.656C197.083 197.276 197.339 197.839 197.745 198.245C198.151 198.651 198.714 198.906 199.333 198.906C199.953 198.906 200.516 198.651 200.927 198.245H200.932C201.333 197.844 201.583 197.281 201.583 196.656C201.583 196.026 201.333 195.464 200.932 195.063L200.927 195.057ZM200.604 103.068H198.068V105.599H200.604V103.068ZM196.391 99.7136H203.953V108.953H201.01V128.266H197.661V108.953H194.719V99.7136H196.391ZM201.01 134.761V191.307C201.88 191.583 202.656 192.063 203.286 192.693L203.292 192.698C204.307 193.714 204.938 195.115 204.938 196.651C204.938 198.193 204.307 199.594 203.292 200.609C202.281 201.625 200.88 202.255 199.333 202.255C197.786 202.255 196.391 201.625 195.375 200.615C194.365 199.599 193.734 198.198 193.734 196.651C193.734 195.104 194.365 193.703 195.375 192.693C196.01 192.063 196.792 191.578 197.661 191.307V134.761H201.01Z" fill="black"/>
<path d="M214.115 208.458C213.714 208.057 213.151 207.807 212.526 207.807C211.901 207.807 211.339 208.057 210.932 208.458V208.464C210.526 208.87 210.276 209.438 210.276 210.057C210.276 210.682 210.526 211.245 210.932 211.651C211.339 212.057 211.901 212.307 212.526 212.307C213.146 212.307 213.708 212.057 214.115 211.651H214.12C214.526 211.245 214.771 210.682 214.771 210.057C214.771 209.432 214.526 208.87 214.12 208.464L214.115 208.458ZM213.792 98.2345H211.255V100.771H213.792V98.2345ZM209.583 94.8855H217.141V104.12H214.198V128.266H210.849V104.12H207.906V94.8855H209.583ZM214.198 134.76V204.708C215.068 204.984 215.844 205.464 216.479 206.099L216.484 206.104C217.495 207.12 218.125 208.516 218.125 210.057C218.125 211.599 217.495 213 216.479 214.016C215.469 215.031 214.068 215.662 212.526 215.662C210.979 215.662 209.578 215.031 208.563 214.021C207.552 213.005 206.922 211.604 206.922 210.057C206.922 208.511 207.552 207.109 208.563 206.094C209.198 205.464 209.979 204.984 210.849 204.708V134.76H214.198Z" fill="black"/>
<path d="M227.302 186.255C226.901 185.854 226.333 185.604 225.708 185.604C225.089 185.604 224.526 185.854 224.12 186.255V186.266C223.714 186.672 223.464 187.234 223.464 187.854C223.464 188.474 223.714 189.042 224.12 189.448C224.526 189.854 225.089 190.109 225.708 190.109C226.333 190.109 226.896 189.854 227.302 189.448H227.313C227.708 189.047 227.958 188.484 227.958 187.854C227.958 187.229 227.708 186.667 227.313 186.266L227.302 186.255ZM226.979 106.234H224.443V108.771H226.979V106.234ZM222.771 102.885H230.328V112.125H227.386V128.266H224.037V112.125H221.094V102.885H222.771ZM227.386 134.76V182.511C228.255 182.787 229.031 183.266 229.667 183.896L229.672 183.901C230.682 184.917 231.313 186.318 231.313 187.854C231.313 189.396 230.682 190.797 229.667 191.813C228.656 192.833 227.255 193.458 225.708 193.458C224.167 193.458 222.766 192.833 221.755 191.818C220.74 190.802 220.115 189.401 220.115 187.854C220.115 186.307 220.74 184.906 221.755 183.896C222.386 183.266 223.167 182.781 224.037 182.511V134.76H227.386Z" fill="black"/>
<path d="M240.49 169.917C240.089 169.516 239.526 169.266 238.901 169.266C238.276 169.266 237.714 169.516 237.307 169.917V169.927C236.901 170.333 236.651 170.896 236.651 171.516C236.651 172.141 236.901 172.703 237.307 173.109C237.719 173.516 238.276 173.771 238.901 173.771C239.521 173.771 240.083 173.516 240.49 173.109H240.495C240.901 172.708 241.151 172.141 241.151 171.516C241.151 170.891 240.901 170.328 240.495 169.927L240.49 169.917ZM240.167 112.125H237.63V114.662H240.167V112.125ZM235.958 108.776H243.516V118.016H240.573V128.266H237.224V118.016H234.281V108.776H235.958ZM240.573 134.761V166.172C241.443 166.448 242.219 166.927 242.854 167.557L242.86 167.563C243.87 168.578 244.5 169.979 244.5 171.516C244.5 173.057 243.87 174.458 242.854 175.474C241.849 176.49 240.448 177.12 238.901 177.12C237.354 177.12 235.953 176.49 234.938 175.479C233.927 174.464 233.302 173.063 233.302 171.516C233.302 169.969 233.927 168.568 234.938 167.557C235.573 166.927 236.354 166.443 237.224 166.172V134.761H240.573Z" fill="black"/>
<mask id="mask1_307_212" style="mask-type:luminance" maskUnits="userSpaceOnUse" x="88" y="133" width="169" height="4">
<path d="M88.9585 133H256.959V137H88.9585V133Z" fill="white"/>
</mask>
<g mask="url(#mask1_307_212)">
<path d="M89.0054 133.083H256.912V136.437H89.0054V133.083Z" fill="black"/>
</g>
<defs>
<filter id="filter0_d_307_212" x="6" y="0" width="333" height="333" filterUnits="userSpaceOnUse" color-interpolation-filters="sRGB">
<feFlood flood-opacity="0" result="BackgroundImageFix"/>
<feColorMatrix in="SourceAlpha" type="matrix" values="0 0 0 0 0 0 0 0 0 0 0 0 0 0 0 0 0 0 127 0" result="hardAlpha"/>
<feOffset dy="4"/>
<feGaussianBlur stdDeviation="2"/>
<feComposite in2="hardAlpha" operator="out"/>
<feColorMatrix type="matrix" values="0 0 0 0 0 0 0 0 0 0 0 0 0 0 0 0 0 0 0.25 0"/>
<feBlend mode="normal" in2="BackgroundImageFix" result="effect1_dropShadow_307_212"/>
<feBlend mode="normal" in="SourceGraphic" in2="effect1_dropShadow_307_212" result="shape"/>
</filter>
</defs>
</svg>
