<svg xmlns="http://www.w3.org/2000/svg" xmlns:xlink="http://www.w3.org/1999/xlink" width="500" zoomAndPan="magnify" viewBox="0 0 375 374.999991" height="500" preserveAspectRatio="xMidYMid meet" version="1.0"><defs><g/><clipPath id="1d1c725d63"><path d="M 173 93 L 238.144531 93 L 238.144531 159 L 173 159 Z M 173 93 " clip-rule="nonzero"/></clipPath><clipPath id="1b16c56a65"><path d="M 158 235 L 203 235 L 203 256.878906 L 158 256.878906 Z M 158 235 " clip-rule="nonzero"/></clipPath><clipPath id="b6cf0e64f7"><path d="M 98 53.628906 L 139 53.628906 L 139 95 L 98 95 Z M 98 53.628906 " clip-rule="nonzero"/></clipPath><clipPath id="9aecb97fa4"><path d="M 94.144531 178 L 135 178 L 135 219 L 94.144531 219 Z M 94.144531 178 " clip-rule="nonzero"/></clipPath></defs><g fill="#2e2f38" fill-opacity="1"><g transform="translate(122.668943, 326.86165)"><g><path d="M 17.164062 0.132812 L 21.570312 0 L 23.476562 -0.65625 L 24.136719 -2.5 L 24.332031 -5.917969 L 24.136719 -8.417969 L 24.265625 -9.800781 L 24.203125 -12.429688 L 24.332031 -13.613281 L 24.136719 -15.058594 L 24.265625 -25.648438 L 24.070312 -27.03125 L 24.265625 -32.75 L 24.792969 -34.722656 L 26.042969 -35.511719 L 28.609375 -35.644531 L 31.042969 -35.316406 L 32.421875 -35.511719 L 33.605469 -35.449219 L 34.722656 -36.171875 L 35.511719 -37.617188 L 35.578125 -43.867188 L 34.855469 -45.179688 L 33.605469 -46.035156 L 29.527344 -46.035156 L 28.277344 -46.167969 L 26.898438 -45.96875 L 25.648438 -46.101562 L 20.320312 -45.839844 L 19.007812 -46.101562 L 17.757812 -46.167969 L 16.375 -45.96875 L 14.929688 -46.101562 L 13.746094 -45.839844 L 9.863281 -46.035156 L 7.824219 -45.839844 L 3.222656 -46.101562 L 1.972656 -45.445312 L 1.183594 -43.929688 L 1.25 -42.617188 L 1.117188 -39.328125 L 1.25 -37.289062 L 1.839844 -36.105469 L 3.023438 -35.449219 L 4.339844 -35.578125 L 10.589844 -35.449219 L 11.835938 -34.789062 L 12.5625 -33.472656 L 12.429688 -31.371094 L 12.5625 -29.527344 L 12.496094 -28.082031 L 12.5625 -26.765625 L 12.429688 -24.925781 L 12.628906 -15.125 L 12.496094 -13.8125 L 12.429688 -8.484375 L 12.5625 -7.101562 L 12.496094 -3.289062 L 12.363281 -2.039062 L 13.21875 -0.59375 L 15.125 0.0664062 Z M 17.164062 0.132812 "/></g></g></g><g fill="#2e2f38" fill-opacity="1"><g transform="translate(162.314267, 326.86165)"><g><path d="M 8.8125 0.199219 L 12.035156 0.0664062 L 13.21875 0.132812 L 14.730469 0 L 16.113281 -0.527344 L 16.703125 -1.90625 L 16.636719 -3.222656 L 16.703125 -4.667969 L 16.574219 -7.101562 L 16.703125 -8.351562 L 16.636719 -9.863281 L 17.230469 -11.046875 L 18.742188 -11.773438 L 20.191406 -11.902344 L 21.570312 -11.640625 L 28.34375 -12.167969 L 34.59375 -14.664062 L 35.578125 -15.453125 L 36.5 -16.507812 L 37.355469 -17.363281 L 38.210938 -18.347656 L 39.589844 -20.453125 L 40.707031 -23.019531 L 40.90625 -24.464844 L 41.300781 -25.515625 L 41.433594 -30.910156 L 41.167969 -32.027344 L 40.972656 -33.472656 L 40.183594 -35.90625 L 38.933594 -38.144531 L 37.355469 -40.3125 L 34.394531 -42.878906 L 32.226562 -44.324219 L 29.59375 -45.113281 L 28.476562 -45.574219 L 27.160156 -45.574219 L 25.847656 -46.035156 L 23.871094 -46.101562 L 21.769531 -46.035156 L 20.320312 -45.839844 L 16.308594 -45.902344 L 14.996094 -46.101562 L 10.917969 -45.839844 L 9.46875 -45.902344 L 8.285156 -46.101562 L 6.90625 -45.839844 L 5.523438 -45.113281 L 4.933594 -44.0625 L 5 -36.105469 L 4.734375 -33.472656 L 4.867188 -32.226562 L 4.800781 -15.191406 L 4.933594 -13.941406 L 4.867188 -1.777344 L 5.589844 -0.527344 L 7.628906 0.132812 Z M 18.675781 -22.292969 L 17.363281 -23.082031 L 16.769531 -24.203125 L 16.574219 -29.527344 L 16.703125 -30.910156 L 16.703125 -33.605469 L 17.363281 -34.855469 L 18.742188 -35.511719 L 25.582031 -35.316406 L 26.898438 -34.722656 L 27.949219 -34 L 28.804688 -33.144531 L 29.464844 -31.832031 L 29.660156 -30.648438 L 29.792969 -28.804688 L 29.660156 -27.03125 L 29.199219 -25.847656 L 28.609375 -24.792969 L 27.753906 -23.742188 L 26.699219 -22.953125 L 25.648438 -22.625 L 23.609375 -22.359375 L 20.253906 -22.425781 Z M 18.675781 -22.292969 "/></g></g></g><g fill="#2e2f38" fill-opacity="1"><g transform="translate(208.468371, 326.86165)"><g><path d="M 5 -2.367188 L 5.457031 -0.65625 L 6.707031 0 L 8.023438 0.132812 L 10.785156 -0.0664062 L 13.351562 0.0664062 L 15.847656 -0.0664062 L 17.097656 0.132812 L 18.546875 0 L 31.566406 0.0664062 L 32.816406 -0.59375 L 33.539062 -2.628906 L 33.472656 -7.957031 L 32.882812 -9.929688 L 31.699219 -10.71875 L 30.316406 -10.589844 L 29.066406 -10.324219 L 27.6875 -10.523438 L 24.992188 -10.457031 L 23.675781 -10.71875 L 22.492188 -10.523438 L 19.925781 -10.652344 L 18.546875 -10.523438 L 17.230469 -11.046875 L 16.703125 -12.363281 L 16.769531 -34.660156 L 16.636719 -36.238281 L 16.769531 -38.867188 L 16.574219 -42.617188 L 16.636719 -43.867188 L 15.980469 -45.3125 L 14.664062 -46.101562 L 12.101562 -46.101562 L 10.785156 -45.839844 L 8.15625 -46.101562 L 6.90625 -45.902344 L 5.523438 -45.378906 L 4.933594 -43.929688 L 4.933594 -34.722656 L 4.800781 -33.472656 L 4.933594 -32.160156 L 4.734375 -29.726562 L 4.800781 -28.277344 L 4.933594 -27.03125 Z M 5 -2.367188 "/></g></g></g><path fill="#ffbd59" d="M 145.753906 154.199219 C 147.910156 146.777344 143.625 139.011719 136.191406 136.863281 C 131.519531 135.511719 126.71875 136.695312 123.257812 139.605469 C 124.882812 148.722656 128.644531 157.097656 134.007812 164.203125 C 139.402344 163.53125 144.144531 159.746094 145.753906 154.199219 " fill-opacity="1" fill-rule="nonzero"/><g clip-path="url(#1d1c725d63)"><path fill="#ffbd59" d="M 229.375 132.640625 C 225.570312 145.746094 211.851562 153.292969 198.730469 149.496094 C 185.605469 145.699219 178.050781 132 181.855469 118.898438 C 185.652344 105.792969 199.375 98.246094 212.496094 102.042969 C 220.890625 104.472656 227.007812 110.953125 229.328125 118.734375 C 229.867188 121.097656 230.214844 123.53125 230.355469 126.015625 C 230.332031 128.210938 230.015625 130.433594 229.375 132.640625 Z M 236.8125 116.519531 C 233.753906 106.277344 225.710938 97.753906 214.667969 94.558594 C 197.40625 89.566406 179.359375 99.492188 174.359375 116.730469 C 169.359375 133.964844 179.296875 151.988281 196.558594 156.980469 C 213.824219 161.972656 231.871094 152.046875 236.871094 134.808594 C 237.710938 131.90625 238.128906 128.980469 238.160156 126.09375 C 237.976562 122.820312 237.519531 119.621094 236.8125 116.519531 " fill-opacity="1" fill-rule="nonzero"/></g><g clip-path="url(#1b16c56a65)"><path fill="#2e2f38" d="M 160.628906 242.359375 C 163.3125 250.960938 171.285156 256.820312 180.308594 256.820312 C 189.328125 256.820312 197.304688 250.960938 199.984375 242.359375 L 202.28125 235 L 158.335938 235 L 160.628906 242.359375 " fill-opacity="1" fill-rule="nonzero"/></g><path fill="#2e2f38" d="M 151.386719 230.855469 L 209.230469 230.855469 L 209.230469 216.492188 L 151.386719 216.492188 L 151.386719 230.855469 " fill-opacity="1" fill-rule="nonzero"/><path fill="#ffbd59" d="M 167.261719 174.410156 C 161.992188 175.007812 158.207031 179.757812 158.804688 185.023438 C 159.40625 190.285156 164.167969 194.066406 169.4375 193.464844 C 174.707031 192.867188 178.492188 188.113281 177.890625 182.851562 C 177.289062 177.589844 172.53125 173.808594 167.261719 174.410156 " fill-opacity="1" fill-rule="nonzero"/><path fill="#ffbd59" d="M 185.296875 184.707031 L 182.582031 185.949219 C 182.398438 187.28125 182.023438 188.558594 181.492188 189.753906 L 183.132812 192.242188 C 182.246094 193.8125 181.113281 195.234375 179.78125 196.449219 L 176.980469 195.414062 C 175.933594 196.203125 174.773438 196.851562 173.519531 197.332031 L 172.914062 200.25 C 172.0625 200.492188 171.179688 200.664062 170.269531 200.769531 C 169.359375 200.871094 168.460938 200.898438 167.574219 200.859375 L 166.332031 198.152344 C 165 197.964844 163.722656 197.59375 162.523438 197.0625 L 160.03125 198.699219 C 158.457031 197.8125 157.035156 196.683594 155.816406 195.351562 L 156.855469 192.558594 C 156.066406 191.511719 155.414062 190.351562 154.933594 189.097656 L 152.011719 188.496094 C 151.773438 187.644531 151.597656 186.761719 151.496094 185.855469 C 151.390625 184.949219 151.363281 184.050781 151.402344 183.164062 L 154.113281 181.921875 C 154.300781 180.59375 154.671875 179.316406 155.207031 178.117188 L 153.566406 175.632812 C 154.453125 174.058594 155.582031 172.636719 156.914062 171.421875 L 159.714844 172.457031 C 160.761719 171.671875 161.925781 171.019531 163.179688 170.539062 L 163.78125 167.621094 C 164.632812 167.382812 165.519531 167.210938 166.429688 167.105469 C 167.335938 167.003906 168.238281 166.972656 169.125 167.011719 L 170.363281 169.722656 C 171.695312 169.910156 172.976562 170.28125 174.175781 170.8125 L 176.667969 169.175781 C 178.238281 170.058594 179.660156 171.191406 180.878906 172.519531 L 179.84375 175.3125 C 180.628906 176.363281 181.28125 177.519531 181.765625 178.773438 L 184.6875 179.375 C 184.925781 180.226562 185.101562 181.109375 185.203125 182.015625 C 185.304688 182.925781 185.335938 183.828125 185.296875 184.707031 Z M 215.863281 166.054688 C 212.183594 166.992188 208.351562 167.433594 204.460938 167.324219 L 199.59375 174.449219 C 197.046875 174.132812 194.492188 173.613281 191.945312 172.878906 C 189.40625 172.140625 186.96875 171.214844 184.644531 170.125 L 184.34375 161.507812 C 181 159.523438 177.996094 157.101562 175.386719 154.347656 L 166.894531 155.949219 C 163.683594 151.832031 161.144531 147.226562 159.375 142.316406 L 165.269531 136.003906 C 164.332031 132.328125 163.890625 128.503906 164 124.617188 L 156.863281 119.757812 C 157.179688 117.214844 157.699219 114.664062 158.4375 112.121094 C 159.175781 109.582031 160.101562 107.148438 161.195312 104.828125 L 169.828125 104.53125 C 171.8125 101.1875 174.234375 98.191406 176.996094 95.585938 L 175.394531 87.105469 C 179.515625 83.898438 184.125 81.359375 189.042969 79.597656 L 195.363281 85.484375 C 199.042969 84.546875 202.875 84.101562 206.765625 84.214844 L 209.890625 79.640625 C 201.226562 74.5 191.113281 71.539062 180.308594 71.539062 C 148.828125 71.539062 123.308594 96.429688 122.386719 127.65625 C 122.898438 127.433594 123.414062 127.222656 123.9375 127.035156 L 127.125 130 C 128.980469 129.527344 130.910156 129.304688 132.871094 129.363281 L 135.324219 125.769531 C 136.609375 125.929688 137.898438 126.191406 139.179688 126.558594 C 140.460938 126.933594 141.691406 127.398438 142.859375 127.949219 L 143.011719 132.292969 C 144.699219 133.292969 146.210938 134.515625 147.527344 135.902344 L 151.808594 135.09375 C 153.425781 137.171875 154.707031 139.492188 155.597656 141.964844 L 152.625 145.148438 C 153.097656 147 153.320312 148.929688 153.265625 150.886719 L 156.863281 153.335938 C 156.703125 154.617188 156.441406 155.90625 156.070312 157.183594 C 155.699219 158.464844 155.230469 159.691406 154.679688 160.863281 L 150.328125 161.011719 C 149.328125 162.695312 148.105469 164.207031 146.714844 165.519531 L 147.523438 169.792969 C 145.464844 171.398438 143.160156 172.667969 140.707031 173.554688 C 147.46875 184.625 151.175781 197.339844 151.175781 210.425781 L 151.175781 210.457031 L 209.4375 210.457031 L 209.4375 210.425781 C 209.4375 196.40625 213.707031 182.828125 221.410156 171.21875 L 215.863281 166.054688 " fill-opacity="1" fill-rule="nonzero"/><g clip-path="url(#b6cf0e64f7)"><path fill="#2e2f38" d="M 119.566406 85.308594 C 113.28125 86.027344 107.605469 81.515625 106.886719 75.238281 C 106.171875 68.960938 110.6875 63.292969 116.972656 62.574219 C 123.261719 61.859375 128.9375 66.371094 129.652344 72.644531 C 130.371094 78.925781 125.855469 84.59375 119.566406 85.308594 Z M 138.484375 74.863281 C 138.53125 73.808594 138.5 72.738281 138.375 71.652344 C 138.25 70.574219 138.042969 69.519531 137.761719 68.503906 L 134.273438 67.785156 C 133.699219 66.289062 132.921875 64.90625 131.980469 63.65625 L 133.21875 60.324219 C 131.765625 58.738281 130.070312 57.390625 128.195312 56.335938 L 125.21875 58.289062 C 123.789062 57.652344 122.265625 57.210938 120.675781 56.984375 L 119.195312 53.757812 C 118.136719 53.707031 117.0625 53.746094 115.980469 53.867188 C 114.894531 53.992188 113.839844 54.199219 112.820312 54.484375 L 112.105469 57.964844 C 110.609375 58.539062 109.21875 59.3125 107.972656 60.253906 L 104.632812 59.015625 C 103.042969 60.464844 101.691406 62.160156 100.636719 64.035156 L 102.59375 67.003906 C 101.957031 68.429688 101.515625 69.957031 101.289062 71.539062 L 98.054688 73.023438 C 98.007812 74.074219 98.042969 75.148438 98.164062 76.234375 C 98.289062 77.316406 98.496094 78.367188 98.78125 79.382812 L 102.265625 80.101562 C 102.84375 81.59375 103.617188 82.980469 104.558594 84.226562 L 103.320312 87.5625 C 104.773438 89.148438 106.472656 90.496094 108.347656 91.554688 L 111.320312 89.597656 C 112.75 90.230469 114.277344 90.675781 115.863281 90.898438 L 117.347656 94.128906 C 118.402344 94.175781 119.476562 94.144531 120.5625 94.019531 C 121.644531 93.894531 122.699219 93.6875 123.71875 93.40625 L 124.4375 89.925781 C 125.933594 89.347656 127.320312 88.574219 128.570312 87.636719 L 131.90625 88.871094 C 133.496094 87.421875 134.847656 85.722656 135.90625 83.851562 L 133.949219 80.882812 C 134.582031 79.453125 135.027344 77.929688 135.25 76.34375 L 138.484375 74.863281 " fill-opacity="1" fill-rule="nonzero"/></g><g clip-path="url(#9aecb97fa4)"><path fill="#2e2f38" d="M 115.714844 209.945312 C 109.429688 210.660156 103.75 206.152344 103.035156 199.875 C 102.320312 193.597656 106.832031 187.925781 113.121094 187.210938 C 119.40625 186.496094 125.085938 191.003906 125.800781 197.28125 C 126.515625 203.5625 122.003906 209.230469 115.714844 209.945312 Z M 134.632812 199.5 C 134.679688 198.445312 134.644531 197.371094 134.523438 196.292969 C 134.398438 195.207031 134.191406 194.152344 133.90625 193.136719 L 130.421875 192.421875 C 129.847656 190.925781 129.070312 189.542969 128.128906 188.292969 L 129.367188 184.960938 C 127.914062 183.375 126.214844 182.027344 124.339844 180.96875 L 121.367188 182.921875 C 119.9375 182.289062 118.410156 181.847656 116.824219 181.621094 L 115.339844 178.394531 C 114.285156 178.34375 113.210938 178.378906 112.125 178.503906 C 111.042969 178.628906 109.988281 178.832031 108.96875 179.117188 L 108.25 182.597656 C 106.753906 183.171875 105.367188 183.945312 104.117188 184.886719 L 100.78125 183.652344 C 99.191406 185.101562 97.839844 186.796875 96.785156 188.667969 L 98.742188 191.640625 C 98.105469 193.066406 97.660156 194.589844 97.4375 196.175781 L 94.203125 197.65625 C 94.15625 198.710938 94.191406 199.785156 94.3125 200.867188 C 94.4375 201.953125 94.644531 203.003906 94.929688 204.019531 L 98.414062 204.738281 C 98.988281 206.230469 99.765625 207.617188 100.707031 208.863281 L 99.46875 212.195312 C 100.921875 213.785156 102.617188 215.132812 104.496094 216.1875 L 107.46875 214.234375 C 108.898438 214.867188 110.425781 215.3125 112.011719 215.535156 L 113.496094 218.765625 C 114.550781 218.8125 115.625 218.777344 116.710938 218.65625 C 117.792969 218.53125 118.847656 218.324219 119.867188 218.039062 L 120.585938 214.5625 C 122.082031 213.984375 123.46875 213.210938 124.71875 212.269531 L 128.054688 213.503906 C 129.644531 212.054688 130.996094 210.359375 132.054688 208.488281 L 130.09375 205.519531 C 130.730469 204.089844 131.175781 202.566406 131.398438 200.980469 L 134.632812 199.5 " fill-opacity="1" fill-rule="nonzero"/></g><g fill="#ffbd59" fill-opacity="1"><g transform="translate(148.989954, 53.404588)"><g><path d="M 2.992188 -1.433594 L 3.742188 -1.832031 L 4.019531 -2.109375 L 3.976562 -2.484375 L 3.71875 -3.09375 L 3.472656 -3.511719 L 3.378906 -3.761719 L 3.144531 -4.214844 L 3.066406 -4.429688 L 2.910156 -4.664062 L 2.03125 -6.511719 L 1.882812 -6.734375 L 1.429688 -7.746094 L 1.351562 -8.132812 L 1.503906 -8.375 L 1.9375 -8.617188 L 2.386719 -8.765625 L 2.609375 -8.917969 L 2.820312 -9.007812 L 2.953125 -9.226562 L 2.96875 -9.546875 L 2.449219 -10.636719 L 2.210938 -10.800781 L 1.921875 -10.84375 L 1.214844 -10.5 L 0.984375 -10.414062 L 0.761719 -10.261719 L 0.535156 -10.179688 L -0.367188 -9.683594 L -0.617188 -9.617188 L -0.839844 -9.519531 L -1.0625 -9.371094 L -1.324219 -9.269531 L -1.507812 -9.125 L -2.199219 -8.828125 L -2.535156 -8.621094 L -3.355469 -8.273438 L -3.519531 -8.054688 L -3.527344 -7.726562 L -3.402344 -7.503906 L -3.148438 -6.921875 L -2.949219 -6.578125 L -2.746094 -6.421875 L -2.488281 -6.410156 L -2.269531 -6.542969 L -1.171875 -7.050781 L -0.902344 -7.042969 L -0.664062 -6.875 L -0.507812 -6.5 L -0.328125 -6.191406 L -0.21875 -5.933594 L -0.09375 -5.710938 L 0.0390625 -5.382812 L 0.90625 -3.699219 L 0.996094 -3.457031 L 1.4375 -2.527344 L 1.578125 -2.300781 L 1.890625 -1.632812 L 1.972656 -1.402344 L 2.242188 -1.226562 L 2.628906 -1.273438 Z M 2.992188 -1.433594 "/></g></g></g><g fill="#ffbd59" fill-opacity="1"><g transform="translate(164.166816, 46.801814)"><g><path d="M 0.792969 -0.597656 L 1.007812 -0.40625 L 1.277344 -0.335938 L 1.519531 -0.417969 L 2.015625 -0.535156 L 2.265625 -0.632812 L 2.78125 -0.765625 L 2.996094 -0.984375 L 3.027344 -1.246094 L 2.984375 -1.484375 L 2.886719 -1.746094 L 2.269531 -3.910156 L 2.304688 -4.199219 L 2.515625 -4.429688 L 3.957031 -4.851562 L 4.222656 -4.890625 L 4.441406 -4.953125 L 4.714844 -4.882812 L 4.902344 -4.6875 L 5.683594 -1.988281 L 5.875 -1.832031 L 6.273438 -1.773438 L 6.910156 -1.957031 L 7.144531 -2.050781 L 7.65625 -2.15625 L 7.84375 -2.378906 L 7.933594 -2.628906 L 7.589844 -3.734375 L 7.515625 -4.136719 L 7.421875 -4.320312 L 5.6875 -10.460938 L 5.503906 -10.6875 L 5.234375 -10.714844 L 3.824219 -10.324219 L 3.492188 -10.140625 L 3.453125 -9.8125 L 3.574219 -9.34375 L 3.660156 -9.140625 L 3.777344 -8.632812 L 3.878906 -8.414062 L 4.140625 -7.457031 L 4.074219 -7.171875 L 3.867188 -6.96875 L 3.625 -6.941406 L 3.164062 -6.753906 L 2.898438 -6.707031 L 2.6875 -6.617188 L 1.960938 -6.425781 L 1.699219 -6.46875 L 1.507812 -6.667969 L 1.421875 -6.933594 L 1.347656 -7.1875 L 1.273438 -7.40625 L 1.011719 -8.363281 L 0.960938 -8.636719 L 0.808594 -9.082031 L 0.632812 -9.285156 L 0.335938 -9.347656 L 0.0742188 -9.246094 L -1.140625 -8.925781 L -1.375 -8.726562 L -1.429688 -8.445312 L -1.375 -8.171875 L -1.082031 -7.222656 L -1.035156 -6.972656 L -0.84375 -6.484375 L -0.734375 -6.015625 L -0.640625 -5.722656 L -0.59375 -5.472656 L 0.445312 -1.820312 L 0.546875 -1.609375 Z M 0.792969 -0.597656 "/></g></g></g><g fill="#ffbd59" fill-opacity="1"><g transform="translate(182.419025, 42.570577)"><g><path d="M 4.40625 -0.398438 L 6.210938 -0.605469 L 6.464844 -0.746094 L 6.578125 -1.023438 L 6.449219 -2.300781 L 6.285156 -2.539062 L 6.007812 -2.628906 L 5.722656 -2.574219 L 5.476562 -2.585938 L 4.832031 -2.535156 L 4.417969 -2.445312 L 4.164062 -2.445312 L 3.886719 -2.402344 L 3.640625 -2.417969 L 3.367188 -2.363281 L 3.089844 -2.464844 L 2.964844 -2.683594 L 2.886719 -3.480469 L 2.972656 -3.757812 L 3.1875 -3.917969 L 3.566406 -3.96875 L 3.972656 -3.972656 L 4.449219 -4.042969 L 4.96875 -4.082031 L 5.222656 -4.132812 L 5.511719 -4.148438 L 5.757812 -4.277344 L 5.820312 -4.539062 L 5.746094 -5.679688 L 5.582031 -6.019531 L 5.277344 -6.15625 L 4.53125 -6.082031 L 4.265625 -6.03125 L 3.730469 -6.015625 L 3 -5.917969 L 2.722656 -6.003906 L 2.582031 -6.386719 L 2.542969 -6.777344 L 2.632812 -7.03125 L 2.902344 -7.160156 L 3.144531 -7.171875 L 3.378906 -7.246094 L 5.191406 -7.398438 L 5.429688 -7.4375 L 5.679688 -7.613281 L 5.785156 -7.855469 L 5.746094 -8.105469 L 5.734375 -8.359375 L 5.632812 -9.117188 L 5.496094 -9.34375 L 5.230469 -9.421875 L 4.964844 -9.394531 L 4.734375 -9.421875 L 3.710938 -9.308594 L 3.433594 -9.253906 L 3.179688 -9.253906 L 2.964844 -9.222656 L 2.710938 -9.222656 L 1.675781 -9.09375 L 1.417969 -9.105469 L 1.183594 -9.03125 L 0.953125 -9.035156 L 0.703125 -8.984375 L 0.449219 -8.972656 L 0.195312 -8.84375 L 0.0820312 -8.566406 L 0.152344 -8.085938 L 0.167969 -7.5625 L 0.234375 -7.289062 L 0.332031 -6.046875 L 0.394531 -5.785156 L 0.394531 -5.542969 L 0.484375 -4.503906 L 0.546875 -4.28125 L 0.734375 -2.230469 L 0.734375 -1.988281 L 0.796875 -1.738281 L 0.847656 -0.863281 L 0.898438 -0.585938 L 1.035156 -0.257812 L 1.429688 -0.128906 L 2.34375 -0.207031 L 2.617188 -0.261719 L 2.847656 -0.269531 L 3.359375 -0.359375 L 3.605469 -0.332031 L 3.898438 -0.347656 L 4.148438 -0.398438 Z M 4.40625 -0.398438 "/></g></g></g><g fill="#ffbd59" fill-opacity="1"><g transform="translate(199.228664, 41.763259)"><g/></g></g><g fill="#ffbd59" fill-opacity="1"><g transform="translate(212.157299, 42.973161)"><g><path d="M 1.660156 0.386719 L 2.273438 0.488281 L 2.496094 0.546875 L 2.785156 0.582031 L 3.066406 0.539062 L 3.234375 0.300781 L 3.273438 0.0507812 L 3.34375 -0.222656 L 3.414062 -0.6875 L 3.488281 -0.917969 L 3.539062 -1.207031 L 3.695312 -1.40625 L 4.011719 -1.484375 L 4.289062 -1.453125 L 4.539062 -1.347656 L 5.84375 -1.179688 L 7.125 -1.402344 L 7.339844 -1.511719 L 7.558594 -1.675781 L 7.753906 -1.804688 L 7.953125 -1.957031 L 8.296875 -2.300781 L 8.609375 -2.742188 L 8.707031 -3.007812 L 8.820312 -3.191406 L 9.0625 -4.203125 L 9.054688 -4.425781 L 9.074219 -4.707031 L 9.023438 -5.199219 L 8.875 -5.671875 L 8.660156 -6.144531 L 8.203125 -6.746094 L 7.851562 -7.105469 L 7.382812 -7.359375 L 7.191406 -7.492188 L 6.941406 -7.542969 L 6.710938 -7.683594 L 6.339844 -7.773438 L 5.941406 -7.84375 L 5.660156 -7.863281 L 4.902344 -8.035156 L 4.664062 -8.125 L 3.878906 -8.238281 L 3.609375 -8.308594 L 3.394531 -8.390625 L 3.121094 -8.394531 L 2.832031 -8.3125 L 2.679688 -8.136719 L 2.375 -6.628906 L 2.222656 -6.144531 L 2.195312 -5.902344 L 1.511719 -2.683594 L 1.484375 -2.441406 L 0.992188 -0.144531 L 1.078125 0.121094 L 1.4375 0.328125 Z M 4.414062 -3.476562 L 4.199219 -3.679688 L 4.128906 -3.914062 L 4.304688 -4.929688 L 4.382812 -5.183594 L 4.492188 -5.695312 L 4.664062 -5.90625 L 4.953125 -5.972656 L 6.238281 -5.664062 L 6.460938 -5.5 L 6.632812 -5.324219 L 6.761719 -5.128906 L 6.832031 -4.851562 L 6.824219 -4.621094 L 6.777344 -4.269531 L 6.679688 -3.9375 L 6.546875 -3.730469 L 6.394531 -3.554688 L 6.191406 -3.390625 L 5.960938 -3.28125 L 5.746094 -3.261719 L 5.351562 -3.292969 L 4.71875 -3.4375 Z M 4.414062 -3.476562 "/></g></g></g><g fill="#ffbd59" fill-opacity="1"><g transform="translate(229.382554, 47.430239)"><g><path d="M 1.078125 -0.121094 L 1.046875 0.289062 L 1.328125 0.582031 L 1.578125 0.644531 L 1.9375 0.832031 L 2.136719 0.886719 L 2.488281 1.03125 L 2.914062 1.066406 L 3.160156 0.769531 L 3.324219 0.367188 L 3.433594 0.167969 L 3.5 -0.09375 L 3.828125 -0.839844 L 4.03125 -1.03125 L 4.308594 -1.066406 L 4.953125 -0.695312 L 5.105469 -0.398438 L 5.148438 -0.105469 L 5.15625 0.144531 L 5.261719 0.597656 L 5.3125 1.113281 L 5.367188 1.34375 L 5.367188 1.617188 L 5.414062 1.867188 L 5.585938 2.1875 L 5.941406 2.457031 L 6.878906 2.824219 L 7.089844 2.9375 L 7.484375 3.085938 L 7.75 3.070312 L 7.925781 2.839844 L 7.902344 2.527344 L 7.828125 2.304688 L 7.828125 2.042969 L 7.671875 1.28125 L 7.652344 1.027344 L 7.527344 0.261719 L 7.457031 0.0273438 L 7.5625 -0.261719 L 7.773438 -0.476562 L 8.007812 -0.585938 L 8.230469 -0.660156 L 9.027344 -1.296875 L 9.457031 -1.914062 L 9.738281 -2.664062 L 9.796875 -2.914062 L 9.859375 -3.671875 L 9.847656 -3.910156 L 9.796875 -4.152344 L 9.414062 -5.132812 L 9.09375 -5.523438 L 8.707031 -5.859375 L 8.101562 -6.285156 L 7.730469 -6.453125 L 7.378906 -6.566406 L 6.671875 -6.855469 L 6.457031 -7 L 6.222656 -7.09375 L 5.984375 -7.121094 L 5.75 -7.21875 L 5.535156 -7.363281 L 5.28125 -7.480469 L 4.5625 -7.703125 L 4.300781 -7.671875 L 4.027344 -7.402344 L 2.9375 -4.703125 L 2.863281 -4.457031 L 2.636719 -4 L 2.542969 -3.738281 L 2.445312 -3.503906 L 2.378906 -3.269531 L 2.265625 -3.054688 L 1.863281 -2.109375 L 1.789062 -1.863281 Z M 5.078125 -2.949219 L 4.894531 -3.175781 L 4.878906 -3.402344 L 5.164062 -4.109375 L 5.222656 -4.316406 L 5.449219 -4.800781 L 5.644531 -4.984375 L 5.933594 -4.976562 L 6.164062 -4.867188 L 6.652344 -4.722656 L 6.953125 -4.519531 L 7.25 -4.371094 L 7.449219 -4.21875 L 7.59375 -3.734375 L 7.585938 -3.515625 L 7.507812 -3.191406 L 7.328125 -2.851562 L 7.128906 -2.660156 L 6.925781 -2.539062 L 6.753906 -2.484375 L 6.503906 -2.476562 L 6.128906 -2.535156 L 5.898438 -2.613281 L 5.34375 -2.867188 Z M 5.078125 -2.949219 "/></g></g></g><g fill="#ffbd59" fill-opacity="1"><g transform="translate(245.914787, 55.080538)"><g><path d="M 4.175781 2.921875 L 5.1875 3.445312 L 5.675781 3.582031 L 6.898438 3.773438 L 8.109375 3.546875 L 8.375 3.445312 L 9.269531 2.980469 L 9.472656 2.828125 L 9.644531 2.636719 L 9.820312 2.507812 L 10.015625 2.300781 L 10.554688 1.589844 L 10.980469 0.820312 L 11.152344 0.371094 L 11.214844 0.09375 L 11.320312 -0.1875 L 11.355469 -0.664062 L 11.40625 -0.902344 L 11.386719 -1.175781 L 11.34375 -1.386719 L 11.328125 -1.667969 L 11.144531 -2.378906 L 10.824219 -3.074219 L 9.710938 -4.421875 L 9.21875 -4.757812 L 8.445312 -5.203125 L 8.207031 -5.296875 L 7.953125 -5.375 L 7.703125 -5.414062 L 7.230469 -5.570312 L 6.464844 -5.582031 L 6.234375 -5.554688 L 5.738281 -5.542969 L 5.242188 -5.410156 L 4.535156 -5.113281 L 4.320312 -4.996094 L 3.738281 -4.542969 L 3.351562 -4.140625 L 2.503906 -2.933594 L 2.183594 -2.1875 L 2.109375 -1.71875 L 2.027344 -1.453125 L 2.007812 -1.195312 L 2.0625 -0.1875 L 2.175781 0.296875 L 2.207031 0.546875 L 2.683594 1.402344 L 2.828125 1.617188 L 3.558594 2.472656 Z M 5.101562 0.855469 L 4.9375 0.640625 L 4.761719 0.496094 L 4.523438 0.0664062 L 4.378906 -0.433594 L 4.371094 -0.652344 L 4.332031 -0.890625 L 4.515625 -1.621094 L 4.8125 -2.1875 L 5.03125 -2.5 L 5.359375 -2.84375 L 5.550781 -2.996094 L 5.773438 -3.058594 L 5.988281 -3.179688 L 6.238281 -3.257812 L 6.488281 -3.292969 L 6.9375 -3.304688 L 7.191406 -3.273438 L 7.449219 -3.183594 L 7.964844 -2.90625 L 8.457031 -2.539062 L 8.859375 -1.929688 L 9.03125 -1.46875 L 9.039062 -0.945312 L 9 -0.699219 L 8.925781 -0.445312 L 8.875 -0.203125 L 8.617188 0.28125 L 8.207031 0.773438 L 7.824219 1.144531 L 7.605469 1.230469 L 7.40625 1.324219 L 7.152344 1.433594 L 6.65625 1.472656 L 6.40625 1.433594 L 6.175781 1.417969 L 5.96875 1.316406 L 5.734375 1.238281 Z M 5.101562 0.855469 "/></g></g></g><g fill="#ffbd59" fill-opacity="1"><g transform="translate(261.770201, 66.559011)"><g><path d="M 2.78125 2.753906 L 3.054688 3.019531 L 3.375 3.257812 L 3.558594 3.433594 L 3.902344 3.609375 L 4.335938 3.90625 L 4.941406 4.140625 L 5.953125 4.324219 L 6.957031 4.183594 L 7.222656 4.089844 L 7.476562 4.046875 L 7.964844 3.835938 L 8.179688 3.707031 L 8.402344 3.550781 L 8.609375 3.445312 L 8.8125 3.292969 L 8.996094 3.101562 L 9.308594 2.835938 L 9.554688 2.5625 L 10.128906 1.71875 L 10.34375 1.253906 L 10.441406 1.011719 L 10.597656 0.226562 L 10.636719 -0.78125 L 10.472656 -1.542969 L 10.398438 -1.808594 L 10.25 -2.023438 L 10.167969 -2.246094 L 10.019531 -2.476562 L 9.5625 -3.082031 L 7.5 -5.117188 L 7.308594 -5.25 L 7.132812 -5.4375 L 6.855469 -5.550781 L 6.585938 -5.4375 L 1.628906 -0.347656 L 1.480469 -0.15625 L 1.027344 0.308594 L 0.847656 0.679688 L 0.941406 0.949219 L 1.140625 1.105469 L 2.234375 2.203125 L 2.445312 2.355469 Z M 4.207031 1.230469 L 4.050781 1.042969 L 3.9375 0.742188 L 4.035156 0.496094 L 4.175781 0.332031 L 4.546875 -0.03125 L 4.945312 -0.515625 L 5.421875 -0.933594 L 6.625 -2.210938 L 6.792969 -2.347656 L 7.089844 -2.46875 L 7.441406 -2.25 L 7.835938 -1.886719 L 8.074219 -1.605469 L 8.332031 -1.160156 L 8.417969 -0.917969 L 8.457031 -0.683594 L 8.46875 -0.425781 L 8.445312 -0.128906 L 8.386719 0.117188 L 8.308594 0.359375 L 7.675781 1.304688 L 6.964844 1.855469 L 6.484375 2.042969 L 5.773438 2.097656 L 5.269531 1.996094 L 4.925781 1.820312 L 4.488281 1.488281 Z M 4.207031 1.230469 "/></g></g></g><g fill="#ffbd59" fill-opacity="1"><g transform="translate(274.517317, 80.172593)"><g><path d="M 2.386719 3.664062 L 2.640625 3.957031 L 2.769531 4.160156 L 3.546875 4.824219 L 4.007812 5.058594 L 4.480469 5.238281 L 4.976562 5.324219 L 5.507812 5.304688 L 5.757812 5.222656 L 6.007812 5.199219 L 6.511719 4.984375 L 7.042969 4.683594 L 9.847656 2.707031 L 10.03125 2.546875 L 10.273438 2.40625 L 10.425781 2.265625 L 11.285156 1.660156 L 11.515625 1.542969 L 11.636719 1.253906 L 11.550781 0.972656 L 11.066406 0.335938 L 10.789062 -0.121094 L 10.53125 -0.269531 L 10.222656 -0.21875 L 6.148438 2.691406 L 5.453125 3.070312 L 5.253906 3.121094 L 4.964844 3.152344 L 4.714844 3.0625 L 4.324219 2.796875 L 3.882812 2.171875 L 3.769531 1.898438 L 3.746094 1.648438 L 3.753906 1.394531 L 3.832031 1.152344 L 3.984375 0.949219 L 4.542969 0.460938 L 7.90625 -1.867188 L 8.046875 -2 L 8.394531 -2.210938 L 8.679688 -2.445312 L 8.820312 -2.730469 L 8.761719 -3.015625 L 8.621094 -3.214844 L 8.445312 -3.398438 L 8.171875 -3.875 L 7.984375 -4.070312 L 7.75 -4.230469 L 7.457031 -4.226562 L 7.261719 -4.058594 L 7.011719 -3.882812 L 6.832031 -3.785156 L 5.402344 -2.726562 L 5.171875 -2.613281 L 4.988281 -2.453125 L 3.296875 -1.300781 L 2.511719 -0.652344 L 2.15625 -0.25 L 1.921875 0.167969 L 1.71875 0.667969 L 1.660156 0.894531 L 1.636719 1.148438 L 1.652344 1.632812 L 1.707031 1.90625 L 1.722656 2.128906 L 1.824219 2.648438 L 2.027344 3.113281 L 2.171875 3.320312 Z M 2.386719 3.664062 "/></g></g></g><g fill="#ffbd59" fill-opacity="1"><g transform="translate(284.307938, 95.484815)"><g><path d="M 1.742188 4.066406 L 1.957031 4.664062 L 2.386719 5.449219 L 2.835938 6.066406 L 3.046875 6.222656 L 3.238281 6.429688 L 3.417969 6.585938 L 4.082031 6.964844 L 4.554688 7.144531 L 5.019531 7.25 L 5.546875 7.304688 L 6.5625 7.203125 L 6.742188 7.039062 L 6.785156 6.738281 L 6.445312 6.113281 L 6.375 5.867188 L 6.257812 5.640625 L 6.164062 5.402344 L 5.902344 5.199219 L 5.632812 5.101562 L 5.359375 5.085938 L 4.9375 4.957031 L 4.691406 4.84375 L 4.542969 4.703125 L 4.140625 4.398438 L 3.828125 3.800781 L 3.707031 3.449219 L 3.667969 2.964844 L 3.691406 2.464844 L 3.839844 1.992188 L 4.128906 1.554688 L 4.324219 1.367188 L 4.449219 1.214844 L 4.628906 1.058594 L 4.871094 0.910156 L 5.574219 0.589844 L 6.074219 0.457031 L 6.570312 0.441406 L 6.84375 0.457031 L 7.292969 0.585938 L 7.636719 0.765625 L 7.953125 1 L 8.410156 1.726562 L 8.613281 2.234375 L 8.675781 2.640625 L 8.6875 2.882812 L 8.632812 3.105469 L 8.453125 3.59375 L 8.335938 3.800781 L 8.214844 4.117188 L 8.210938 4.441406 L 8.328125 4.640625 L 8.425781 4.886719 L 8.542969 5.113281 L 8.65625 5.453125 L 8.851562 5.785156 L 9.03125 5.941406 L 9.300781 5.914062 L 9.523438 5.730469 L 9.695312 5.554688 L 9.90625 5.375 L 10.03125 5.164062 L 10.171875 4.972656 L 10.292969 4.722656 L 10.453125 4.496094 L 10.644531 4.019531 L 10.78125 3.007812 L 10.644531 1.726562 L 10.558594 1.503906 L 10.488281 1.253906 L 10.171875 0.53125 L 9.441406 -0.488281 L 8.644531 -1.160156 L 8.238281 -1.378906 L 7.5625 -1.671875 L 7.027344 -1.804688 L 6.589844 -1.871094 L 5.8125 -1.867188 L 5.285156 -1.765625 L 4.238281 -1.429688 L 3.425781 -0.972656 L 2.839844 -0.511719 L 2.058594 0.445312 L 1.765625 1.148438 L 1.554688 1.875 L 1.511719 2.496094 L 1.53125 3.113281 L 1.578125 3.34375 L 1.605469 3.613281 L 1.652344 3.839844 Z M 1.742188 4.066406 "/></g></g></g><g fill="#ffbd59" fill-opacity="1"><g transform="translate(291.352069, 113.265499)"><g><path d="M 0.789062 3.222656 L 1.023438 4.039062 L 1.238281 4.367188 L 1.613281 4.402344 L 2.261719 4.277344 L 2.722656 4.121094 L 2.988281 4.082031 L 3.476562 3.945312 L 3.703125 3.914062 L 3.964844 3.808594 L 5.957031 3.328125 L 6.203125 3.226562 L 7.285156 2.992188 L 7.679688 2.996094 L 7.886719 3.195312 L 8.035156 3.667969 L 8.085938 4.140625 L 8.191406 4.390625 L 8.234375 4.613281 L 8.421875 4.789062 L 8.730469 4.867188 L 9.90625 4.585938 L 10.117188 4.386719 L 10.21875 4.113281 L 10.023438 3.347656 L 9.988281 3.109375 L 9.886719 2.859375 L 9.851562 2.617188 L 9.550781 1.632812 L 9.539062 1.375 L 9.492188 1.136719 L 9.386719 0.886719 L 9.34375 0.609375 L 9.238281 0.402344 L 9.089844 -0.335938 L 8.957031 -0.707031 L 8.789062 -1.582031 L 8.605469 -1.785156 L 8.285156 -1.863281 L 8.042969 -1.785156 L 7.421875 -1.65625 L 7.042969 -1.535156 L 6.851562 -1.367188 L 6.785156 -1.113281 L 6.871094 -0.875 L 7.140625 0.300781 L 7.078125 0.566406 L 6.867188 0.765625 L 6.464844 0.839844 L 6.128906 0.953125 L 5.851562 1.007812 L 5.609375 1.082031 L 5.257812 1.144531 L 3.433594 1.648438 L 3.179688 1.6875 L 2.179688 1.925781 L 1.925781 2.015625 L 1.207031 2.183594 L 0.96875 2.21875 L 0.738281 2.449219 L 0.703125 2.835938 Z M 0.789062 3.222656 "/></g></g></g><g fill="#ffbd59" fill-opacity="1"><g transform="translate(294.612199, 129.597889)"><g/></g></g><g fill="#ffbd59" fill-opacity="1"><g transform="translate(295.313471, 142.589923)"><g><path d="M 0.410156 0.988281 L 0.0742188 1.058594 L -0.0625 1.292969 L -0.101562 1.546875 L -0.0898438 2.082031 L -0.140625 2.574219 L -0.136719 3.058594 L -0.1875 3.300781 L -0.175781 3.578125 L -0.3125 6.09375 L -0.199219 6.339844 L 0.1875 6.5 L 1.214844 6.535156 L 1.601562 6.441406 L 1.765625 6.21875 L 1.753906 5.953125 L 1.714844 5.707031 L 1.765625 5.445312 L 1.78125 4.921875 L 1.84375 4.671875 L 1.816406 4.441406 L 1.867188 3.949219 L 1.855469 3.679688 L 1.96875 3.429688 L 2.226562 3.34375 L 6.527344 3.566406 L 6.835938 3.558594 L 7.339844 3.605469 L 8.066406 3.605469 L 8.308594 3.628906 L 8.59375 3.515625 L 8.757812 3.269531 L 8.78125 2.773438 L 8.742188 2.519531 L 8.820312 2.011719 L 8.792969 1.769531 L 8.707031 1.5 L 8.433594 1.371094 L 6.65625 1.28125 L 6.414062 1.246094 L 6.160156 1.257812 L 5.691406 1.199219 L 5.410156 1.195312 L 5.167969 1.210938 Z M 0.410156 0.988281 "/></g></g></g><g fill="#ffbd59" fill-opacity="1"><g transform="translate(293.73975, 158.838376)"><g><path d="M -0.984375 4.3125 L -1.347656 6.09375 L -1.292969 6.378906 L -1.0625 6.570312 L 0.191406 6.847656 L 0.46875 6.765625 L 0.636719 6.527344 L 0.675781 6.238281 L 0.761719 6.007812 L 0.914062 5.378906 L 0.953125 4.957031 L 1.035156 4.714844 L 1.082031 4.441406 L 1.171875 4.210938 L 1.207031 3.933594 L 1.386719 3.699219 L 1.632812 3.648438 L 2.414062 3.820312 L 2.652344 3.988281 L 2.738281 4.242188 L 2.667969 4.617188 L 2.542969 5.007812 L 2.464844 5.484375 L 2.339844 5.992188 L 2.3125 6.246094 L 2.238281 6.527344 L 2.28125 6.796875 L 2.511719 6.9375 L 3.621094 7.222656 L 3.996094 7.171875 L 4.21875 6.921875 L 4.378906 6.191406 L 4.410156 5.925781 L 4.5625 5.410156 L 4.695312 4.6875 L 4.867188 4.449219 L 5.273438 4.433594 L 5.65625 4.519531 L 5.867188 4.683594 L 5.90625 4.976562 L 5.84375 5.210938 L 5.839844 5.457031 L 5.425781 7.226562 L 5.386719 7.464844 L 5.480469 7.757812 L 5.675781 7.933594 L 5.925781 7.972656 L 6.171875 8.042969 L 6.921875 8.179688 L 7.183594 8.121094 L 7.335938 7.894531 L 7.394531 7.632812 L 7.492188 7.421875 L 7.699219 6.410156 L 7.734375 6.132812 L 7.816406 5.890625 L 7.847656 5.675781 L 7.929688 5.433594 L 8.125 4.410156 L 8.21875 4.171875 L 8.21875 3.925781 L 8.292969 3.707031 L 8.324219 3.453125 L 8.390625 3.207031 L 8.347656 2.925781 L 8.117188 2.730469 L 7.640625 2.652344 L 7.140625 2.503906 L 6.859375 2.480469 L 5.648438 2.1875 L 5.378906 2.167969 L 5.148438 2.09375 L 4.132812 1.855469 L 3.902344 1.84375 L 1.894531 1.390625 L 1.664062 1.316406 L 1.40625 1.296875 L 0.558594 1.070312 L 0.28125 1.039062 L -0.078125 1.0625 L -0.320312 1.398438 L -0.527344 2.289062 L -0.5625 2.570312 L -0.625 2.789062 L -0.699219 3.308594 L -0.800781 3.53125 L -0.875 3.816406 L -0.90625 4.070312 Z M -0.984375 4.3125 "/></g></g></g><g fill="#ffbd59" fill-opacity="1"><g transform="translate(289.419457, 174.999424)"><g><path d="M -2.902344 6.914062 L -3.050781 7.375 L -3.167969 7.585938 L -3.308594 7.957031 L -3.386719 8.308594 L -3.117188 8.460938 L -2.816406 8.492188 L -2.308594 8.496094 L -1.566406 8.433594 L -1.0625 8.449219 L -0.542969 8.390625 L 0.710938 8.386719 L 0.933594 8.34375 L 1.207031 8.320312 L 1.492188 8.355469 L 1.714844 8.324219 L 1.929688 8.332031 L 2.46875 8.265625 L 2.75 8.285156 L 4.703125 8.1875 L 4.964844 8.214844 L 5.230469 8.175781 L 5.46875 8.191406 L 5.972656 8.140625 L 6.269531 8.027344 L 6.546875 7.691406 L 6.574219 7.261719 L 6.460938 6.96875 L 6.304688 6.777344 L 6.105469 6.597656 L 5.984375 6.425781 L 5.101562 5.507812 L 4.980469 5.304688 L 4.769531 5.148438 L 4.597656 4.925781 L 4.417969 4.769531 L 2.402344 2.527344 L 2.175781 2.347656 L 2.046875 2.160156 L 1.847656 1.980469 L 1.558594 1.613281 L 1.164062 1.242188 L 1.050781 1.042969 L 0.867188 0.898438 L 0.492188 0.46875 L 0.289062 0.300781 L -0.0273438 0.234375 L -0.195312 0.441406 L -0.363281 0.910156 L -0.484375 1.132812 L -0.734375 1.800781 L -0.765625 2.105469 L -0.644531 2.414062 L -0.347656 2.789062 L -0.214844 3.101562 L -0.191406 3.402344 L -0.316406 3.609375 L -0.476562 4.125 L -0.597656 4.320312 L -1.066406 5.476562 L -1.175781 5.675781 L -1.25 5.949219 L -1.484375 6.152344 L -1.765625 6.296875 L -2.03125 6.3125 L -2.273438 6.292969 L -2.546875 6.457031 L -2.777344 6.675781 Z M 1.128906 5.464844 L 1.273438 5.25 L 1.359375 4.96875 L 1.519531 4.816406 L 1.75 4.898438 L 2.785156 5.976562 L 2.839844 6.148438 L 2.675781 6.273438 L 1.15625 6.289062 L 0.964844 6.152344 L 0.945312 5.9375 Z M 1.128906 5.464844 "/></g></g></g><g fill="#ffbd59" fill-opacity="1"><g transform="translate(281.478349, 191.842003)"><g><path d="M -2.539062 3.609375 L -3.238281 4.667969 L -3.574219 5.589844 L -3.6875 6.59375 L -3.652344 7.09375 L -3.585938 7.363281 L -3.566406 7.605469 L -3.5 7.832031 L -3.390625 8.058594 L -3.261719 8.277344 L -3.199219 8.503906 L -2.714844 9.128906 L -2.367188 9.480469 L -2.191406 9.609375 L -2.03125 9.777344 L -1.816406 9.917969 L -1.628906 10.074219 L -1.214844 10.316406 L -0.964844 10.332031 L -0.722656 10.199219 L -0.566406 9.984375 L -0.386719 9.78125 L 0.527344 8.332031 L 0.988281 7.722656 L 1.222656 7.296875 L 1.257812 7.015625 L 1.121094 6.789062 L 0.113281 6.121094 L -0.121094 6.105469 L -0.363281 6.21875 L -0.585938 6.511719 L -0.894531 7.070312 L -1.054688 7.242188 L -1.234375 7.351562 L -1.433594 7.261719 L -1.542969 7.039062 L -1.621094 6.757812 L -1.636719 6.535156 L -1.542969 6.09375 L -1.367188 5.617188 L -1.195312 5.335938 L -0.773438 4.835938 L -0.164062 4.417969 L 0.34375 4.296875 L 0.570312 4.277344 L 1.085938 4.328125 L 1.449219 4.445312 L 1.824219 4.617188 L 2.445312 5.011719 L 2.808594 5.359375 L 3.078125 5.78125 L 3.359375 6.441406 L 3.378906 6.988281 L 3.355469 7.230469 L 3.242188 7.445312 L 3.210938 7.679688 L 2.804688 8.34375 L 2.4375 8.664062 L 2.21875 8.808594 L 1.949219 8.921875 L 1.726562 8.957031 L 1.457031 8.976562 L 1.128906 9.078125 L 0.886719 9.285156 L 0.660156 9.605469 L 0.492188 9.953125 L 0.121094 10.441406 L 0.0625 10.78125 L 0.203125 10.964844 L 0.734375 11.101562 L 0.988281 11.132812 L 1.882812 11.117188 L 2.230469 11.007812 L 2.5 10.945312 L 2.734375 10.871094 L 3.613281 10.386719 L 3.804688 10.191406 L 4.273438 9.785156 L 4.964844 8.828125 L 5.09375 8.609375 L 5.152344 8.386719 L 5.273438 8.175781 L 5.515625 7.164062 L 5.542969 6.34375 L 5.4375 5.605469 L 5.359375 5.355469 L 5.304688 5.089844 L 5.222656 4.867188 L 4.6875 3.949219 L 3.761719 3.066406 L 3.429688 2.832031 L 2.652344 2.394531 L 1.460938 2.03125 L 0.972656 1.984375 L 0.453125 1.988281 L -0.273438 2.121094 L -0.75 2.308594 L -1.65625 2.757812 L -1.828125 2.90625 L -2.332031 3.4375 Z M -2.539062 3.609375 "/></g></g></g><g fill="#ffbd59" fill-opacity="1"><g transform="translate(270.159973, 207.274159)"><g><path d="M -3.167969 3.019531 L -3.40625 3.316406 L -3.582031 3.480469 L -4.09375 4.371094 L -4.238281 4.867188 L -4.332031 5.359375 L -4.324219 5.863281 L -4.207031 6.382812 L -4.078125 6.617188 L -4.015625 6.859375 L -3.710938 7.3125 L -3.316406 7.78125 L -0.859375 10.175781 L -0.667969 10.324219 L -0.484375 10.539062 L -0.324219 10.664062 L 0.433594 11.398438 L 0.589844 11.601562 L 0.894531 11.671875 L 1.15625 11.53125 L 1.695312 10.941406 L 2.09375 10.585938 L 2.1875 10.304688 L 2.085938 10.011719 L -1.519531 6.535156 L -2.023438 5.921875 L -2.105469 5.734375 L -2.191406 5.457031 L -2.148438 5.195312 L -1.957031 4.761719 L -1.425781 4.214844 L -1.175781 4.050781 L -0.933594 3.984375 L -0.683594 3.945312 L -0.429688 3.976562 L -0.203125 4.09375 L 0.375 4.550781 L 3.28125 7.433594 L 3.4375 7.546875 L 3.710938 7.847656 L 3.992188 8.085938 L 4.300781 8.171875 L 4.566406 8.0625 L 4.734375 7.890625 L 4.886719 7.679688 L 5.304688 7.324219 L 5.460938 7.105469 L 5.574219 6.84375 L 5.515625 6.558594 L 5.316406 6.398438 L 5.097656 6.183594 L 4.972656 6.027344 L 3.667969 4.8125 L 3.511719 4.609375 L 3.324219 4.457031 L 1.882812 3.003906 L 1.101562 2.347656 L 0.640625 2.078125 L 0.1875 1.921875 L -0.34375 1.8125 L -0.578125 1.796875 L -0.828125 1.816406 L -1.304688 1.921875 L -1.5625 2.023438 L -1.777344 2.082031 L -2.269531 2.277344 L -2.6875 2.5625 L -2.867188 2.742188 Z M -3.167969 3.019531 "/></g></g></g><g fill="#ffbd59" fill-opacity="1"><g transform="translate(256.838833, 219.688693)"><g><path d="M -3.613281 2.550781 L -5.074219 3.628906 L -5.222656 3.878906 L -5.183594 4.175781 L -4.433594 5.21875 L -4.171875 5.34375 L -3.886719 5.28125 L -3.664062 5.089844 L -3.445312 4.980469 L -2.914062 4.613281 L -2.601562 4.328125 L -2.382812 4.199219 L -2.160156 4.027344 L -1.945312 3.914062 L -1.730469 3.730469 L -1.441406 3.679688 L -1.222656 3.804688 L -0.757812 4.457031 L -0.695312 4.738281 L -0.796875 4.988281 L -1.101562 5.21875 L -1.453125 5.425781 L -1.832031 5.726562 L -2.261719 6.023438 L -2.453125 6.191406 L -2.699219 6.351562 L -2.84375 6.582031 L -2.769531 6.839844 L -2.132812 7.792969 L -1.820312 8.007812 L -1.488281 7.96875 L -0.878906 7.53125 L -0.675781 7.355469 L -0.222656 7.074219 L 0.363281 6.625 L 0.644531 6.5625 L 0.957031 6.824219 L 1.1875 7.140625 L 1.238281 7.40625 L 1.070312 7.652344 L 0.867188 7.78125 L 0.699219 7.964844 L -0.792969 9.003906 L -0.980469 9.15625 L -1.109375 9.433594 L -1.078125 9.695312 L -0.917969 9.894531 L -0.78125 10.105469 L -0.316406 10.710938 L -0.0820312 10.839844 L 0.183594 10.773438 L 0.402344 10.621094 L 0.617188 10.527344 L 1.445312 9.914062 L 1.65625 9.730469 L 1.878906 9.605469 L 2.046875 9.46875 L 2.265625 9.339844 L 3.097656 8.710938 L 3.328125 8.59375 L 3.492188 8.414062 L 3.695312 8.300781 L 3.886719 8.128906 L 4.101562 7.992188 L 4.257812 7.753906 L 4.214844 7.457031 L 3.914062 7.078125 L 3.640625 6.632812 L 3.445312 6.429688 L 2.738281 5.402344 L 2.554688 5.207031 L 2.433594 4.996094 L 1.835938 4.144531 L 1.671875 3.980469 L 0.480469 2.300781 L 0.359375 2.089844 L 0.179688 1.90625 L -0.300781 1.171875 L -0.484375 0.957031 L -0.769531 0.738281 L -1.171875 0.828125 L -1.925781 1.351562 L -2.136719 1.535156 L -2.328125 1.660156 L -2.730469 1.992188 L -2.957031 2.09375 L -3.199219 2.253906 L -3.390625 2.421875 Z M -3.613281 2.550781 "/></g></g></g></svg>