<svg width="663" height="540" viewBox="0 0 663 540" fill="none" xmlns="http://www.w3.org/2000/svg">
<path d="M428.056 282.818H297.236C292.531 282.813 288.02 280.942 284.693 277.615C281.366 274.288 279.495 269.777 279.489 265.072V81.0362C279.513 59.5516 288.059 38.9538 303.251 23.7618C318.443 8.56985 339.041 0.0243107 360.525 0H428.057C432.762 0.00531233 437.272 1.8767 440.599 5.2036C443.926 8.53051 445.798 13.0412 445.803 17.7462V265.072C445.798 269.777 443.926 274.288 440.599 277.615C437.272 280.942 432.761 282.813 428.056 282.818Z" fill="#F2F2F2"/>
<path d="M301.81 159.937C299.828 159.939 297.928 160.728 296.527 162.129C295.126 163.53 294.338 165.43 294.335 167.411V209.418C294.338 211.399 295.126 213.299 296.527 214.7C297.928 216.102 299.828 216.89 301.81 216.892H428.943C430.925 216.89 432.825 216.102 434.226 214.7C435.627 213.299 436.415 211.399 436.418 209.418V167.411C436.415 165.43 435.627 163.53 434.226 162.129C432.825 160.727 430.925 159.939 428.943 159.937L301.81 159.937Z" fill="white"/>
<path d="M429.249 132.684H302.116C299.972 132.682 297.917 131.829 296.4 130.313C294.884 128.797 294.032 126.741 294.029 124.597C294.044 111.316 299.327 98.5836 308.718 89.1925C318.109 79.8014 330.842 74.5189 344.123 74.5039H429.249C431.393 74.5063 433.449 75.359 434.965 76.8751C436.481 78.3911 437.334 80.4467 437.336 82.5907V124.597C437.334 126.741 436.481 128.797 434.965 130.313C433.449 131.829 431.393 132.682 429.249 132.684Z" fill="white"/>
<path d="M483.985 210.448H337.634C336.774 210.447 335.949 210.105 335.341 209.496C334.733 208.888 334.391 208.063 334.39 207.203V168.642C334.391 167.782 334.733 166.957 335.341 166.349C335.949 165.741 336.774 165.398 337.634 165.397H483.985C484.845 165.398 485.67 165.741 486.278 166.349C486.886 166.957 487.228 167.782 487.229 168.642V207.203C487.228 208.063 486.886 208.888 486.278 209.496C485.67 210.105 484.845 210.447 483.985 210.448Z" fill="white"/>
<path d="M483.986 211.06H337.635C336.612 211.059 335.632 210.652 334.909 209.929C334.186 209.206 333.779 208.226 333.778 207.203V168.642C333.779 167.619 334.186 166.639 334.909 165.916C335.632 165.193 336.612 164.786 337.635 164.785H483.986C485.008 164.786 485.988 165.193 486.712 165.916C487.435 166.639 487.841 167.619 487.842 168.642V207.203C487.841 208.226 487.435 209.206 486.712 209.929C485.988 210.652 485.008 211.059 483.986 211.06ZM337.635 166.01C336.937 166.01 336.268 166.288 335.775 166.781C335.281 167.275 335.003 167.944 335.003 168.642V207.203C335.003 207.901 335.281 208.57 335.775 209.063C336.268 209.557 336.937 209.834 337.635 209.835H483.986C484.683 209.834 485.352 209.557 485.846 209.063C486.339 208.57 486.617 207.901 486.618 207.203V168.642C486.617 167.944 486.339 167.275 485.846 166.781C485.352 166.288 484.683 166.01 483.986 166.01H337.635Z" fill="#CCCCCC"/>
<path d="M331.943 461.954L296.122 447.676C295.323 447.357 294.684 446.733 294.344 445.943C294.004 445.153 293.992 444.26 294.31 443.461L348.497 307.511C348.817 306.713 349.44 306.073 350.23 305.733C351.02 305.394 351.913 305.381 352.712 305.699L388.533 319.976C389.332 320.296 389.971 320.919 390.311 321.709C390.651 322.5 390.663 323.392 390.346 324.192L336.158 460.141C335.839 460.94 335.216 461.579 334.425 461.919C333.635 462.259 332.742 462.271 331.943 461.954Z" fill="white"/>
<path d="M331.716 462.523L295.895 448.245C294.946 447.865 294.186 447.124 293.782 446.185C293.378 445.245 293.363 444.184 293.741 443.234L347.928 307.285C348.308 306.335 349.049 305.575 349.988 305.171C350.928 304.767 351.989 304.752 352.939 305.13L388.76 319.407C389.709 319.787 390.47 320.528 390.874 321.467C391.277 322.407 391.292 323.468 390.915 324.418L336.727 460.368C336.347 461.317 335.607 462.077 334.667 462.481C333.728 462.885 332.666 462.9 331.716 462.523ZM294.878 443.687C294.621 444.336 294.631 445.06 294.907 445.701C295.182 446.342 295.701 446.848 296.349 447.107L332.17 461.385C332.818 461.642 333.542 461.632 334.183 461.357C334.825 461.081 335.33 460.562 335.589 459.914L389.777 323.965C390.035 323.316 390.024 322.592 389.749 321.951C389.473 321.31 388.954 320.804 388.306 320.545L352.486 306.268C351.837 306.01 351.113 306.02 350.472 306.296C349.831 306.571 349.325 307.09 349.066 307.738L294.878 443.687Z" fill="#CCCCCC"/>
<path d="M355.978 329.154C358.886 329.154 361.243 326.797 361.243 323.889C361.243 320.981 358.886 318.624 355.978 318.624C353.07 318.624 350.713 320.981 350.713 323.889C350.713 326.797 353.07 329.154 355.978 329.154Z" fill="#E6E6E6"/>
<path d="M319.924 445.941C319.538 445.786 319.229 445.485 319.065 445.103C318.901 444.721 318.895 444.29 319.048 443.904L366.758 324.207C366.834 324.015 366.948 323.841 367.091 323.693C367.235 323.546 367.406 323.428 367.595 323.347C367.784 323.265 367.988 323.222 368.194 323.219C368.399 323.217 368.604 323.254 368.795 323.331C368.986 323.407 369.161 323.52 369.308 323.664C369.456 323.807 369.574 323.979 369.655 324.168C369.736 324.357 369.78 324.56 369.782 324.766C369.785 324.972 369.747 325.176 369.671 325.368L321.961 445.065C321.807 445.451 321.506 445.76 321.124 445.924C320.742 446.088 320.311 446.094 319.924 445.941Z" fill="#E6E6E6"/>
<path d="M330.42 436.341C330.034 436.187 329.725 435.886 329.561 435.504C329.397 435.122 329.391 434.69 329.544 434.304L372.514 326.5C372.59 326.309 372.703 326.134 372.846 325.986C372.99 325.838 373.161 325.72 373.35 325.638C373.54 325.557 373.743 325.513 373.949 325.51C374.156 325.508 374.36 325.545 374.552 325.622C374.743 325.698 374.918 325.811 375.065 325.955C375.213 326.099 375.331 326.271 375.412 326.46C375.493 326.65 375.537 326.853 375.539 327.059C375.542 327.265 375.503 327.47 375.427 327.661L332.457 435.465C332.303 435.851 332.002 436.16 331.62 436.324C331.238 436.489 330.807 436.495 330.42 436.341Z" fill="#E6E6E6"/>
<path d="M420.109 36.3822C427.763 36.3822 433.968 30.1773 433.968 22.5231C433.968 14.869 427.763 8.66406 420.109 8.66406C412.455 8.66406 406.25 14.869 406.25 22.5231C406.25 30.1773 412.455 36.3822 420.109 36.3822Z" fill="white"/>
<path d="M426.933 21.975H420.699V15.741C420.699 15.6633 420.684 15.5864 420.654 15.5146C420.625 15.4428 420.582 15.3775 420.527 15.3225C420.472 15.2675 420.407 15.2238 420.335 15.194C420.263 15.1643 420.187 15.1489 420.109 15.1489C420.031 15.1489 419.954 15.1643 419.883 15.194C419.811 15.2238 419.746 15.2675 419.691 15.3225C419.636 15.3775 419.593 15.4428 419.563 15.5146C419.534 15.5864 419.519 15.6633 419.519 15.741V21.975H413.285C413.129 21.975 412.979 22.0372 412.868 22.1478C412.757 22.2584 412.695 22.4084 412.695 22.5648C412.695 22.7212 412.757 22.8712 412.868 22.9818C412.979 23.0924 413.129 23.1546 413.285 23.1546H419.519V29.3888C419.519 29.4664 419.534 29.5434 419.563 29.6152C419.593 29.687 419.636 29.7523 419.691 29.8073C419.746 29.8623 419.811 29.9059 419.883 29.9357C419.954 29.9655 420.031 29.9808 420.109 29.9808C420.187 29.9808 420.263 29.9655 420.335 29.9357C420.407 29.9059 420.472 29.8623 420.527 29.8073C420.582 29.7523 420.625 29.687 420.654 29.6152C420.684 29.5434 420.699 29.4664 420.699 29.3888V23.1546H426.933C427.089 23.1546 427.239 23.0924 427.35 22.9818C427.46 22.8712 427.523 22.7212 427.523 22.5648C427.523 22.4084 427.46 22.2584 427.35 22.1478C427.239 22.0372 427.089 21.975 426.933 21.975Z" fill="#E6E6E6"/>
<path d="M427.333 23.4181C426.247 23.4206 425.198 23.0234 424.387 22.3021C423.575 21.5809 423.058 20.5862 422.933 19.5077C422.808 18.4292 423.084 17.3424 423.709 16.4548C424.334 15.5671 425.264 14.9406 426.322 14.6948C427.38 14.449 428.49 14.6011 429.443 15.1222C430.395 15.6432 431.123 16.4966 431.486 17.5196C431.85 18.5427 431.824 19.6637 431.414 20.6689C431.004 21.6741 430.238 22.4931 429.262 22.9697C428.661 23.2634 428.001 23.4167 427.333 23.4181ZM427.327 16.3563C426.751 16.3563 426.192 16.5434 425.733 16.8895C425.273 17.2356 424.939 17.7218 424.78 18.2747C424.622 18.8275 424.647 19.417 424.854 19.9539C425.06 20.4909 425.435 20.9462 425.922 21.2511C426.41 21.556 426.984 21.6938 427.557 21.6438C428.13 21.5938 428.671 21.3586 429.098 20.9739C429.526 20.5892 429.817 20.0757 429.926 19.5112C430.036 18.9466 429.959 18.3616 429.708 17.8446C429.49 17.3988 429.151 17.0226 428.73 16.7595C428.309 16.4965 427.823 16.3568 427.327 16.3563Z" fill="#3F3D56"/>
<path d="M156.628 48.9404C156.631 45.8996 157.841 42.9843 159.991 40.8342C162.141 38.684 165.056 37.4746 168.097 37.4712H214.856C217.898 37.4712 220.815 38.6796 222.966 40.8304C225.117 42.9813 226.325 45.8986 226.325 48.9404C226.325 51.9822 225.117 54.8995 222.966 57.0503C220.815 59.2012 217.898 60.4096 214.856 60.4096H168.097C165.056 60.4062 162.141 59.1968 159.991 57.0466C157.841 54.8965 156.631 51.9812 156.628 48.9404Z" fill="#F8DD5C"/>
<path d="M327.865 44.22L237.506 45.5249L237.532 47.2894L327.891 45.9845L327.865 44.22Z" fill="#3F3D56"/>
<path d="M329.728 49.4371C328.762 48.963 328.004 48.1501 327.599 47.1533C327.194 46.1566 327.17 45.0457 327.531 44.0322C327.892 43.0187 328.614 42.1735 329.558 41.6576C330.502 41.1418 331.603 40.9913 332.651 41.2349C333.699 41.4784 334.621 42.099 335.241 42.9784C335.861 43.8578 336.135 44.9345 336.013 46.0034C335.89 47.0723 335.378 48.0587 334.575 48.7746C333.772 49.4905 332.733 49.886 331.657 49.8855C330.988 49.8853 330.328 49.7319 329.728 49.4371ZM330.799 42.9693C330.47 43.0816 330.167 43.2581 329.906 43.4885C329.646 43.7189 329.434 43.9987 329.283 44.3116C329.013 44.8633 328.943 45.4917 329.085 46.0891C329.227 46.6865 329.571 47.2162 330.06 47.5879C330.549 47.9596 331.151 48.1503 331.765 48.1275C332.378 48.1047 332.965 47.8698 333.425 47.4628C333.884 47.0558 334.189 46.502 334.286 45.8958C334.383 45.2895 334.266 44.6684 333.957 44.1383C333.647 43.6082 333.163 43.2019 332.587 42.9887C332.011 42.7755 331.38 42.7687 330.799 42.9693Z" fill="#3F3D56"/>
<path d="M153.099 395.663C153.102 392.622 154.312 389.707 156.462 387.557C158.612 385.407 161.528 384.197 164.568 384.194H211.327C214.369 384.194 217.286 385.402 219.437 387.553C221.588 389.704 222.797 392.621 222.797 395.663C222.797 398.705 221.588 401.622 219.437 403.773C217.286 405.924 214.369 407.132 211.327 407.132H164.568C161.528 407.129 158.612 405.919 156.462 403.769C154.312 401.619 153.102 398.704 153.099 395.663Z" fill="#F8DD5C"/>
<path d="M324.335 390.944L233.976 392.249L234.002 394.014L324.361 392.709L324.335 390.944Z" fill="#3F3D56"/>
<path d="M326.199 396.16C325.233 395.686 324.475 394.873 324.07 393.876C323.665 392.88 323.641 391.769 324.002 390.755C324.363 389.742 325.085 388.896 326.029 388.381C326.973 387.865 328.074 387.714 329.122 387.958C330.17 388.201 331.092 388.822 331.712 389.701C332.331 390.581 332.606 391.657 332.483 392.726C332.361 393.795 331.849 394.782 331.046 395.498C330.243 396.213 329.204 396.609 328.128 396.608C327.459 396.608 326.799 396.455 326.199 396.16ZM327.27 389.692C326.941 389.805 326.638 389.981 326.377 390.211C326.117 390.442 325.905 390.722 325.753 391.035C325.484 391.586 325.414 392.215 325.556 392.812C325.697 393.409 326.042 393.939 326.531 394.311C327.019 394.682 327.622 394.873 328.235 394.85C328.849 394.828 329.436 394.593 329.895 394.186C330.355 393.779 330.659 393.225 330.756 392.619C330.853 392.012 330.737 391.391 330.427 390.861C330.118 390.331 329.634 389.925 329.058 389.712C328.482 389.498 327.85 389.492 327.27 389.692Z" fill="#3F3D56"/>
<path d="M336.687 172.146L246.328 173.451L246.354 175.216L336.713 173.911L336.687 172.146Z" fill="#3F3D56"/>
<path d="M338.551 177.363C337.585 176.889 336.827 176.076 336.422 175.079C336.017 174.082 335.993 172.971 336.354 171.958C336.715 170.944 337.437 170.099 338.381 169.583C339.325 169.068 340.426 168.917 341.474 169.161C342.522 169.404 343.444 170.025 344.064 170.904C344.683 171.784 344.958 172.86 344.835 173.929C344.713 174.998 344.201 175.984 343.398 176.7C342.595 177.416 341.556 177.812 340.48 177.811C339.811 177.811 339.151 177.658 338.551 177.363ZM339.622 170.895C339.293 171.007 338.99 171.184 338.729 171.414C338.469 171.645 338.257 171.924 338.105 172.237C337.836 172.789 337.766 173.418 337.908 174.015C338.05 174.612 338.394 175.142 338.883 175.514C339.371 175.885 339.974 176.076 340.587 176.053C341.201 176.03 341.788 175.796 342.247 175.389C342.707 174.982 343.011 174.428 343.108 173.822C343.205 173.215 343.089 172.594 342.779 172.064C342.47 171.534 341.986 171.128 341.41 170.914C340.834 170.701 340.202 170.694 339.622 170.895Z" fill="#3F3D56"/>
<path d="M578.541 107.169H531.782C528.74 107.169 525.823 105.961 523.672 103.81C521.521 101.659 520.313 98.7415 520.313 95.6997C520.313 92.6578 521.521 89.7406 523.672 87.5897C525.823 85.4388 528.74 84.2305 531.782 84.2305H578.541C581.583 84.2305 584.5 85.4388 586.651 87.5897C588.802 89.7406 590.01 92.6578 590.01 95.6997C590.01 98.7415 588.802 101.659 586.651 103.81C584.5 105.961 581.583 107.169 578.541 107.169Z" fill="#F8DD5C"/>
<path d="M418.775 90.9763L418.749 92.7407L509.108 94.046L509.133 92.2815L418.775 90.9763Z" fill="#3F3D56"/>
<path d="M414.981 96.6447C413.895 96.6472 412.847 96.2499 412.035 95.5287C411.224 94.8075 410.706 93.8127 410.581 92.7342C410.456 91.6557 410.733 90.569 411.358 89.6813C411.983 88.7936 412.913 88.1672 413.97 87.9214C415.028 87.6756 416.139 87.8277 417.091 88.3487C418.044 88.8697 418.771 89.7231 419.135 90.7462C419.498 91.7692 419.472 92.8903 419.062 93.8955C418.652 94.9007 417.886 95.7197 416.91 96.1962C416.31 96.4899 415.65 96.6433 414.981 96.6447ZM414.975 89.5828C414.4 89.5828 413.84 89.77 413.381 90.1161C412.922 90.4622 412.587 90.9484 412.429 91.5012C412.27 92.0541 412.296 92.6435 412.502 93.1805C412.708 93.7175 413.083 94.1728 413.571 94.4776C414.059 94.7825 414.632 94.9203 415.205 94.8703C415.778 94.8203 416.319 94.5852 416.747 94.2004C417.174 93.8157 417.465 93.3023 417.575 92.7377C417.685 92.1732 417.608 91.5882 417.356 91.0712C417.138 90.6253 416.799 90.2491 416.378 89.9861C415.958 89.7231 415.471 89.5833 414.975 89.5828Z" fill="#3F3D56"/>
<g clip-path="url(#clip0_305_141)">
<path d="M335.268 515.592C334.615 515.622 333.968 515.45 333.416 515.101C332.863 514.752 332.432 514.241 332.179 513.638C331.927 513.036 331.866 512.37 332.005 511.732C332.145 511.094 332.477 510.514 332.957 510.07C333.037 509.751 333.095 509.522 333.175 509.203C332.55 507.617 331.465 506.253 330.059 505.287C328.653 504.321 326.99 503.796 325.283 503.78C323.577 503.764 321.904 504.257 320.48 505.197C319.056 506.136 317.945 507.479 317.29 509.053C313.51 517.89 308.618 527.038 311.051 536.771C294.981 502.754 300.446 460.44 324.195 431.349C330.76 427.737 336.081 421.32 337.466 413.869C334.217 414.969 330.166 412.329 332.609 408.911C333.668 407.605 334.737 406.309 335.796 405.002C323.454 391.875 308.75 412.507 322.334 430.225C317.89 435.789 314.041 441.803 310.849 448.167C311.586 441.409 310.707 434.573 308.283 428.221C305.826 422.301 301.221 417.316 297.165 412.198C292.235 405.962 282.087 408.839 281.423 416.752C285.974 418.246 286.565 424.811 281.36 425.71C282.723 440.431 292.352 453.959 305.614 460.415C300.716 474.14 298.804 488.75 300.004 503.271C297.663 486.3 279.424 482.182 266.676 475.437C265.865 474.917 264.919 474.644 263.955 474.652C262.992 474.66 262.051 474.948 261.248 475.48C260.445 476.013 259.815 476.767 259.434 477.652C259.053 478.536 258.938 479.512 259.103 480.461C260.862 481.175 262.546 482.063 264.13 483.11C264.872 483.608 265.442 484.324 265.761 485.158C266.08 485.993 266.133 486.905 265.912 487.771C265.692 488.636 265.209 489.413 264.529 489.993C263.849 490.574 263.007 490.93 262.116 491.014C268.542 506.898 285.156 517.565 302.219 517.505C303.859 524.622 306.235 531.55 309.308 538.176H334.634C334.724 537.895 334.806 537.605 334.888 537.324C332.544 537.471 330.19 537.331 327.88 536.907C334.082 529.573 338.879 525.831 335.269 515.592L335.268 515.592Z" fill="#F2F2F2"/>
<path d="M478.172 329.169L382.829 331.627C380.841 331.677 378.914 330.936 377.472 329.568C376.029 328.199 375.189 326.316 375.135 324.33L373.91 276.933C373.861 274.947 374.603 273.022 375.973 271.582C377.343 270.141 379.229 269.302 381.217 269.249L476.56 266.79C478.548 266.741 480.475 267.482 481.917 268.85C483.36 270.218 484.2 272.102 484.253 274.088L485.478 321.485C485.527 323.471 484.786 325.395 483.416 326.836C482.046 328.277 480.16 329.116 478.172 329.169Z" fill="white"/>
<path d="M478.194 330.051L382.852 332.509C380.629 332.564 378.476 331.736 376.864 330.207C375.252 328.677 374.313 326.572 374.253 324.352L373.028 276.956C372.973 274.736 373.802 272.585 375.333 270.975C376.864 269.365 378.972 268.427 381.194 268.367L476.537 265.909C478.759 265.854 480.913 266.682 482.525 268.211C484.137 269.74 485.076 271.846 485.136 274.065L486.361 321.462C486.415 323.682 485.586 325.833 484.056 327.443C482.525 329.053 480.417 329.991 478.194 330.051ZM381.24 270.13C379.485 270.177 377.821 270.917 376.612 272.189C375.404 273.46 374.749 275.158 374.793 276.91L376.018 324.307C376.065 326.059 376.806 327.721 378.079 328.929C379.351 330.136 381.052 330.789 382.806 330.746L478.149 328.288C479.903 328.241 481.567 327.5 482.776 326.229C483.985 324.958 484.639 323.26 484.596 321.508L483.371 274.111C483.324 272.359 482.582 270.696 481.31 269.489C480.037 268.282 478.337 267.628 476.582 267.672L381.24 270.13Z" fill="#CCCCCC"/>
<path d="M359.259 199.009C358.791 199.009 358.342 198.823 358.011 198.492C357.68 198.162 357.494 197.713 357.494 197.246V156.442C357.494 155.974 357.68 155.526 358.011 155.195C358.342 154.864 358.791 154.679 359.259 154.679C359.727 154.679 360.176 154.864 360.507 155.195C360.838 155.526 361.024 155.974 361.024 156.442V197.246C361.024 197.713 360.838 198.162 360.507 198.492C360.176 198.823 359.727 199.009 359.259 199.009Z" fill="white"/>
<path d="M379.685 178.607H338.833C338.365 178.607 337.916 178.421 337.584 178.091C337.253 177.76 337.067 177.311 337.067 176.844C337.067 176.376 337.253 175.928 337.584 175.597C337.916 175.266 338.365 175.081 338.833 175.081H379.685C380.154 175.081 380.603 175.266 380.934 175.597C381.265 175.928 381.451 176.376 381.451 176.844C381.451 177.311 381.265 177.76 380.934 178.091C380.603 178.421 380.154 178.607 379.685 178.607Z" fill="white"/>
<path d="M206.557 310.723H135.944V231.378H206.557C198.845 241.735 202.661 276.146 206.557 310.723Z" fill="#FFB6B6"/>
<path d="M206.967 513.186H219.677L225.724 464.217L206.964 464.218L206.967 513.186Z" fill="#FFB6B6"/>
<path d="M223.907 514.329V505.722L220.565 505.926L206.963 506.731L203.815 506.924L201.408 535.749L201.279 537.294H210.305L210.595 535.759L211.905 528.784L215.29 535.759L216.031 537.294H239.959C241.383 537.285 242.746 536.715 243.751 535.709C244.757 534.702 245.325 533.34 245.331 531.918C246.341 527.206 226.443 517.022 223.907 514.329Z" fill="#2F2E41"/>
<path d="M58.0542 499.367L69.1096 505.632L98.5634 466.023L82.2473 456.776L58.0542 499.367Z" fill="#FFB6B6"/>
<path d="M72.2284 508.706L76.4724 501.226L73.4855 499.756L61.2477 493.757L58.4112 492.362L44.4758 512.741L41.1987 517.527L44.9055 519.63L49.0422 521.98L54.6506 515.37L54.0275 524.803L73.5714 535.888H73.5822L74.8393 536.597C76.0806 537.297 77.5494 537.477 78.9232 537.097C80.2971 536.716 81.4637 535.807 82.1669 534.568C85.3688 530.963 73.0987 512.311 72.2284 508.706Z" fill="#2F2E41"/>
<path d="M133.296 272.814C116.263 284.087 109.993 392.394 114.419 390.626L74.272 465.355L131.415 490.939L168.987 360.636L175.249 408.588L166.9 484.684L203.836 493.606L229.384 491.783C222.746 401.077 216.763 305.411 203.026 268.406L133.296 272.814Z" fill="#2F2E41"/>
<path d="M186.212 144.241C186.212 144.241 167.302 141.798 161.541 144.099C159.491 144.918 157.441 152.439 153.597 154.679C146.637 158.734 140.957 158.051 140.957 158.051C143.676 192.626 143.528 219.448 127.262 269.533C127.247 270.8 127.558 272.05 128.165 273.163C128.772 274.276 129.655 275.215 130.729 275.89C131.804 276.564 133.034 276.952 134.301 277.016C135.569 277.08 136.831 276.818 137.968 276.254L204.792 271.05L212.714 229.404L223.084 207.538L209.648 179.917L208.496 163.805L191.552 155.56L186.212 144.241Z" fill="#F8DD5C"/>
<path d="M194.56 136.597L194.581 136.599C195.668 136.693 196.748 136.352 197.583 135.65C198.418 134.949 198.94 133.944 199.034 132.859L201.024 110.012C201.385 105.919 200.918 101.795 199.651 97.8862C197.167 90.257 191.832 83.8792 184.757 80.082C181.104 78.1265 177.092 76.9301 172.963 76.5648C156.073 75.0704 149.928 78.6226 139.672 104.405C129.415 130.187 137.678 127.287 137.678 127.287C137.63 127.837 137.693 128.392 137.864 128.918C138.199 129.944 138.917 130.801 139.87 131.31C140.359 131.57 140.895 131.73 141.447 131.779C161.436 136.713 181.607 141.913 194.564 136.598L194.56 136.597Z" fill="#2F2E41"/>
<path d="M157.162 98.3054C154.681 102.024 153.36 106.393 153.364 110.861C153.369 115.329 154.698 119.696 157.186 123.41C159.674 127.123 163.207 130.018 167.341 131.727C171.474 133.436 176.022 133.883 180.409 133.012C183.314 132.445 186.077 131.308 188.538 129.666C191 128.025 193.111 125.912 194.749 123.45C197.224 119.733 198.542 115.367 198.536 110.903C198.53 106.439 197.202 102.076 194.717 98.3654C192.232 94.6545 188.703 91.7614 184.575 90.0509C180.446 88.3404 175.903 87.8891 171.518 88.7539C168.611 89.3177 165.846 90.4525 163.381 92.0922C160.917 93.732 158.803 95.8434 157.162 98.3054Z" fill="#FFB6B6"/>
<path d="M208.117 112.501C208.402 109.264 208.033 106.003 207.031 102.912C206.753 95.3345 204.506 88.4847 195.253 88.8342C192.382 87.2988 189.231 86.3559 185.988 86.0615L181.411 85.6408C181.36 85.636 181.308 85.6314 181.257 85.627C174.854 85.0745 168.494 87.0852 163.575 91.2167C158.656 95.3482 155.582 101.262 155.029 107.657L154.989 108.115L164.671 108.996L168.776 100.067L168.633 109.358L173.633 109.815L175.703 105.31L175.632 109.994C183.095 116.472 194.349 116.74 208.073 112.96L208.117 112.501Z" fill="#2F2E41"/>
<path d="M177.311 134.373C177.398 135.125 177.273 135.886 176.948 136.57C176.785 136.92 176.573 137.246 176.319 137.538C176.102 137.786 175.856 138.008 175.587 138.199C174.789 138.761 173.817 139.022 172.844 138.933C172.783 138.927 172.723 138.92 172.662 138.912C172.602 138.904 172.542 138.894 172.482 138.883C172.421 138.873 172.361 138.861 172.301 138.847C172.241 138.833 172.181 138.818 172.12 138.802L168.737 137.88L164.883 127.365L164.076 136.619L148.692 132.451L152.113 93.1797L178.303 95.582L177.59 96.2771C175.22 98.6115 173.541 101.554 172.738 104.78C171.941 108.048 171.711 111.43 172.057 114.776C172.383 118.16 173.033 121.505 173.998 124.765C174.839 127.652 175.846 130.488 177.013 133.259C177.164 133.615 177.264 133.99 177.311 134.373Z" fill="#2F2E41"/>
<path d="M132.639 402.701L113.402 287.155C113.015 284.816 113.573 282.419 114.954 280.49C116.334 278.562 118.424 277.259 120.765 276.867L208.133 262.356C210.475 261.97 212.875 262.528 214.806 263.906C216.737 265.285 218.041 267.372 218.433 269.711L237.67 385.256C238.057 387.595 237.499 389.992 236.119 391.921C234.738 393.849 232.648 395.152 230.307 395.544L142.939 410.055C140.597 410.441 138.198 409.884 136.267 408.505C134.336 407.126 133.031 405.039 132.639 402.701Z" fill="#E6E6E6"/>
<path d="M133.53 366.688L121.163 292.405C120.801 290.214 121.323 287.969 122.616 286.163C123.909 284.357 125.866 283.136 128.059 282.77L203.144 270.299C205.338 269.937 207.585 270.459 209.393 271.75C211.202 273.042 212.424 274.997 212.791 277.186L229.909 380.006C230.271 382.197 229.749 384.442 228.456 386.248C227.163 388.054 225.206 389.275 223.013 389.641L176.499 397.367C166.73 398.978 156.719 396.653 148.663 390.901C140.608 385.15 135.166 376.442 133.53 366.688Z" fill="white"/>
<path d="M136.771 311.112C136.417 308.971 136.927 306.778 138.191 305.013C139.454 303.247 141.367 302.055 143.509 301.697L195.596 293.046C197.738 292.692 199.934 293.203 201.7 294.465C203.466 295.727 204.658 297.638 205.014 299.777C205.371 301.917 204.862 304.11 203.6 305.876C202.338 307.641 200.426 308.833 198.284 309.191L146.197 317.842C144.054 318.196 141.858 317.686 140.091 316.424C138.323 315.162 137.129 313.252 136.771 311.112Z" fill="#F8DD5C"/>
<path d="M140.952 336.227C140.598 334.086 141.109 331.892 142.372 330.127C143.636 328.362 145.548 327.17 147.691 326.812L199.778 318.161C201.92 317.807 204.116 318.317 205.882 319.579C207.648 320.841 208.841 322.752 209.197 324.892C209.553 327.032 209.044 329.225 207.782 330.991C206.52 332.756 204.608 333.948 202.466 334.306L150.379 342.957C148.236 343.31 146.039 342.8 144.272 341.539C142.505 340.277 141.311 338.367 140.952 336.227Z" fill="#F8DD5C"/>
<path d="M145.134 361.342C144.78 359.201 145.29 357.007 146.554 355.242C147.817 353.477 149.73 352.285 151.872 351.926L203.959 343.276C206.101 342.922 208.297 343.432 210.063 344.694C211.829 345.957 213.021 347.868 213.377 350.007C213.733 352.147 213.225 354.34 211.963 356.105C210.701 357.87 208.789 359.063 206.647 359.421L154.56 368.072C152.417 368.425 150.221 367.915 148.453 366.654C146.686 365.392 145.492 363.481 145.134 361.342Z" fill="#F8DD5C"/>
<path d="M122.248 299.215C123.18 298.241 123.888 297.076 124.325 295.802C124.761 294.527 124.916 293.174 124.777 291.834C124.638 290.494 124.209 289.2 123.521 288.042C122.832 286.884 121.9 285.89 120.788 285.127L129.957 239.688L117.997 234.065L107.502 288.113C106.356 290.077 105.971 292.393 106.419 294.622C106.868 296.85 108.12 298.837 109.938 300.206C111.756 301.574 114.013 302.229 116.282 302.047C118.551 301.864 120.674 300.856 122.248 299.215Z" fill="#FFB6B6"/>
<path d="M141.24 158.205C141.24 158.205 120.217 166.107 119.064 177.615C117.912 189.124 115.264 199.382 116.416 203.985C117.569 208.589 112.455 213.82 114.76 217.272C117.064 220.725 111.538 221.86 113.842 227.615C116.147 233.369 117.299 234.52 116.147 235.671C114.994 236.822 111.229 260.471 111.229 260.471L127.595 264.099L148.949 215.594L141.24 158.205Z" fill="#F8DD5C"/>
<path d="M217.605 299.215C216.673 298.241 215.965 297.076 215.528 295.802C215.092 294.527 214.937 293.174 215.076 291.834C215.215 290.494 215.644 289.2 216.332 288.042C217.021 286.884 217.953 285.89 219.065 285.127L209.896 239.688L221.856 234.065L232.351 288.113C233.497 290.077 233.882 292.393 233.433 294.622C232.984 296.85 231.732 298.837 229.915 300.206C228.097 301.574 225.84 302.229 223.571 302.047C221.302 301.864 219.179 300.856 217.605 299.215Z" fill="#FFB6B6"/>
<path d="M203.887 162.654C206.075 162.776 208.191 163.481 210.015 164.695C211.838 165.909 213.303 167.589 214.257 169.559C217.714 176.465 230.659 219.991 229.507 223.444C228.354 226.896 233.576 238.046 231.272 240.348C228.967 242.65 226.859 256.063 226.859 256.063L210.066 259.913L204.648 208.689L203.887 162.654Z" fill="#F8DD5C"/>
<path d="M600.629 320.277C600.296 319.153 600.214 317.969 600.388 316.809C600.562 315.65 600.989 314.542 601.638 313.565C602.287 312.588 603.143 311.765 604.145 311.154C605.147 310.542 606.271 310.158 607.438 310.028L613.742 282.226L624.015 292.911L616.453 317.674C616.543 319.647 615.904 321.583 614.659 323.117C613.414 324.651 611.649 325.675 609.699 325.996C607.748 326.317 605.748 325.912 604.076 324.858C602.405 323.804 601.178 322.174 600.629 320.277Z" fill="#A0616A"/>
<path d="M615.777 148.994L616.282 151.383L642.596 231.787L624.895 303.437L610.408 296.671L613.823 233.146C587.822 198.471 580.174 185.921 582.442 149.832L615.777 148.994Z" fill="#E6E6E6"/>
<path d="M593.352 525.421L580.407 525.42L574.249 475.549L593.354 475.551L593.352 525.421Z" fill="#A0616A"/>
<path d="M593.808 538.908L554.001 538.906V538.404C554.002 534.299 555.634 530.363 558.54 527.461C561.445 524.559 565.386 522.929 569.495 522.929H569.496L576.767 517.419L590.334 522.93L593.809 522.93L593.808 538.908Z" fill="#2F2E41"/>
<path d="M522.214 525.421L509.27 525.42L503.111 475.549L522.217 475.551L522.214 525.421Z" fill="#A0616A"/>
<path d="M522.67 538.908L482.863 538.906V538.404C482.864 534.299 484.496 530.363 487.402 527.461C490.307 524.559 494.248 522.929 498.357 522.929H498.358L505.629 517.419L519.196 522.93L522.67 522.93L522.67 538.908Z" fill="#2F2E41"/>
<path d="M609.094 296.668C609.094 296.668 614.2 308.781 609.094 328.543C603.988 348.306 602.712 398.031 602.712 398.031L594.527 509.692H572.876L572.075 429.268L561.224 342.568L539.523 424.806C539.523 424.806 531.225 486.006 528.034 488.556C524.842 491.106 523.389 508.919 523.389 508.919C516.829 509.901 506.851 507.339 500.965 504.285C503.391 503.238 513.673 299.684 513.992 296.668C515.238 284.875 609.094 296.668 609.094 296.668Z" fill="#2F2E41"/>
<path d="M431.719 275.257C432.889 275.353 434.066 275.193 435.167 274.786C436.268 274.38 437.267 273.737 438.093 272.903C438.918 272.069 439.551 271.065 439.946 269.96C440.341 268.856 440.488 267.678 440.378 266.511L466.347 254.684L453.781 246.816L431.047 259.253C429.096 259.567 427.328 260.586 426.078 262.115C424.828 263.645 424.183 265.58 424.266 267.552C424.349 269.525 425.153 271.399 426.527 272.819C427.9 274.239 429.747 275.106 431.719 275.257Z" fill="#A0616A"/>
<path d="M532.821 176.619L541.638 180.022L516.929 229.101L452.218 264.723L447.366 249.502L496.41 208.911C513.565 159.064 523.872 136.793 536.251 137.098L532.821 176.619Z" fill="#E6E6E6"/>
<path d="M524.949 148.453C526.073 144.455 528.534 140.962 531.923 138.557C535.313 136.152 539.425 134.98 543.575 135.236C543.641 135.241 543.707 135.246 543.773 135.251C549.287 135.669 556.343 122.307 563.652 122.876C568.794 123.276 574.061 123.69 579.003 124.087C583.407 124.441 587.553 138.682 591.122 138.986C597.864 139.559 599.456 140.002 599.938 140.162C601.852 140.8 609.218 141.303 613.857 146.709C615.934 149.129 624.192 172.037 619.086 196.262C613.98 220.487 608.138 251.868 608.138 251.868C608.138 251.868 613.243 267.025 610.69 273.4C608.137 279.775 613.243 284.237 613.243 286.787C613.243 289.337 611.966 302.087 611.966 302.087C611.966 302.087 521.042 311.726 513.034 302.087C512.772 301.771 523.656 248.932 519.15 206.454C516.676 183.136 521.286 161.292 524.949 148.453Z" fill="#E6E6E6"/>
<path d="M570.935 120.101C585.443 120.101 597.203 108.354 597.203 93.8646C597.203 79.3747 585.443 67.6284 570.935 67.6284C556.428 67.6284 544.667 79.3747 544.667 93.8646C544.667 108.354 556.428 120.101 570.935 120.101Z" fill="#A0616A"/>
<path d="M552.923 63.573C554.805 63.5171 554.159 59.9728 555.676 58.8421C555.683 58.8764 555.691 58.9107 555.699 58.9448C555.898 59.7105 556.338 60.3921 556.953 60.8893C557.569 61.3865 558.329 61.6731 559.12 61.7068C559.911 61.7405 560.692 61.5196 561.348 61.0766C562.004 60.6335 562.501 59.9918 562.764 59.2459C563.015 58.383 563.471 57.5932 564.092 56.9427C564.712 56.2922 565.481 55.8001 566.331 55.5078C566.426 58.7929 568.914 61.6441 571.882 63.063C574.85 64.4819 578.234 64.7181 581.524 64.7667C584.815 64.8152 588.152 64.7052 591.343 65.5094C594.533 66.3135 597.636 68.2042 598.999 71.1954C600.363 74.1867 599.39 78.305 596.409 79.6972C598.718 79.7095 600.678 81.6126 601.476 83.7767C602.275 85.9409 602.153 88.322 601.977 90.6216C601.328 99.1055 599.746 108.239 593.561 114.09C588.847 118.549 582.099 120.346 575.607 120.32C569.115 120.294 570.256 119.698 563.979 118.043C563.979 118.043 558.01 100.954 559.513 99.2728C561.016 97.5918 562.264 95.4406 561.992 93.2033C561.72 90.9661 559.313 88.9619 557.224 89.8136C557.575 88.9167 557.84 88.7458 558.006 88.7914C557.9 88.5365 557.808 88.2763 557.73 88.0118C557.336 86.6638 556.629 85.4284 555.664 84.4069C554.7 83.3855 553.506 82.6073 552.182 82.1362C550.845 81.7026 549.406 81.6883 548.06 82.0951C546.714 82.5019 545.525 83.3105 544.653 84.412C537.779 77.9732 542.044 63.8956 552.923 63.573Z" fill="#2F2E41"/>
<path d="M661.949 539.729L1.05087 540C0.77266 539.999 0.506127 539.888 0.309687 539.691C0.113248 539.495 0.00292969 539.228 0.00292969 538.95C0.00292969 538.672 0.113248 538.406 0.309687 538.209C0.506127 538.012 0.77266 537.901 1.05087 537.901L661.949 537.63C662.228 537.63 662.495 537.74 662.692 537.937C662.889 538.134 663 538.401 663 538.679C663 538.958 662.889 539.225 662.692 539.422C662.495 539.618 662.228 539.729 661.949 539.729Z" fill="#CACACA"/>
<path d="M393.229 295.731C394.935 295.731 396.318 294.349 396.318 292.645C396.318 290.941 394.935 289.559 393.229 289.559C391.523 289.559 390.14 290.941 390.14 292.645C390.14 294.349 391.523 295.731 393.229 295.731Z" fill="#E6E6E6"/>
<path d="M464.273 300.138H391.033C390.916 300.139 390.8 300.116 390.691 300.072C390.583 300.028 390.484 299.963 390.401 299.881C390.318 299.799 390.253 299.702 390.208 299.595C390.163 299.488 390.14 299.373 390.14 299.257C390.14 299.141 390.163 299.026 390.208 298.919C390.253 298.812 390.318 298.715 390.401 298.633C390.484 298.551 390.583 298.486 390.691 298.442C390.8 298.398 390.916 298.375 391.033 298.375H464.273C464.39 298.375 464.507 298.398 464.615 298.442C464.723 298.486 464.822 298.551 464.905 298.633C464.988 298.715 465.054 298.812 465.098 298.919C465.143 299.026 465.166 299.141 465.166 299.257C465.166 299.373 465.143 299.488 465.098 299.595C465.054 299.702 464.988 299.799 464.905 299.881C464.822 299.963 464.723 300.028 464.615 300.072C464.507 300.116 464.39 300.139 464.273 300.138Z" fill="#E6E6E6"/>
<path d="M457.211 303.665H391.034C390.797 303.665 390.569 303.572 390.402 303.407C390.234 303.241 390.14 303.017 390.14 302.783C390.14 302.549 390.234 302.325 390.402 302.16C390.569 301.994 390.797 301.902 391.034 301.902H457.211C457.448 301.902 457.676 301.994 457.843 302.16C458.011 302.325 458.105 302.549 458.105 302.783C458.105 303.017 458.011 303.241 457.843 303.407C457.676 303.572 457.448 303.665 457.211 303.665Z" fill="#E6E6E6"/>
</g>
<defs>
<clipPath id="clip0_305_141">
<rect width="663" height="492" fill="white" transform="translate(0 48)"/>
</clipPath>
</defs>
</svg>
