<svg xmlns="http://www.w3.org/2000/svg" xmlns:xlink="http://www.w3.org/1999/xlink" width="500" zoomAndPan="magnify" viewBox="0 0 375 374.999991" height="500" preserveAspectRatio="xMidYMid meet" version="1.0"><defs><clipPath id="debab459a1"><path d="M 37.5 87.601562 L 337.5 87.601562 L 337.5 299 L 37.5 299 Z M 37.5 87.601562 " clip-rule="nonzero"/></clipPath><clipPath id="f68d3ecf9b"><path d="M 76 87.601562 L 305 87.601562 L 305 297 L 76 297 Z M 76 87.601562 " clip-rule="nonzero"/></clipPath></defs><g clip-path="url(#debab459a1)"><path fill="#ffffff" d="M 305.332031 274.785156 L 299.238281 256.476562 C 299.238281 256.476562 299.25 256.464844 299.273438 256.441406 C 299.289062 256.429688 299.300781 256.410156 299.3125 256.398438 C 299.328125 256.382812 299.347656 256.363281 299.371094 256.332031 C 299.398438 256.300781 299.433594 256.257812 299.46875 256.222656 C 299.492188 256.199219 299.507812 256.179688 299.53125 256.148438 C 299.574219 256.101562 299.621094 256.039062 299.675781 255.980469 C 299.699219 255.949219 299.71875 255.925781 299.742188 255.894531 C 299.796875 255.828125 299.859375 255.753906 299.917969 255.675781 C 299.949219 255.636719 299.972656 255.609375 300.003906 255.570312 C 300.070312 255.488281 300.136719 255.402344 300.203125 255.304688 C 300.234375 255.261719 300.269531 255.21875 300.300781 255.175781 C 300.375 255.078125 300.453125 254.976562 300.53125 254.867188 C 300.570312 254.816406 300.597656 254.769531 300.636719 254.71875 C 300.714844 254.605469 300.800781 254.488281 300.886719 254.359375 C 300.921875 254.304688 300.957031 254.25 301 254.195312 C 301.089844 254.070312 301.175781 253.929688 301.269531 253.789062 C 301.304688 253.726562 301.347656 253.667969 301.382812 253.605469 C 301.472656 253.460938 301.570312 253.3125 301.664062 253.15625 C 301.707031 253.089844 301.742188 253.023438 301.785156 252.953125 C 301.882812 252.796875 301.980469 252.632812 302.074219 252.460938 C 302.117188 252.390625 302.15625 252.320312 302.195312 252.25 C 302.292969 252.074219 302.390625 251.894531 302.496094 251.714844 C 302.539062 251.640625 302.574219 251.5625 302.617188 251.480469 C 302.714844 251.292969 302.816406 251.105469 302.914062 250.902344 C 302.949219 250.832031 302.988281 250.75 303.03125 250.671875 C 303.132812 250.464844 303.230469 250.257812 303.328125 250.039062 C 303.359375 249.964844 303.394531 249.886719 303.425781 249.816406 C 303.527344 249.589844 303.625 249.359375 303.726562 249.121094 C 303.753906 249.058594 303.777344 249 303.800781 248.9375 C 303.90625 248.683594 304.007812 248.421875 304.109375 248.160156 C 306.273438 242.355469 307.140625 233.996094 301.105469 224.644531 C 298.910156 221.25 296.457031 217.4375 293.921875 213.496094 C 294.433594 214.285156 294.9375 215.078125 295.441406 215.855469 L 297.628906 215.855469 L 297.628906 87.601562 L 76.144531 87.601562 L 76.144531 209.875 L 38.398438 209.875 L 55.015625 271.035156 L 55.015625 274.777344 L 37.566406 274.777344 L 37.566406 275.597656 C 37.566406 278.640625 40.035156 281.113281 43.070312 281.113281 L 174.074219 281.113281 C 177.972656 284.277344 183.78125 288.695312 191.25 293.503906 C 205.785156 302.863281 219.492188 296.417969 219.492188 296.417969 L 248.695312 296.417969 L 248.707031 296.457031 L 248.816406 296.417969 L 312.53125 296.417969 L 307.441406 281.121094 L 331.945312 281.121094 C 334.984375 281.121094 337.449219 278.648438 337.449219 275.605469 L 337.449219 274.785156 Z M 175.792969 261.945312 C 173.921875 260.726562 171.25 259.148438 167.574219 257.304688 C 162.839844 254.933594 156.335938 255.019531 150.804688 255.949219 L 139.367188 213.84375 L 139.914062 215.851562 L 201.4375 215.851562 C 198.105469 228.265625 196.507812 242.195312 193.945312 262.917969 L 177.535156 258.546875 Z M 157.605469 270.835938 C 157.746094 270.90625 157.910156 270.972656 158.054688 271.042969 L 154.902344 271.042969 L 154.390625 269.15625 C 155.417969 269.707031 156.5 270.273438 157.605469 270.835938 Z M 157.605469 270.835938 " fill-opacity="1" fill-rule="nonzero"/></g><path fill="#a6a6a6" d="M 312.53125 296.417969 L 219.492188 296.417969 C 219.492188 296.417969 205.785156 302.871094 191.25 293.503906 C 176.710938 284.144531 168.40625 276.238281 168.40625 276.238281 L 177.542969 258.554688 L 193.953125 262.921875 C 196.863281 239.414062 198.519531 224.644531 202.882812 210.914062 C 207.242188 197.1875 216.378906 179.5 216.378906 179.5 L 228.632812 175.339844 L 271.207031 178.039062 C 271.207031 178.039062 289.6875 206.960938 301.117188 224.636719 C 312.535156 242.324219 299.246094 256.464844 299.246094 256.464844 Z M 93.433594 148.300781 C 93.433594 148.300781 94.058594 166.398438 104.234375 176.386719 L 140.164062 176.386719 C 140.164062 176.386719 131.234375 165.984375 128.949219 147.886719 Z M 109.835938 103.984375 C 109.835938 103.984375 110.460938 122.082031 120.636719 132.070312 L 156.566406 132.070312 C 156.566406 132.070312 147.636719 121.667969 145.351562 103.570312 Z M 121.519531 232.550781 C 123.074219 232.550781 124.226562 231.101562 123.875 229.578125 L 122.550781 223.824219 C 122.296875 222.722656 121.316406 221.941406 120.195312 221.941406 L 96.082031 221.941406 C 94.527344 221.941406 93.371094 223.390625 93.726562 224.910156 L 95.050781 230.667969 C 95.304688 231.769531 96.28125 232.550781 97.40625 232.550781 Z M 126.082031 240.046875 C 125.824219 238.945312 124.847656 238.167969 123.722656 238.167969 L 99.617188 238.167969 C 98.0625 238.167969 96.910156 239.613281 97.261719 241.136719 L 98.585938 246.894531 C 98.839844 247.996094 99.820312 248.773438 100.941406 248.773438 L 125.046875 248.773438 C 126.605469 248.773438 127.757812 247.324219 127.40625 245.804688 Z M 266.945312 108.351562 C 268.839844 108.351562 270.371094 106.8125 270.371094 104.921875 C 270.371094 103.027344 268.832031 101.488281 266.945312 101.488281 C 265.054688 101.488281 263.515625 103.027344 263.515625 104.921875 C 263.515625 106.8125 265.054688 108.351562 266.945312 108.351562 Z M 269.125 130.820312 C 269.125 132.71875 270.660156 134.253906 272.550781 134.253906 C 274.441406 134.253906 275.976562 132.714844 275.976562 130.820312 C 275.976562 128.921875 274.441406 127.390625 272.550781 127.390625 C 270.660156 127.390625 269.125 128.921875 269.125 130.820312 Z M 238.050781 110.8125 C 239.945312 110.8125 241.476562 109.273438 241.476562 107.378906 C 241.476562 105.480469 239.941406 103.949219 238.050781 103.949219 C 236.15625 103.949219 234.625 105.488281 234.625 107.378906 C 234.625 109.277344 236.160156 110.8125 238.050781 110.8125 Z M 238.050781 110.8125 " fill-opacity="1" fill-rule="nonzero"/><path fill="#191e20" d="M 138.292969 209.875 L 38.398438 209.875 L 55.015625 271.035156 L 55.015625 276.027344 L 168.515625 276.027344 L 171.097656 271.035156 L 154.914062 271.035156 Z M 41.929688 213.203125 L 135.175781 213.203125 L 150.546875 267.707031 L 57.300781 267.707031 Z M 221.871094 220.738281 L 201.316406 215.535156 L 201.546875 214.621094 L 222.105469 219.824219 Z M 233.261719 246.941406 L 197.960938 235.914062 L 198.242188 235.015625 L 233.542969 246.042969 Z M 229.59375 267.050781 L 229.328125 267.957031 L 195.0625 257.761719 L 195.332031 256.855469 Z M 193.738281 264.777344 L 211.601562 297.648438 L 210.773438 298.097656 L 192.914062 265.230469 Z M 186.429688 261.570312 L 187.347656 261.792969 L 181.742188 285.507812 L 180.824219 285.289062 Z M 233.125 241.746094 L 232.863281 240.839844 L 286.445312 225.234375 L 286.707031 226.140625 Z M 295.832031 252.359375 L 229.789062 270.042969 L 229.546875 269.128906 L 295.585938 251.445312 Z M 305.824219 278.148438 L 248.710938 296.457031 L 248.425781 295.554688 L 305.539062 277.25 Z M 245.925781 206.101562 L 246.234375 206.996094 L 221.519531 215.527344 L 221.210938 214.632812 Z M 208.648438 197.628906 L 208.320312 196.742188 L 230.335938 188.628906 L 230.664062 189.519531 Z M 278.238281 202.859375 L 277.453125 202.328125 L 281.816406 195.878906 L 282.597656 196.40625 Z M 286.980469 222.394531 L 286.164062 221.910156 L 292.183594 211.71875 L 293 212.199219 Z M 296.972656 244.597656 L 296.105469 244.226562 L 302.542969 229.25 L 303.414062 229.621094 Z M 177.542969 147.878906 C 179.828125 165.976562 188.757812 176.378906 188.757812 176.378906 L 152.828125 176.378906 C 142.652344 166.390625 142.027344 148.292969 142.027344 148.292969 Z M 58.296875 239.621094 L 56.972656 233.863281 C 56.617188 232.34375 57.773438 230.894531 59.328125 230.894531 L 83.433594 230.894531 C 84.5625 230.894531 85.542969 231.671875 85.792969 232.773438 L 87.117188 238.53125 C 87.46875 240.054688 86.3125 241.5 84.757812 241.5 L 60.652344 241.5 C 59.523438 241.496094 58.542969 240.714844 58.296875 239.621094 Z M 272.09375 127.492188 L 267.734375 108.457031 L 268.652344 108.242188 L 273.011719 127.28125 Z M 241.445312 107.574219 L 241.355469 106.636719 L 263.476562 104.453125 L 263.566406 105.390625 Z M 241.445312 107.574219 " fill-opacity="1" fill-rule="nonzero"/><path fill="#e48c63" d="M 239.222656 174.511719 L 235.367188 175.769531 L 228.628906 175.34375 L 219.277344 178.519531 L 214.917969 166.816406 C 214.917969 166.816406 211.179688 167.230469 206.820312 167.023438 C 202.457031 166.816406 196.015625 161.40625 195.191406 151.421875 L 191.453125 149.96875 L 195.609375 145.597656 C 195.609375 145.597656 193.53125 129.160156 204.128906 122.921875 C 214.714844 116.679688 231.125 118.140625 235.074219 132.074219 C 239.023438 146.011719 228.425781 159.121094 228.425781 159.121094 Z M 140.578125 259.179688 C 137.046875 261.46875 136.628906 265.632812 135.175781 268.332031 C 133.722656 271.035156 136.421875 271.457031 137.871094 269.582031 C 139.324219 267.707031 141.609375 263.757812 141.609375 263.757812 C 141.609375 263.757812 141.609375 266.253906 140.984375 269.375 C 140.359375 272.496094 143.472656 272.074219 143.894531 270 C 144.304688 267.917969 145.972656 264.175781 145.972656 264.175781 C 145.972656 264.175781 151.371094 267.710938 157.597656 270.835938 C 160.636719 272.355469 165.296875 273.628906 169.28125 274.535156 L 175.789062 261.949219 C 173.917969 260.730469 171.242188 259.15625 167.566406 257.3125 C 158.851562 252.941406 144.105469 256.890625 140.578125 259.179688 Z M 140.578125 259.179688 " fill-opacity="1" fill-rule="nonzero"/><g clip-path="url(#f68d3ecf9b)"><path fill="#000000" d="M 139.277344 213.496094 L 202.097656 213.496094 C 201.875 214.273438 201.648438 215.066406 201.441406 215.855469 L 139.914062 215.855469 Z M 295.082031 213.496094 L 293.929688 213.496094 C 294.4375 214.285156 294.945312 215.078125 295.449219 215.855469 L 297.636719 215.855469 L 297.636719 87.601562 L 76.144531 87.601562 L 76.144531 209.875 L 78.878906 209.875 L 78.878906 90.242188 L 295.082031 90.242188 Z M 265.699219 161.402344 C 262.429688 154.539062 263.050781 145.796875 253.859375 143.304688 C 244.667969 140.808594 240.621094 141.746094 238.75 133.476562 C 236.878906 125.203125 231.269531 114.75 214.296875 116.3125 C 197.316406 117.871094 197.476562 130.511719 197.476562 130.511719 L 209.46875 135.347656 C 208.839844 144.710938 212.894531 146.273438 212.894531 146.273438 L 213.828125 142.53125 C 213.828125 142.53125 221.617188 141.59375 221.460938 147.519531 C 221.300781 153.449219 214.765625 153.917969 214.765625 153.917969 C 215.234375 162.1875 220.214844 164.839844 225.355469 170.769531 C 230.492188 176.695312 224.886719 183.71875 231.898438 189.335938 C 238.90625 194.953125 244.980469 190.273438 245.761719 201.976562 C 246.539062 213.679688 252.769531 216.015625 252.769531 216.015625 L 286.257812 181.066406 C 282.679688 159.535156 268.972656 168.265625 265.699219 161.402344 Z M 199.347656 146.632812 C 200.265625 146.632812 201.003906 145.890625 201.003906 144.972656 C 201.003906 144.050781 200.265625 143.308594 199.347656 143.308594 C 198.429688 143.308594 197.6875 144.050781 197.6875 144.972656 C 197.6875 145.890625 198.429688 146.632812 199.347656 146.632812 Z M 197.066406 136.980469 L 197.585938 137.769531 C 197.71875 137.6875 200.894531 135.703125 203.992188 138.953125 L 204.675781 138.300781 C 201.015625 134.46875 197.105469 136.949219 197.066406 136.980469 Z M 197.847656 155.15625 L 197.738281 156.09375 C 197.765625 156.101562 197.972656 156.121094 198.3125 156.121094 C 199.273438 156.121094 201.273438 155.9375 203.199219 154.609375 L 202.664062 153.832031 C 200.355469 155.425781 197.871094 155.164062 197.847656 155.15625 Z M 159.78125 147.832031 L 160.722656 147.832031 L 160.722656 139.871094 C 160.722656 139.609375 160.507812 139.394531 160.246094 139.394531 L 134.550781 139.394531 L 134.550781 132.070312 L 133.609375 132.070312 L 133.609375 139.394531 L 110.871094 139.394531 C 110.609375 139.394531 110.394531 139.609375 110.394531 139.871094 L 110.394531 147.832031 L 111.335938 147.832031 L 111.335938 140.34375 L 159.765625 140.34375 L 159.765625 147.832031 Z M 288.648438 229.847656 L 299.238281 256.476562 C 299.238281 256.476562 302.191406 253.332031 304.117188 248.160156 Z M 89.464844 228.035156 L 93.226562 228.035156 L 93.226562 227.089844 L 88.867188 227.089844 C 88.71875 227.089844 88.585938 227.15625 88.496094 227.273438 C 88.402344 227.390625 88.375 227.535156 88.410156 227.675781 L 90.191406 234.996094 L 86.582031 234.996094 L 86.582031 235.9375 L 90.414062 235.9375 L 92.351562 243.898438 C 92.402344 244.113281 92.59375 244.257812 92.808594 244.257812 L 97.375 244.257812 L 97.375 243.316406 L 93.179688 243.316406 Z M 215.042969 167.136719 L 217.066406 172.5625 L 219.601562 166.40625 Z M 219.492188 296.417969 L 233.203125 296.417969 L 229.875 275.929688 C 229.875 275.929688 228.007812 289.65625 219.492188 296.417969 Z M 219.492188 296.417969 " fill-opacity="1" fill-rule="nonzero"/></g></svg>