<svg xmlns="http://www.w3.org/2000/svg" xmlns:xlink="http://www.w3.org/1999/xlink" width="500" zoomAndPan="magnify" viewBox="0 0 375 374.999991" height="500" preserveAspectRatio="xMidYMid meet" version="1.0"><defs><g/><clipPath id="5c6ea26dac"><path d="M 170 130 L 235.867188 130 L 235.867188 196 L 170 196 Z M 170 130 " clip-rule="nonzero"/></clipPath><clipPath id="fe7cd43299"><path d="M 156 272 L 201 272 L 201 294.367188 L 156 294.367188 Z M 156 272 " clip-rule="nonzero"/></clipPath><clipPath id="38292e11f2"><path d="M 95 91.117188 L 137 91.117188 L 137 132 L 95 132 Z M 95 91.117188 " clip-rule="nonzero"/></clipPath><clipPath id="c2758f6a30"><path d="M 91.867188 215 L 133 215 L 133 257 L 91.867188 257 Z M 91.867188 215 " clip-rule="nonzero"/></clipPath></defs><rect x="-37.5" width="450" fill="#ffffff" y="-37.499999" height="449.999989" fill-opacity="1"/><rect x="-37.5" width="450" fill="#ffffff" y="-37.499999" height="449.999989" fill-opacity="1"/><rect x="-37.5" width="450" fill="#ffffff" y="-37.499999" height="449.999989" fill-opacity="1"/><path fill="#f8dd5c" d="M 143.476562 191.691406 C 145.632812 184.269531 141.347656 176.503906 133.914062 174.355469 C 129.242188 173.003906 124.441406 174.1875 120.980469 177.097656 C 122.605469 186.214844 126.367188 194.589844 131.730469 201.695312 C 137.125 201.023438 141.867188 197.238281 143.476562 191.691406 " fill-opacity="1" fill-rule="nonzero"/><g clip-path="url(#5c6ea26dac)"><path fill="#f8dd5c" d="M 227.097656 170.132812 C 223.292969 183.238281 209.574219 190.785156 196.453125 186.988281 C 183.328125 183.191406 175.773438 169.492188 179.578125 156.390625 C 183.375 143.285156 197.097656 135.738281 210.21875 139.535156 C 218.613281 141.960938 224.730469 148.441406 227.050781 156.226562 C 227.589844 158.589844 227.9375 161.019531 228.078125 163.507812 C 228.054688 165.699219 227.738281 167.925781 227.097656 170.132812 Z M 234.535156 154.007812 C 231.476562 143.769531 223.433594 135.246094 212.390625 132.050781 C 195.128906 127.054688 177.082031 136.984375 172.082031 154.21875 C 167.082031 171.457031 177.019531 189.480469 194.28125 194.472656 C 211.546875 199.464844 229.59375 189.539062 234.59375 172.300781 C 235.433594 169.398438 235.851562 166.46875 235.882812 163.585938 C 235.699219 160.3125 235.242188 157.113281 234.535156 154.007812 " fill-opacity="1" fill-rule="nonzero"/></g><g clip-path="url(#fe7cd43299)"><path fill="#130d6f" d="M 158.351562 279.851562 C 161.035156 288.453125 169.007812 294.3125 178.03125 294.3125 C 187.050781 294.3125 195.027344 288.453125 197.707031 279.851562 L 200.003906 272.488281 L 156.058594 272.488281 L 158.351562 279.851562 " fill-opacity="1" fill-rule="nonzero"/></g><path fill="#130d6f" d="M 149.109375 268.347656 L 206.953125 268.347656 L 206.953125 253.984375 L 149.109375 253.984375 L 149.109375 268.347656 " fill-opacity="1" fill-rule="nonzero"/><path fill="#f8dd5c" d="M 164.984375 211.902344 C 159.714844 212.5 155.929688 217.25 156.527344 222.515625 C 157.128906 227.777344 161.890625 231.558594 167.160156 230.957031 C 172.429688 230.359375 176.214844 225.605469 175.613281 220.34375 C 175.011719 215.078125 170.253906 211.300781 164.984375 211.902344 " fill-opacity="1" fill-rule="nonzero"/><path fill="#f8dd5c" d="M 183.019531 222.199219 L 180.304688 223.441406 C 180.121094 224.773438 179.746094 226.046875 179.214844 227.246094 L 180.855469 229.734375 C 179.96875 231.304688 178.835938 232.726562 177.503906 233.941406 L 174.703125 232.90625 C 173.65625 233.695312 172.496094 234.34375 171.242188 234.824219 L 170.636719 237.742188 C 169.785156 237.980469 168.902344 238.152344 167.992188 238.257812 C 167.082031 238.363281 166.183594 238.390625 165.296875 238.351562 L 164.054688 235.644531 C 162.722656 235.457031 161.445312 235.085938 160.246094 234.550781 L 157.753906 236.191406 C 156.179688 235.304688 154.757812 234.175781 153.539062 232.84375 L 154.578125 230.050781 C 153.789062 229.003906 153.136719 227.84375 152.65625 226.589844 L 149.734375 225.988281 C 149.496094 225.136719 149.320312 224.253906 149.21875 223.347656 C 149.113281 222.4375 149.085938 221.542969 149.125 220.65625 L 151.835938 219.414062 C 152.023438 218.085938 152.394531 216.808594 152.929688 215.609375 L 151.289062 213.121094 C 152.175781 211.550781 153.304688 210.128906 154.636719 208.914062 L 157.4375 209.949219 C 158.484375 209.164062 159.648438 208.511719 160.902344 208.03125 L 161.503906 205.113281 C 162.355469 204.875 163.242188 204.703125 164.152344 204.597656 C 165.058594 204.496094 165.960938 204.464844 166.847656 204.503906 L 168.085938 207.214844 C 169.417969 207.402344 170.699219 207.773438 171.898438 208.304688 L 174.390625 206.664062 C 175.960938 207.550781 177.382812 208.683594 178.601562 210.011719 L 177.566406 212.804688 C 178.351562 213.851562 179.003906 215.011719 179.488281 216.265625 L 182.410156 216.867188 C 182.648438 217.71875 182.824219 218.601562 182.925781 219.507812 C 183.027344 220.417969 183.058594 221.316406 183.019531 222.199219 Z M 213.585938 203.546875 C 209.90625 204.484375 206.074219 204.925781 202.183594 204.816406 L 197.316406 211.941406 C 194.769531 211.625 192.214844 211.105469 189.667969 210.371094 C 187.128906 209.632812 184.691406 208.707031 182.367188 207.617188 L 182.066406 198.996094 C 178.722656 197.015625 175.71875 194.59375 173.109375 191.839844 L 164.617188 193.4375 C 161.40625 189.324219 158.867188 184.71875 157.097656 179.808594 L 162.992188 173.496094 C 162.054688 169.820312 161.613281 165.996094 161.722656 162.109375 L 154.585938 157.25 C 154.902344 154.707031 155.421875 152.15625 156.160156 149.613281 C 156.898438 147.074219 157.824219 144.640625 158.917969 142.320312 L 167.550781 142.023438 C 169.535156 138.679688 171.957031 135.683594 174.71875 133.078125 L 173.117188 124.597656 C 177.238281 121.390625 181.847656 118.851562 186.765625 117.089844 L 193.085938 122.976562 C 196.765625 122.039062 200.597656 121.59375 204.488281 121.707031 L 207.613281 117.132812 C 198.949219 111.988281 188.835938 109.03125 178.03125 109.03125 C 146.550781 109.03125 121.03125 133.921875 120.109375 165.148438 C 120.621094 164.925781 121.136719 164.714844 121.660156 164.523438 L 124.847656 167.492188 C 126.703125 167.019531 128.632812 166.796875 130.59375 166.851562 L 133.046875 163.261719 C 134.332031 163.421875 135.621094 163.683594 136.902344 164.050781 C 138.183594 164.425781 139.414062 164.890625 140.582031 165.441406 L 140.734375 169.785156 C 142.421875 170.785156 143.933594 172.007812 145.25 173.394531 L 149.53125 172.585938 C 151.148438 174.664062 152.429688 176.984375 153.320312 179.457031 L 150.347656 182.640625 C 150.820312 184.492188 151.042969 186.421875 150.988281 188.378906 L 154.585938 190.828125 C 154.425781 192.109375 154.164062 193.398438 153.792969 194.675781 C 153.421875 195.957031 152.953125 197.183594 152.402344 198.355469 L 148.050781 198.503906 C 147.050781 200.1875 145.828125 201.699219 144.4375 203.011719 L 145.246094 207.285156 C 143.1875 208.886719 140.882812 210.160156 138.429688 211.046875 C 145.191406 222.117188 148.898438 234.832031 148.898438 247.914062 L 148.898438 247.945312 L 207.160156 247.945312 L 207.160156 247.914062 C 207.160156 233.894531 211.429688 220.320312 219.132812 208.710938 L 213.585938 203.546875 " fill-opacity="1" fill-rule="nonzero"/><g clip-path="url(#38292e11f2)"><path fill="#130d6f" d="M 117.289062 122.800781 C 111.003906 123.515625 105.328125 119.007812 104.609375 112.730469 C 103.894531 106.453125 108.410156 100.785156 114.695312 100.066406 C 120.984375 99.351562 126.660156 103.863281 127.375 110.136719 C 128.09375 116.417969 123.578125 122.085938 117.289062 122.800781 Z M 136.207031 112.355469 C 136.253906 111.300781 136.222656 110.226562 136.097656 109.144531 C 135.972656 108.066406 135.765625 107.011719 135.484375 105.992188 L 131.996094 105.277344 C 131.421875 103.78125 130.644531 102.398438 129.703125 101.148438 L 130.941406 97.816406 C 129.488281 96.230469 127.792969 94.882812 125.917969 93.828125 L 122.941406 95.777344 C 121.511719 95.144531 119.988281 94.703125 118.398438 94.476562 L 116.917969 91.25 C 115.859375 91.199219 114.785156 91.234375 113.703125 91.359375 C 112.617188 91.484375 111.5625 91.691406 110.542969 91.976562 L 109.828125 95.457031 C 108.332031 96.027344 106.941406 96.804688 105.695312 97.746094 L 102.355469 96.507812 C 100.765625 97.957031 99.414062 99.652344 98.359375 101.527344 L 100.316406 104.492188 C 99.679688 105.921875 99.238281 107.445312 99.011719 109.03125 L 95.777344 110.515625 C 95.730469 111.566406 95.765625 112.640625 95.886719 113.722656 C 96.011719 114.808594 96.21875 115.859375 96.503906 116.875 L 99.988281 117.59375 C 100.566406 119.085938 101.339844 120.472656 102.28125 121.71875 L 101.042969 125.050781 C 102.496094 126.640625 104.195312 127.988281 106.070312 129.042969 L 109.042969 127.089844 C 110.472656 127.722656 112 128.167969 113.585938 128.390625 L 115.070312 131.621094 C 116.125 131.667969 117.199219 131.636719 118.285156 131.511719 C 119.367188 131.386719 120.421875 131.179688 121.441406 130.898438 L 122.160156 127.417969 C 123.65625 126.839844 125.042969 126.066406 126.292969 125.125 L 129.628906 126.363281 C 131.21875 124.914062 132.570312 123.214844 133.628906 121.34375 L 131.671875 118.375 C 132.304688 116.945312 132.75 115.421875 132.972656 113.835938 L 136.207031 112.355469 " fill-opacity="1" fill-rule="nonzero"/></g><g clip-path="url(#c2758f6a30)"><path fill="#130d6f" d="M 113.4375 247.4375 C 107.152344 248.152344 101.472656 243.644531 100.757812 237.367188 C 100.042969 231.089844 104.554688 225.417969 110.84375 224.703125 C 117.128906 223.988281 122.808594 228.496094 123.523438 234.773438 C 124.238281 241.054688 119.726562 246.722656 113.4375 247.4375 Z M 132.355469 236.992188 C 132.402344 235.9375 132.367188 234.863281 132.246094 233.785156 C 132.121094 232.699219 131.914062 231.644531 131.628906 230.628906 L 128.144531 229.914062 C 127.570312 228.417969 126.792969 227.035156 125.851562 225.785156 L 127.089844 222.453125 C 125.636719 220.863281 123.9375 219.515625 122.0625 218.460938 L 119.089844 220.414062 C 117.660156 219.78125 116.132812 219.335938 114.546875 219.113281 L 113.0625 215.886719 C 112.007812 215.835938 110.933594 215.871094 109.847656 215.996094 C 108.765625 216.117188 107.710938 216.324219 106.691406 216.609375 L 105.972656 220.089844 C 104.476562 220.664062 103.089844 221.4375 101.839844 222.378906 L 98.503906 221.144531 C 96.914062 222.59375 95.5625 224.289062 94.507812 226.160156 L 96.464844 229.128906 C 95.828125 230.558594 95.382812 232.082031 95.160156 233.667969 L 91.925781 235.148438 C 91.878906 236.203125 91.914062 237.277344 92.035156 238.359375 C 92.160156 239.441406 92.367188 240.496094 92.652344 241.511719 L 96.136719 242.226562 C 96.710938 243.722656 97.488281 245.105469 98.429688 246.355469 L 97.191406 249.6875 C 98.644531 251.277344 100.339844 252.625 102.21875 253.679688 L 105.191406 251.726562 C 106.621094 252.359375 108.148438 252.804688 109.734375 253.027344 L 111.21875 256.257812 C 112.273438 256.304688 113.347656 256.269531 114.433594 256.148438 C 115.515625 256.023438 116.570312 255.816406 117.589844 255.53125 L 118.308594 252.050781 C 119.804688 251.476562 121.191406 250.703125 122.441406 249.761719 L 125.777344 250.996094 C 127.367188 249.546875 128.71875 247.851562 129.777344 245.980469 L 127.816406 243.011719 C 128.453125 241.582031 128.898438 240.058594 129.121094 238.472656 L 132.355469 236.992188 " fill-opacity="1" fill-rule="nonzero"/></g><g fill="#130d6f" fill-opacity="1"><g transform="translate(153.470049, 88.456697)"><g><path d="M 2.875 -1.023438 L 3.601562 -1.3125 L 3.882812 -1.539062 L 3.878906 -1.886719 L 3.703125 -2.472656 L 3.519531 -2.875 L 3.457031 -3.113281 L 3.285156 -3.550781 L 3.234375 -3.757812 L 3.113281 -3.984375 L 2.492188 -5.761719 L 2.375 -5.980469 L 2.058594 -6.949219 L 2.027344 -7.308594 L 2.1875 -7.519531 L 2.609375 -7.695312 L 3.035156 -7.789062 L 3.253906 -7.90625 L 3.453125 -7.96875 L 3.597656 -8.15625 L 3.640625 -8.445312 L 3.273438 -9.496094 L 3.070312 -9.671875 L 2.808594 -9.738281 L 2.128906 -9.488281 L 1.914062 -9.433594 L 1.695312 -9.316406 L 1.476562 -9.261719 L 0.601562 -8.894531 L 0.367188 -8.859375 L 0.15625 -8.792969 L -0.0625 -8.675781 L -0.3125 -8.609375 L -0.496094 -8.496094 L -1.15625 -8.289062 L -1.484375 -8.132812 L -2.269531 -7.898438 L -2.4375 -7.710938 L -2.476562 -7.410156 L -2.386719 -7.195312 L -2.207031 -6.636719 L -2.0625 -6.304688 L -1.890625 -6.144531 L -1.652344 -6.105469 L -1.441406 -6.207031 L -0.390625 -6.566406 L -0.140625 -6.53125 L 0.0585938 -6.355469 L 0.164062 -5.996094 L 0.300781 -5.699219 L 0.378906 -5.453125 L 0.46875 -5.234375 L 0.558594 -4.921875 L 1.1875 -3.296875 L 1.246094 -3.066406 L 1.558594 -2.175781 L 1.664062 -1.953125 L 1.886719 -1.308594 L 1.941406 -1.09375 L 2.171875 -0.902344 L 2.53125 -0.910156 Z M 2.875 -1.023438 "/></g></g></g><g fill="#130d6f" fill-opacity="1"><g transform="translate(167.997279, 83.886764)"><g><path d="M 0.785156 -0.46875 L 0.960938 -0.273438 L 1.203125 -0.183594 L 1.429688 -0.238281 L 1.894531 -0.292969 L 2.132812 -0.359375 L 2.621094 -0.429688 L 2.835938 -0.613281 L 2.890625 -0.847656 L 2.875 -1.070312 L 2.808594 -1.320312 L 2.453125 -3.359375 L 2.515625 -3.617188 L 2.734375 -3.808594 L 4.089844 -4.058594 L 4.339844 -4.066406 L 4.546875 -4.101562 L 4.785156 -4.011719 L 4.941406 -3.8125 L 5.394531 -1.269531 L 5.550781 -1.105469 L 5.914062 -1.015625 L 6.511719 -1.117188 L 6.738281 -1.183594 L 7.214844 -1.230469 L 7.410156 -1.417969 L 7.511719 -1.636719 L 7.308594 -2.683594 L 7.277344 -3.054688 L 7.210938 -3.234375 L 6.21875 -9.019531 L 6.074219 -9.242188 L 5.828125 -9.296875 L 4.5 -9.078125 L 4.179688 -8.9375 L 4.113281 -8.640625 L 4.175781 -8.203125 L 4.234375 -8.011719 L 4.292969 -7.535156 L 4.367188 -7.320312 L 4.511719 -6.421875 L 4.421875 -6.167969 L 4.214844 -6 L 3.992188 -6 L 3.550781 -5.875 L 3.304688 -5.855469 L 3.101562 -5.796875 L 2.417969 -5.691406 L 2.179688 -5.753906 L 2.027344 -5.953125 L 1.972656 -6.207031 L 1.929688 -6.449219 L 1.882812 -6.652344 L 1.738281 -7.554688 L 1.71875 -7.8125 L 1.621094 -8.234375 L 1.476562 -8.433594 L 1.214844 -8.519531 L 0.964844 -8.453125 L -0.179688 -8.277344 L -0.414062 -8.117188 L -0.488281 -7.867188 L -0.46875 -7.609375 L -0.289062 -6.714844 L -0.269531 -6.480469 L -0.144531 -6.015625 L -0.0898438 -5.574219 L -0.03125 -5.300781 L -0.0117188 -5.066406 L 0.585938 -1.621094 L 0.65625 -1.417969 Z M 0.785156 -0.46875 "/></g></g></g><g fill="#130d6f" fill-opacity="1"><g transform="translate(185.108504, 81.785004)"><g><path d="M 4.070312 0.0625 L 5.742188 0.0507812 L 5.988281 -0.0546875 L 6.117188 -0.300781 L 6.125 -1.480469 L 6 -1.714844 L 5.753906 -1.820312 L 5.484375 -1.800781 L 5.261719 -1.835938 L 4.667969 -1.851562 L 4.28125 -1.808594 L 4.046875 -1.832031 L 3.789062 -1.824219 L 3.566406 -1.859375 L 3.308594 -1.835938 L 3.066406 -1.957031 L 2.972656 -2.167969 L 2.976562 -2.902344 L 3.085938 -3.148438 L 3.296875 -3.277344 L 3.644531 -3.285156 L 4.019531 -3.246094 L 4.464844 -3.269531 L 4.945312 -3.253906 L 5.179688 -3.277344 L 5.445312 -3.261719 L 5.679688 -3.355469 L 5.765625 -3.585938 L 5.808594 -4.640625 L 5.691406 -4.96875 L 5.425781 -5.121094 L 4.734375 -5.125 L 4.488281 -5.105469 L 3.996094 -5.140625 L 3.320312 -5.125 L 3.074219 -5.230469 L 2.984375 -5.59375 L 2.984375 -5.957031 L 3.09375 -6.175781 L 3.351562 -6.269531 L 3.570312 -6.257812 L 3.792969 -6.300781 L 5.464844 -6.265625 L 5.6875 -6.277344 L 5.933594 -6.417969 L 6.054688 -6.625 L 6.042969 -6.859375 L 6.054688 -7.09375 L 6.039062 -7.796875 L 5.933594 -8.019531 L 5.699219 -8.113281 L 5.457031 -8.113281 L 5.246094 -8.164062 L 4.296875 -8.15625 L 4.039062 -8.136719 L 3.808594 -8.160156 L 3.609375 -8.148438 L 3.375 -8.175781 L 2.414062 -8.15625 L 2.179688 -8.195312 L 1.960938 -8.148438 L 1.75 -8.175781 L 1.515625 -8.152344 L 1.28125 -8.164062 L 1.035156 -8.074219 L 0.90625 -7.828125 L 0.925781 -7.382812 L 0.886719 -6.90625 L 0.921875 -6.648438 L 0.890625 -5.5 L 0.921875 -5.257812 L 0.898438 -5.035156 L 0.878906 -4.074219 L 0.914062 -3.863281 L 0.890625 -1.96875 L 0.863281 -1.75 L 0.898438 -1.515625 L 0.859375 -0.707031 L 0.878906 -0.449219 L 0.972656 -0.132812 L 1.320312 0.0195312 L 2.164062 0.0390625 L 2.421875 0.015625 L 2.628906 0.0273438 L 3.109375 -0.00390625 L 3.332031 0.046875 L 3.601562 0.0585938 L 3.835938 0.0351562 Z M 4.070312 0.0625 "/></g></g></g><g fill="#130d6f" fill-opacity="1"><g transform="translate(200.567741, 82.676292)"><g/></g></g><g fill="#130d6f" fill-opacity="1"><g transform="translate(212.280227, 85.037013)"><g><path d="M 1.480469 0.515625 L 2.03125 0.667969 L 2.230469 0.742188 L 2.492188 0.804688 L 2.753906 0.789062 L 2.929688 0.589844 L 2.992188 0.363281 L 3.082031 0.121094 L 3.191406 -0.296875 L 3.28125 -0.5 L 3.355469 -0.761719 L 3.519531 -0.929688 L 3.8125 -0.96875 L 4.066406 -0.910156 L 4.285156 -0.792969 L 5.460938 -0.511719 L 6.652344 -0.59375 L 6.863281 -0.671875 L 7.078125 -0.800781 L 7.269531 -0.898438 L 7.46875 -1.019531 L 7.816406 -1.300781 L 8.144531 -1.671875 L 8.257812 -1.90625 L 8.382812 -2.0625 L 8.699219 -2.96875 L 8.714844 -3.171875 L 8.761719 -3.429688 L 8.757812 -3.882812 L 8.671875 -4.328125 L 8.523438 -4.78125 L 8.160156 -5.378906 L 7.871094 -5.742188 L 7.46875 -6.019531 L 7.304688 -6.15625 L 7.082031 -6.230469 L 6.886719 -6.378906 L 6.554688 -6.496094 L 6.195312 -6.601562 L 5.941406 -6.648438 L 5.265625 -6.878906 L 5.054688 -6.984375 L 4.347656 -7.160156 L 4.109375 -7.25 L 3.917969 -7.347656 L 3.671875 -7.378906 L 3.398438 -7.332031 L 3.238281 -7.1875 L 2.816406 -5.835938 L 2.628906 -5.40625 L 2.582031 -5.1875 L 1.640625 -2.308594 L 1.597656 -2.089844 L 0.921875 -0.0351562 L 0.976562 0.214844 L 1.285156 0.4375 Z M 4.378906 -2.753906 L 4.199219 -2.957031 L 4.160156 -3.179688 L 4.417969 -4.09375 L 4.515625 -4.320312 L 4.660156 -4.773438 L 4.839844 -4.949219 L 5.109375 -4.984375 L 6.257812 -4.578125 L 6.445312 -4.40625 L 6.585938 -4.226562 L 6.683594 -4.035156 L 6.722656 -3.777344 L 6.691406 -3.566406 L 6.613281 -3.246094 L 6.496094 -2.953125 L 6.351562 -2.78125 L 6.195312 -2.632812 L 5.992188 -2.503906 L 5.769531 -2.425781 L 5.574219 -2.429688 L 5.214844 -2.496094 L 4.652344 -2.6875 Z M 4.378906 -2.753906 "/></g></g></g><g fill="#130d6f" fill-opacity="1"><g transform="translate(227.609312, 90.785558)"><g><path d="M 1 -0.0078125 L 0.929688 0.367188 L 1.15625 0.664062 L 1.378906 0.742188 L 1.691406 0.949219 L 1.867188 1.019531 L 2.175781 1.183594 L 2.5625 1.257812 L 2.816406 1.011719 L 3.003906 0.660156 L 3.125 0.484375 L 3.210938 0.253906 L 3.585938 -0.394531 L 3.789062 -0.550781 L 4.046875 -0.558594 L 4.597656 -0.15625 L 4.710938 0.128906 L 4.722656 0.402344 L 4.707031 0.632812 L 4.753906 1.058594 L 4.75 1.535156 L 4.78125 1.75 L 4.753906 2 L 4.773438 2.234375 L 4.898438 2.542969 L 5.199219 2.824219 L 6.019531 3.25 L 6.203125 3.375 L 6.550781 3.546875 L 6.792969 3.5625 L 6.976562 3.367188 L 6.988281 3.082031 L 6.941406 2.871094 L 6.964844 2.628906 L 6.894531 1.917969 L 6.902344 1.679688 L 6.859375 0.96875 L 6.820312 0.746094 L 6.945312 0.496094 L 7.15625 0.316406 L 7.386719 0.242188 L 7.597656 0.195312 L 8.386719 -0.308594 L 8.839844 -0.835938 L 9.167969 -1.496094 L 9.25 -1.71875 L 9.378906 -2.40625 L 9.390625 -2.625 L 9.367188 -2.847656 L 9.109375 -3.78125 L 8.855469 -4.171875 L 8.535156 -4.515625 L 8.023438 -4.964844 L 7.699219 -5.152344 L 7.386719 -5.292969 L 6.769531 -5.625 L 6.585938 -5.777344 L 6.378906 -5.890625 L 6.167969 -5.9375 L 5.960938 -6.046875 L 5.777344 -6.199219 L 5.554688 -6.332031 L 4.921875 -6.609375 L 4.679688 -6.605469 L 4.402344 -6.382812 L 3.144531 -4.019531 L 3.054688 -3.800781 L 2.800781 -3.40625 L 2.691406 -3.175781 L 2.578125 -2.96875 L 2.492188 -2.761719 L 2.367188 -2.578125 L 1.910156 -1.746094 L 1.820312 -1.53125 Z M 4.929688 -2.207031 L 4.785156 -2.429688 L 4.792969 -2.640625 L 5.125 -3.257812 L 5.199219 -3.445312 L 5.453125 -3.867188 L 5.648438 -4.011719 L 5.910156 -3.976562 L 6.109375 -3.855469 L 6.542969 -3.675781 L 6.800781 -3.460938 L 7.054688 -3.296875 L 7.222656 -3.136719 L 7.308594 -2.679688 L 7.285156 -2.484375 L 7.179688 -2.191406 L 6.984375 -1.898438 L 6.78125 -1.742188 L 6.582031 -1.652344 L 6.421875 -1.617188 L 6.191406 -1.636719 L 5.851562 -1.726562 L 5.652344 -1.820312 L 5.167969 -2.105469 Z M 4.929688 -2.207031 "/></g></g></g><g fill="#130d6f" fill-opacity="1"><g transform="translate(241.994624, 99.388735)"><g><path d="M 3.539062 3.078125 L 4.414062 3.65625 L 4.84375 3.828125 L 5.949219 4.121094 L 7.078125 4.03125 L 7.328125 3.964844 L 8.191406 3.628906 L 8.394531 3.507812 L 8.570312 3.347656 L 8.742188 3.246094 L 8.941406 3.078125 L 9.503906 2.480469 L 9.96875 1.816406 L 10.167969 1.421875 L 10.25 1.171875 L 10.375 0.925781 L 10.457031 0.496094 L 10.527344 0.28125 L 10.535156 0.03125 L 10.511719 -0.167969 L 10.527344 -0.425781 L 10.425781 -1.097656 L 10.199219 -1.765625 L 9.316406 -3.105469 L 8.898438 -3.460938 L 8.234375 -3.941406 L 8.023438 -4.050781 L 7.796875 -4.144531 L 7.574219 -4.207031 L 7.15625 -4.394531 L 6.457031 -4.480469 L 6.242188 -4.476562 L 5.789062 -4.515625 L 5.324219 -4.441406 L 4.644531 -4.238281 L 4.4375 -4.152344 L 3.859375 -3.792969 L 3.46875 -3.460938 L 2.578125 -2.441406 L 2.210938 -1.789062 L 2.097656 -1.371094 L 1.996094 -1.132812 L 1.953125 -0.898438 L 1.90625 0.03125 L 1.960938 0.480469 L 1.96875 0.714844 L 2.316406 1.542969 L 2.429688 1.753906 L 3.015625 2.609375 Z M 4.585938 1.277344 L 4.457031 1.066406 L 4.308594 0.914062 L 4.132812 0.5 L 4.050781 0.0273438 L 4.0625 -0.171875 L 4.046875 -0.398438 L 4.289062 -1.042969 L 4.613281 -1.535156 L 4.84375 -1.800781 L 5.179688 -2.082031 L 5.367188 -2.203125 L 5.582031 -2.242188 L 5.789062 -2.328125 L 6.023438 -2.378906 L 6.257812 -2.382812 L 6.667969 -2.351562 L 6.894531 -2.300781 L 7.125 -2.191406 L 7.570312 -1.886719 L 7.984375 -1.503906 L 8.292969 -0.90625 L 8.40625 -0.46875 L 8.363281 0.0117188 L 8.300781 0.234375 L 8.207031 0.457031 L 8.140625 0.671875 L 7.859375 1.09375 L 7.433594 1.5 L 7.050781 1.808594 L 6.839844 1.863281 L 6.648438 1.929688 L 6.40625 2.003906 L 5.945312 1.996094 L 5.722656 1.933594 L 5.511719 1.898438 L 5.335938 1.78125 L 5.125 1.6875 Z M 4.585938 1.277344 "/></g></g></g><g fill="#130d6f" fill-opacity="1"><g transform="translate(255.389401, 111.429085)"><g><path d="M 2.277344 2.789062 L 2.503906 3.058594 L 2.773438 3.308594 L 2.921875 3.488281 L 3.21875 3.679688 L 3.589844 3.996094 L 4.121094 4.269531 L 5.027344 4.53125 L 5.960938 4.5 L 6.214844 4.441406 L 6.449219 4.429688 L 6.917969 4.28125 L 7.125 4.183594 L 7.34375 4.0625 L 7.542969 3.988281 L 7.742188 3.867188 L 7.933594 3.707031 L 8.242188 3.496094 L 8.496094 3.269531 L 9.101562 2.554688 L 9.34375 2.152344 L 9.453125 1.9375 L 9.675781 1.234375 L 9.808594 0.316406 L 9.734375 -0.394531 L 9.691406 -0.648438 L 9.574219 -0.859375 L 9.519531 -1.070312 L 9.40625 -1.296875 L 9.046875 -1.894531 L 7.359375 -3.957031 L 7.195312 -4.097656 L 7.054688 -4.28125 L 6.808594 -4.414062 L 6.554688 -4.335938 L 1.527344 -0.160156 L 1.371094 0 L 0.910156 0.382812 L 0.707031 0.703125 L 0.769531 0.957031 L 0.9375 1.121094 L 1.832031 2.234375 L 2.007812 2.390625 Z M 3.730469 1.535156 L 3.605469 1.347656 L 3.53125 1.058594 L 3.644531 0.84375 L 3.789062 0.710938 L 4.164062 0.410156 L 4.574219 0.0078125 L 5.054688 -0.328125 L 6.277344 -1.382812 L 6.445312 -1.492188 L 6.726562 -1.574219 L 7.027344 -1.339844 L 7.351562 -0.96875 L 7.542969 -0.683594 L 7.734375 -0.253906 L 7.789062 -0.0234375 L 7.804688 0.195312 L 7.789062 0.433594 L 7.742188 0.703125 L 7.664062 0.917969 L 7.566406 1.136719 L 6.898438 1.9375 L 6.195312 2.371094 L 5.734375 2.496094 L 5.082031 2.480469 L 4.628906 2.339844 L 4.332031 2.144531 L 3.964844 1.796875 Z M 3.730469 1.535156 "/></g></g></g><g fill="#130d6f" fill-opacity="1"><g transform="translate(265.733056, 125.121687)"><g><path d="M 1.828125 3.585938 L 2.03125 3.875 L 2.128906 4.074219 L 2.777344 4.757812 L 3.175781 5.015625 L 3.589844 5.226562 L 4.035156 5.351562 L 4.523438 5.386719 L 4.761719 5.335938 L 4.992188 5.339844 L 5.472656 5.191406 L 5.992188 4.96875 L 8.746094 3.429688 L 8.929688 3.300781 L 9.167969 3.195312 L 9.316406 3.085938 L 10.164062 2.613281 L 10.386719 2.527344 L 10.527344 2.277344 L 10.472656 2.011719 L 10.09375 1.378906 L 9.882812 0.933594 L 9.664062 0.777344 L 9.375 0.789062 L 5.363281 3.058594 L 4.691406 3.339844 L 4.503906 3.363281 L 4.238281 3.367188 L 4.019531 3.261719 L 3.6875 2.976562 L 3.34375 2.363281 L 3.261719 2.101562 L 3.269531 1.871094 L 3.300781 1.640625 L 3.394531 1.425781 L 3.554688 1.253906 L 4.113281 0.863281 L 7.417969 -0.941406 L 7.558594 -1.046875 L 7.894531 -1.210938 L 8.179688 -1.394531 L 8.335938 -1.644531 L 8.308594 -1.910156 L 8.199219 -2.105469 L 8.054688 -2.289062 L 7.851562 -2.753906 L 7.703125 -2.949219 L 7.5 -3.117188 L 7.230469 -3.144531 L 7.039062 -3.007812 L 6.792969 -2.871094 L 6.621094 -2.800781 L 5.207031 -1.972656 L 4.984375 -1.886719 L 4.804688 -1.757812 L 3.144531 -0.871094 L 2.359375 -0.355469 L 2 -0.0195312 L 1.742188 0.339844 L 1.507812 0.777344 L 1.433594 0.980469 L 1.386719 1.207031 L 1.351562 1.65625 L 1.375 1.910156 L 1.367188 2.113281 L 1.414062 2.601562 L 1.554688 3.042969 L 1.667969 3.246094 Z M 1.828125 3.585938 "/></g></g></g><g fill="#130d6f" fill-opacity="1"><g transform="translate(273.206768, 140.081862)"><g><path d="M 1.199219 3.890625 L 1.339844 4.460938 L 1.652344 5.21875 L 2.003906 5.828125 L 2.183594 5.988281 L 2.339844 6.195312 L 2.488281 6.355469 L 3.058594 6.769531 L 3.472656 6.976562 L 3.890625 7.121094 L 4.367188 7.222656 L 5.308594 7.226562 L 5.484375 7.09375 L 5.554688 6.824219 L 5.304688 6.21875 L 5.261719 5.984375 L 5.179688 5.765625 L 5.113281 5.542969 L 4.898438 5.332031 L 4.660156 5.214844 L 4.414062 5.171875 L 4.039062 5.011719 L 3.824219 4.886719 L 3.703125 4.742188 L 3.363281 4.425781 L 3.132812 3.847656 L 3.058594 3.515625 L 3.070312 3.070312 L 3.140625 2.613281 L 3.320312 2.195312 L 3.628906 1.824219 L 3.824219 1.671875 L 3.953125 1.542969 L 4.132812 1.417969 L 4.367188 1.304688 L 5.042969 1.078125 L 5.511719 1.007812 L 5.96875 1.042969 L 6.214844 1.082031 L 6.617188 1.246094 L 6.914062 1.441406 L 7.179688 1.683594 L 7.527344 2.394531 L 7.664062 2.878906 L 7.679688 3.257812 L 7.667969 3.480469 L 7.597656 3.679688 L 7.386719 4.105469 L 7.257812 4.285156 L 7.117188 4.566406 L 7.082031 4.859375 L 7.171875 5.054688 L 7.238281 5.289062 L 7.324219 5.507812 L 7.394531 5.828125 L 7.535156 6.152344 L 7.6875 6.3125 L 7.9375 6.3125 L 8.15625 6.167969 L 8.332031 6.023438 L 8.542969 5.878906 L 8.679688 5.695312 L 8.824219 5.539062 L 8.960938 5.320312 L 9.128906 5.128906 L 9.347656 4.710938 L 9.574219 3.796875 L 9.574219 2.613281 L 9.515625 2.398438 L 9.472656 2.164062 L 9.253906 1.472656 L 8.6875 0.46875 L 8.023438 -0.222656 L 7.671875 -0.464844 L 7.082031 -0.796875 L 6.605469 -0.96875 L 6.210938 -1.074219 L 5.5 -1.144531 L 5.007812 -1.101562 L 4.015625 -0.894531 L 3.226562 -0.558594 L 2.648438 -0.191406 L 1.839844 0.605469 L 1.503906 1.222656 L 1.238281 1.867188 L 1.144531 2.429688 L 1.097656 3 L 1.121094 3.214844 L 1.117188 3.460938 L 1.140625 3.675781 Z M 1.199219 3.890625 "/></g></g></g><g fill="#130d6f" fill-opacity="1"><g transform="translate(277.928074, 157.034398)"><g><path d="M 0.410156 3.023438 L 0.542969 3.796875 L 0.707031 4.117188 L 1.046875 4.183594 L 1.65625 4.132812 L 2.089844 4.035156 L 2.335938 4.023438 L 2.796875 3.945312 L 3.011719 3.9375 L 3.257812 3.867188 L 5.125 3.625 L 5.363281 3.554688 L 6.375 3.445312 L 6.738281 3.488281 L 6.90625 3.6875 L 6.996094 4.136719 L 7 4.574219 L 7.070312 4.808594 L 7.085938 5.019531 L 7.242188 5.199219 L 7.515625 5.300781 L 8.617188 5.15625 L 8.832031 4.996094 L 8.949219 4.753906 L 8.847656 4.035156 L 8.839844 3.8125 L 8.769531 3.574219 L 8.761719 3.351562 L 8.582031 2.421875 L 8.59375 2.183594 L 8.574219 1.960938 L 8.503906 1.722656 L 8.492188 1.464844 L 8.414062 1.261719 L 8.351562 0.574219 L 8.265625 0.222656 L 8.195312 -0.597656 L 8.046875 -0.800781 L 7.761719 -0.898438 L 7.53125 -0.855469 L 6.949219 -0.796875 L 6.59375 -0.722656 L 6.402344 -0.585938 L 6.316406 -0.363281 L 6.371094 -0.132812 L 6.507812 0.96875 L 6.421875 1.207031 L 6.207031 1.367188 L 5.835938 1.394531 L 5.515625 1.464844 L 5.257812 1.492188 L 5.027344 1.535156 L 4.699219 1.558594 L 2.980469 1.839844 L 2.746094 1.851562 L 1.808594 1.972656 L 1.566406 2.03125 L 0.894531 2.117188 L 0.671875 2.125 L 0.4375 2.3125 L 0.371094 2.664062 Z M 0.410156 3.023438 "/></g></g></g><g fill="#130d6f" fill-opacity="1"><g transform="translate(279.327395, 172.294794)"><g/></g></g><g fill="#130d6f" fill-opacity="1"><g transform="translate(278.709289, 184.250629)"><g><path d="M 0.277344 0.941406 L -0.0351562 0.976562 L -0.183594 1.179688 L -0.242188 1.40625 L -0.285156 1.898438 L -0.378906 2.34375 L -0.421875 2.785156 L -0.492188 3 L -0.507812 3.257812 L -0.878906 5.542969 L -0.796875 5.78125 L -0.457031 5.964844 L 0.480469 6.097656 L 0.84375 6.050781 L 1.011719 5.863281 L 1.027344 5.617188 L 1.015625 5.390625 L 1.089844 5.152344 L 1.152344 4.675781 L 1.234375 4.453125 L 1.230469 4.238281 L 1.324219 3.792969 L 1.339844 3.546875 L 1.46875 3.328125 L 1.714844 3.273438 L 5.628906 3.898438 L 5.910156 3.917969 L 6.367188 4.011719 L 7.03125 4.082031 L 7.25 4.125 L 7.523438 4.050781 L 7.695312 3.839844 L 7.765625 3.390625 L 7.757812 3.152344 L 7.875 2.699219 L 7.875 2.472656 L 7.820312 2.214844 L 7.582031 2.070312 L 5.964844 1.820312 L 5.75 1.761719 L 5.515625 1.75 L 5.09375 1.648438 L 4.835938 1.621094 L 4.613281 1.609375 Z M 0.277344 0.941406 "/></g></g></g><g fill="#130d6f" fill-opacity="1"><g transform="translate(275.693752, 198.965515)"><g><path d="M -1.320312 3.851562 L -1.824219 5.445312 L -1.804688 5.710938 L -1.609375 5.910156 L -0.492188 6.28125 L -0.226562 6.234375 L -0.0507812 6.035156 L 0.0117188 5.773438 L 0.117188 5.574219 L 0.316406 5.011719 L 0.394531 4.628906 L 0.488281 4.414062 L 0.558594 4.167969 L 0.664062 3.96875 L 0.722656 3.714844 L 0.910156 3.519531 L 1.140625 3.496094 L 1.839844 3.730469 L 2.039062 3.90625 L 2.09375 4.148438 L 1.996094 4.484375 L 1.84375 4.828125 L 1.722656 5.257812 L 1.5625 5.707031 L 1.511719 5.9375 L 1.414062 6.191406 L 1.429688 6.441406 L 1.625 6.59375 L 2.613281 6.957031 L 2.960938 6.949219 L 3.1875 6.742188 L 3.40625 6.089844 L 3.460938 5.847656 L 3.652344 5.394531 L 3.84375 4.742188 L 4.019531 4.542969 L 4.394531 4.570312 L 4.738281 4.683594 L 4.914062 4.855469 L 4.921875 5.128906 L 4.839844 5.335938 L 4.816406 5.558594 L 4.265625 7.140625 L 4.207031 7.355469 L 4.261719 7.632812 L 4.425781 7.808594 L 4.648438 7.871094 L 4.867188 7.957031 L 5.542969 8.15625 L 5.785156 8.125 L 5.949219 7.933594 L 6.027344 7.699219 L 6.136719 7.515625 L 6.425781 6.613281 L 6.484375 6.363281 L 6.578125 6.148438 L 6.632812 5.957031 L 6.726562 5.742188 L 7.007812 4.824219 L 7.117188 4.613281 L 7.140625 4.386719 L 7.230469 4.195312 L 7.28125 3.964844 L 7.367188 3.746094 L 7.355469 3.484375 L 7.164062 3.285156 L 6.734375 3.167969 L 6.289062 2.984375 L 6.035156 2.933594 L 4.957031 2.550781 L 4.710938 2.507812 L 4.507812 2.414062 L 3.601562 2.097656 L 3.390625 2.066406 L 1.597656 1.457031 L 1.394531 1.363281 L 1.160156 1.324219 L 0.40625 1.035156 L 0.15625 0.976562 L -0.171875 0.964844 L -0.429688 1.25 L -0.707031 2.046875 L -0.765625 2.296875 L -0.84375 2.492188 L -0.960938 2.957031 L -1.074219 3.15625 L -1.171875 3.40625 L -1.222656 3.636719 Z M -1.320312 3.851562 "/></g></g></g><g fill="#130d6f" fill-opacity="1"><g transform="translate(270.173544, 213.334072)"><g><path d="M -3.324219 6.042969 L -3.507812 6.453125 L -3.636719 6.636719 L -3.796875 6.957031 L -3.902344 7.273438 L -3.675781 7.441406 L -3.398438 7.496094 L -2.933594 7.550781 L -2.25 7.5625 L -1.792969 7.628906 L -1.3125 7.625 L -0.164062 7.742188 L 0.046875 7.726562 L 0.296875 7.730469 L 0.558594 7.789062 L 0.761719 7.78125 L 0.957031 7.808594 L 1.457031 7.800781 L 1.710938 7.847656 L 3.507812 7.949219 L 3.746094 8 L 3.992188 7.988281 L 4.210938 8.027344 L 4.675781 8.027344 L 4.957031 7.953125 L 5.246094 7.671875 L 5.3125 7.28125 L 5.238281 7 L 5.113281 6.8125 L 4.945312 6.628906 L 4.855469 6.460938 L 4.132812 5.535156 L 4.042969 5.335938 L 3.863281 5.171875 L 3.730469 4.953125 L 3.578125 4.792969 L 1.953125 2.546875 L 1.761719 2.359375 L 1.664062 2.175781 L 1.5 1.988281 L 1.269531 1.625 L 0.945312 1.246094 L 0.863281 1.058594 L 0.707031 0.90625 L 0.40625 0.476562 L 0.234375 0.300781 L -0.0507812 0.210938 L -0.222656 0.382812 L -0.421875 0.796875 L -0.554688 0.988281 L -0.847656 1.574219 L -0.902344 1.851562 L -0.824219 2.148438 L -0.585938 2.515625 L -0.5 2.816406 L -0.503906 3.09375 L -0.640625 3.273438 L -0.835938 3.726562 L -0.96875 3.894531 L -1.503906 4.90625 L -1.628906 5.078125 L -1.71875 5.324219 L -1.957031 5.488281 L -2.226562 5.59375 L -2.472656 5.578125 L -2.691406 5.539062 L -2.957031 5.660156 L -3.1875 5.839844 Z M 0.5 5.109375 L 0.65625 4.925781 L 0.761719 4.679688 L 0.925781 4.554688 L 1.125 4.652344 L 1.96875 5.738281 L 2 5.902344 L 1.839844 6 L 0.449219 5.867188 L 0.285156 5.722656 L 0.289062 5.527344 Z M 0.5 5.109375 "/></g></g></g><g fill="#130d6f" fill-opacity="1"><g transform="translate(261.274197, 227.975129)"><g><path d="M -2.671875 3.054688 L -3.414062 3.957031 L -3.8125 4.769531 L -4.015625 5.675781 L -4.027344 6.136719 L -3.996094 6.390625 L -4 6.613281 L -3.960938 6.828125 L -3.882812 7.042969 L -3.789062 7.257812 L -3.75 7.46875 L -3.367188 8.089844 L -3.085938 8.445312 L -2.9375 8.582031 L -2.804688 8.75 L -2.625 8.898438 L -2.46875 9.058594 L -2.109375 9.324219 L -1.882812 9.359375 L -1.652344 9.261719 L -1.488281 9.082031 L -1.304688 8.914062 L -0.324219 7.671875 L 0.15625 7.160156 L 0.414062 6.796875 L 0.46875 6.542969 L 0.367188 6.320312 L -0.492188 5.613281 L -0.703125 5.574219 L -0.933594 5.65625 L -1.167969 5.902344 L -1.503906 6.382812 L -1.664062 6.523438 L -1.839844 6.605469 L -2.015625 6.507812 L -2.09375 6.289062 L -2.136719 6.027344 L -2.132812 5.820312 L -2.003906 5.425781 L -1.792969 5.007812 L -1.609375 4.765625 L -1.175781 4.347656 L -0.578125 4.027344 L -0.101562 3.964844 L 0.105469 3.96875 L 0.574219 4.066406 L 0.894531 4.207031 L 1.21875 4.402344 L 1.75 4.824219 L 2.050781 5.175781 L 2.257812 5.589844 L 2.449219 6.21875 L 2.414062 6.71875 L 2.371094 6.941406 L 2.246094 7.128906 L 2.191406 7.339844 L 1.757812 7.90625 L 1.390625 8.164062 L 1.175781 8.277344 L 0.917969 8.351562 L 0.710938 8.363281 L 0.460938 8.351562 L 0.152344 8.417969 L -0.0898438 8.582031 L -0.328125 8.851562 L -0.515625 9.152344 L -0.898438 9.5625 L -0.988281 9.871094 L -0.878906 10.050781 L -0.402344 10.230469 L -0.175781 10.285156 L 0.644531 10.355469 L 0.972656 10.289062 L 1.226562 10.257812 L 1.445312 10.210938 L 2.300781 9.855469 L 2.492188 9.695312 L 2.960938 9.367188 L 3.6875 8.558594 L 3.828125 8.371094 L 3.898438 8.171875 L 4.03125 7.992188 L 4.351562 7.089844 L 4.457031 6.339844 L 4.429688 5.65625 L 4.382812 5.417969 L 4.359375 5.171875 L 4.304688 4.960938 L 3.90625 4.070312 L 3.144531 3.167969 L 2.863281 2.921875 L 2.195312 2.445312 L 1.140625 2 L 0.699219 1.910156 L 0.21875 1.863281 L -0.457031 1.914062 L -0.910156 2.039062 L -1.78125 2.363281 L -1.953125 2.480469 L -2.46875 2.921875 Z M -2.671875 3.054688 "/></g></g></g><g fill="#130d6f" fill-opacity="1"><g transform="translate(249.421377, 240.998178)"><g><path d="M -3.191406 2.453125 L -3.4375 2.707031 L -3.617188 2.839844 L -4.167969 3.601562 L -4.351562 4.042969 L -4.484375 4.484375 L -4.523438 4.945312 L -4.46875 5.433594 L -4.375 5.65625 L -4.335938 5.886719 L -4.105469 6.332031 L -3.789062 6.800781 L -1.773438 9.226562 L -1.613281 9.382812 L -1.464844 9.597656 L -1.328125 9.726562 L -0.707031 10.472656 L -0.585938 10.675781 L -0.3125 10.765625 L -0.0625 10.664062 L 0.488281 10.175781 L 0.890625 9.886719 L 1.003906 9.640625 L 0.9375 9.363281 L -2.023438 5.832031 L -2.425781 5.222656 L -2.484375 5.042969 L -2.535156 4.78125 L -2.46875 4.546875 L -2.253906 4.167969 L -1.714844 3.71875 L -1.46875 3.59375 L -1.242188 3.554688 L -1.007812 3.542969 L -0.78125 3.597656 L -0.585938 3.722656 L -0.0976562 4.199219 L 2.28125 7.117188 L 2.414062 7.238281 L 2.632812 7.542969 L 2.867188 7.789062 L 3.140625 7.894531 L 3.398438 7.820312 L 3.566406 7.675781 L 3.726562 7.5 L 4.140625 7.214844 L 4.308594 7.03125 L 4.4375 6.804688 L 4.414062 6.535156 L 4.246094 6.371094 L 4.066406 6.152344 L 3.964844 5.996094 L 2.890625 4.757812 L 2.769531 4.554688 L 2.609375 4.402344 L 1.433594 2.929688 L 0.78125 2.253906 L 0.382812 1.960938 L -0.015625 1.777344 L -0.488281 1.625 L -0.703125 1.585938 L -0.933594 1.582031 L -1.378906 1.632812 L -1.625 1.703125 L -1.828125 1.734375 L -2.296875 1.863281 L -2.707031 2.082031 L -2.886719 2.234375 Z M -3.191406 2.453125 "/></g></g></g><g fill="#130d6f" fill-opacity="1"><g transform="translate(236.028611, 251.065889)"><g><path d="M -3.554688 1.984375 L -4.996094 2.832031 L -5.15625 3.042969 L -5.148438 3.320312 L -4.5625 4.347656 L -4.335938 4.484375 L -4.070312 4.457031 L -3.847656 4.300781 L -3.636719 4.222656 L -3.113281 3.9375 L -2.800781 3.707031 L -2.585938 3.613281 L -2.367188 3.472656 L -2.15625 3.394531 L -1.945312 3.246094 L -1.675781 3.226562 L -1.488281 3.363281 L -1.125 4.003906 L -1.09375 4.269531 L -1.214844 4.484375 L -1.511719 4.667969 L -1.855469 4.824219 L -2.230469 5.0625 L -2.652344 5.289062 L -2.84375 5.425781 L -3.082031 5.550781 L -3.242188 5.746094 L -3.195312 5.992188 L -2.707031 6.921875 L -2.441406 7.148438 L -2.132812 7.148438 L -1.535156 6.808594 L -1.332031 6.664062 L -0.886719 6.453125 L -0.308594 6.097656 L -0.0429688 6.066406 L 0.214844 6.335938 L 0.394531 6.652344 L 0.414062 6.894531 L 0.238281 7.105469 L 0.0390625 7.203125 L -0.132812 7.355469 L -1.597656 8.160156 L -1.785156 8.28125 L -1.929688 8.523438 L -1.925781 8.765625 L -1.800781 8.964844 L -1.695312 9.171875 L -1.328125 9.769531 L -1.125 9.910156 L -0.875 9.878906 L -0.664062 9.753906 L -0.457031 9.691406 L 0.359375 9.214844 L 0.574219 9.066406 L 0.789062 8.96875 L 0.953125 8.863281 L 1.167969 8.765625 L 1.992188 8.273438 L 2.210938 8.1875 L 2.382812 8.035156 L 2.574219 7.953125 L 2.765625 7.816406 L 2.976562 7.710938 L 3.144531 7.507812 L 3.132812 7.230469 L 2.894531 6.855469 L 2.6875 6.421875 L 2.53125 6.214844 L 1.984375 5.207031 L 1.832031 5.011719 L 1.742188 4.808594 L 1.277344 3.96875 L 1.140625 3.804688 L 0.214844 2.152344 L 0.125 1.945312 L -0.0195312 1.761719 L -0.390625 1.042969 L -0.535156 0.832031 L -0.773438 0.601562 L -1.152344 0.644531 L -1.890625 1.050781 L -2.105469 1.199219 L -2.292969 1.292969 L -2.691406 1.558594 L -2.90625 1.628906 L -3.148438 1.75 L -3.339844 1.886719 Z M -3.554688 1.984375 "/></g></g></g></svg>