<svg xmlns="http://www.w3.org/2000/svg" xmlns:xlink="http://www.w3.org/1999/xlink" width="500" zoomAndPan="magnify" viewBox="0 0 375 374.999991" height="500" preserveAspectRatio="xMidYMid meet" version="1.0"><defs><g/><clipPath id="50e017cc74"><path d="M 173 93 L 238.144531 93 L 238.144531 159 L 173 159 Z M 173 93 " clip-rule="nonzero"/></clipPath><clipPath id="3ff7dae2be"><path d="M 158 235 L 203 235 L 203 256.878906 L 158 256.878906 Z M 158 235 " clip-rule="nonzero"/></clipPath><clipPath id="532f6a7022"><path d="M 98 53.628906 L 139 53.628906 L 139 95 L 98 95 Z M 98 53.628906 " clip-rule="nonzero"/></clipPath><clipPath id="d19e7f0c80"><path d="M 94.144531 178 L 135 178 L 135 219 L 94.144531 219 Z M 94.144531 178 " clip-rule="nonzero"/></clipPath></defs><rect x="-37.5" width="450" fill="#ffffff" y="-37.499999" height="449.999989" fill-opacity="1"/><rect x="-37.5" width="450" fill="#ffffff" y="-37.499999" height="449.999989" fill-opacity="1"/><rect x="-37.5" width="450" fill="#ffffff" y="-37.499999" height="449.999989" fill-opacity="1"/><path fill="#f8dd5c" d="M 145.753906 154.199219 C 147.910156 146.777344 143.625 139.011719 136.191406 136.863281 C 131.519531 135.511719 126.71875 136.695312 123.257812 139.605469 C 124.882812 148.722656 128.644531 157.097656 134.007812 164.203125 C 139.402344 163.53125 144.144531 159.746094 145.753906 154.199219 " fill-opacity="1" fill-rule="nonzero"/><g clip-path="url(#50e017cc74)"><path fill="#f8dd5c" d="M 229.375 132.640625 C 225.570312 145.746094 211.851562 153.292969 198.730469 149.496094 C 185.605469 145.699219 178.050781 132 181.855469 118.898438 C 185.652344 105.792969 199.375 98.246094 212.496094 102.042969 C 220.890625 104.472656 227.007812 110.953125 229.328125 118.734375 C 229.867188 121.097656 230.214844 123.53125 230.355469 126.015625 C 230.332031 128.210938 230.015625 130.433594 229.375 132.640625 Z M 236.8125 116.519531 C 233.753906 106.277344 225.710938 97.753906 214.667969 94.558594 C 197.40625 89.566406 179.359375 99.492188 174.359375 116.730469 C 169.359375 133.964844 179.296875 151.988281 196.558594 156.980469 C 213.824219 161.972656 231.871094 152.046875 236.871094 134.808594 C 237.710938 131.90625 238.128906 128.980469 238.160156 126.09375 C 237.976562 122.820312 237.519531 119.621094 236.8125 116.519531 " fill-opacity="1" fill-rule="nonzero"/></g><g clip-path="url(#3ff7dae2be)"><path fill="#130d6f" d="M 160.628906 242.359375 C 163.3125 250.960938 171.285156 256.820312 180.308594 256.820312 C 189.328125 256.820312 197.304688 250.960938 199.984375 242.359375 L 202.28125 235 L 158.335938 235 L 160.628906 242.359375 " fill-opacity="1" fill-rule="nonzero"/></g><path fill="#130d6f" d="M 151.386719 230.855469 L 209.230469 230.855469 L 209.230469 216.492188 L 151.386719 216.492188 L 151.386719 230.855469 " fill-opacity="1" fill-rule="nonzero"/><path fill="#f8dd5c" d="M 167.261719 174.410156 C 161.992188 175.007812 158.207031 179.757812 158.804688 185.023438 C 159.40625 190.285156 164.167969 194.066406 169.4375 193.464844 C 174.707031 192.867188 178.492188 188.113281 177.890625 182.851562 C 177.289062 177.589844 172.53125 173.808594 167.261719 174.410156 " fill-opacity="1" fill-rule="nonzero"/><path fill="#f8dd5c" d="M 185.296875 184.707031 L 182.582031 185.949219 C 182.398438 187.28125 182.023438 188.558594 181.492188 189.753906 L 183.132812 192.242188 C 182.246094 193.8125 181.113281 195.234375 179.78125 196.449219 L 176.980469 195.414062 C 175.933594 196.203125 174.773438 196.851562 173.519531 197.332031 L 172.914062 200.25 C 172.0625 200.492188 171.179688 200.664062 170.269531 200.769531 C 169.359375 200.871094 168.460938 200.898438 167.574219 200.859375 L 166.332031 198.152344 C 165 197.964844 163.722656 197.59375 162.523438 197.0625 L 160.03125 198.699219 C 158.457031 197.8125 157.035156 196.683594 155.816406 195.351562 L 156.855469 192.558594 C 156.066406 191.511719 155.414062 190.351562 154.933594 189.097656 L 152.011719 188.496094 C 151.773438 187.644531 151.597656 186.761719 151.496094 185.855469 C 151.390625 184.949219 151.363281 184.050781 151.402344 183.164062 L 154.113281 181.921875 C 154.300781 180.59375 154.671875 179.316406 155.207031 178.117188 L 153.566406 175.632812 C 154.453125 174.058594 155.582031 172.636719 156.914062 171.421875 L 159.714844 172.457031 C 160.761719 171.671875 161.925781 171.019531 163.179688 170.539062 L 163.78125 167.621094 C 164.632812 167.382812 165.519531 167.210938 166.429688 167.105469 C 167.335938 167.003906 168.238281 166.972656 169.125 167.011719 L 170.363281 169.722656 C 171.695312 169.910156 172.976562 170.28125 174.175781 170.8125 L 176.667969 169.175781 C 178.238281 170.058594 179.660156 171.191406 180.878906 172.519531 L 179.84375 175.3125 C 180.628906 176.363281 181.28125 177.519531 181.765625 178.773438 L 184.6875 179.375 C 184.925781 180.226562 185.101562 181.109375 185.203125 182.015625 C 185.304688 182.925781 185.335938 183.828125 185.296875 184.707031 Z M 215.863281 166.054688 C 212.183594 166.992188 208.351562 167.433594 204.460938 167.324219 L 199.59375 174.449219 C 197.046875 174.132812 194.492188 173.613281 191.945312 172.878906 C 189.40625 172.140625 186.96875 171.214844 184.644531 170.125 L 184.34375 161.507812 C 181 159.523438 177.996094 157.101562 175.386719 154.347656 L 166.894531 155.949219 C 163.683594 151.832031 161.144531 147.226562 159.375 142.316406 L 165.269531 136.003906 C 164.332031 132.328125 163.890625 128.503906 164 124.617188 L 156.863281 119.757812 C 157.179688 117.214844 157.699219 114.664062 158.4375 112.121094 C 159.175781 109.582031 160.101562 107.148438 161.195312 104.828125 L 169.828125 104.53125 C 171.8125 101.1875 174.234375 98.191406 176.996094 95.585938 L 175.394531 87.105469 C 179.515625 83.898438 184.125 81.359375 189.042969 79.597656 L 195.363281 85.484375 C 199.042969 84.546875 202.875 84.101562 206.765625 84.214844 L 209.890625 79.640625 C 201.226562 74.5 191.113281 71.539062 180.308594 71.539062 C 148.828125 71.539062 123.308594 96.429688 122.386719 127.65625 C 122.898438 127.433594 123.414062 127.222656 123.9375 127.035156 L 127.125 130 C 128.980469 129.527344 130.910156 129.304688 132.871094 129.363281 L 135.324219 125.769531 C 136.609375 125.929688 137.898438 126.191406 139.179688 126.558594 C 140.460938 126.933594 141.691406 127.398438 142.859375 127.949219 L 143.011719 132.292969 C 144.699219 133.292969 146.210938 134.515625 147.527344 135.902344 L 151.808594 135.09375 C 153.425781 137.171875 154.707031 139.492188 155.597656 141.964844 L 152.625 145.148438 C 153.097656 147 153.320312 148.929688 153.265625 150.886719 L 156.863281 153.335938 C 156.703125 154.617188 156.441406 155.90625 156.070312 157.183594 C 155.699219 158.464844 155.230469 159.691406 154.679688 160.863281 L 150.328125 161.011719 C 149.328125 162.695312 148.105469 164.207031 146.714844 165.519531 L 147.523438 169.792969 C 145.464844 171.398438 143.160156 172.667969 140.707031 173.554688 C 147.46875 184.625 151.175781 197.339844 151.175781 210.425781 L 151.175781 210.457031 L 209.4375 210.457031 L 209.4375 210.425781 C 209.4375 196.40625 213.707031 182.828125 221.410156 171.21875 L 215.863281 166.054688 " fill-opacity="1" fill-rule="nonzero"/><g clip-path="url(#532f6a7022)"><path fill="#130d6f" d="M 119.566406 85.308594 C 113.28125 86.027344 107.605469 81.515625 106.886719 75.238281 C 106.171875 68.960938 110.6875 63.292969 116.972656 62.574219 C 123.261719 61.859375 128.9375 66.371094 129.652344 72.644531 C 130.371094 78.925781 125.855469 84.59375 119.566406 85.308594 Z M 138.484375 74.863281 C 138.53125 73.808594 138.5 72.738281 138.375 71.652344 C 138.25 70.574219 138.042969 69.519531 137.761719 68.503906 L 134.273438 67.785156 C 133.699219 66.289062 132.921875 64.90625 131.980469 63.65625 L 133.21875 60.324219 C 131.765625 58.738281 130.070312 57.390625 128.195312 56.335938 L 125.21875 58.289062 C 123.789062 57.652344 122.265625 57.210938 120.675781 56.984375 L 119.195312 53.757812 C 118.136719 53.707031 117.0625 53.746094 115.980469 53.867188 C 114.894531 53.992188 113.839844 54.199219 112.820312 54.484375 L 112.105469 57.964844 C 110.609375 58.539062 109.21875 59.3125 107.972656 60.253906 L 104.632812 59.015625 C 103.042969 60.464844 101.691406 62.160156 100.636719 64.035156 L 102.59375 67.003906 C 101.957031 68.429688 101.515625 69.957031 101.289062 71.539062 L 98.054688 73.023438 C 98.007812 74.074219 98.042969 75.148438 98.164062 76.230469 C 98.289062 77.316406 98.496094 78.367188 98.78125 79.382812 L 102.265625 80.101562 C 102.84375 81.59375 103.617188 82.980469 104.558594 84.226562 L 103.320312 87.5625 C 104.773438 89.148438 106.472656 90.496094 108.347656 91.554688 L 111.320312 89.597656 C 112.75 90.230469 114.277344 90.675781 115.863281 90.898438 L 117.347656 94.128906 C 118.402344 94.175781 119.476562 94.144531 120.5625 94.019531 C 121.644531 93.894531 122.699219 93.6875 123.71875 93.40625 L 124.4375 89.925781 C 125.933594 89.347656 127.320312 88.574219 128.570312 87.636719 L 131.90625 88.871094 C 133.496094 87.421875 134.847656 85.722656 135.90625 83.851562 L 133.949219 80.882812 C 134.582031 79.453125 135.027344 77.929688 135.25 76.34375 L 138.484375 74.863281 " fill-opacity="1" fill-rule="nonzero"/></g><g clip-path="url(#d19e7f0c80)"><path fill="#130d6f" d="M 115.714844 209.945312 C 109.429688 210.660156 103.75 206.152344 103.035156 199.875 C 102.320312 193.597656 106.832031 187.925781 113.121094 187.210938 C 119.40625 186.496094 125.085938 191.003906 125.800781 197.28125 C 126.515625 203.5625 122.003906 209.230469 115.714844 209.945312 Z M 134.632812 199.5 C 134.679688 198.445312 134.644531 197.371094 134.523438 196.292969 C 134.398438 195.207031 134.191406 194.152344 133.90625 193.136719 L 130.421875 192.421875 C 129.847656 190.925781 129.070312 189.542969 128.128906 188.292969 L 129.367188 184.960938 C 127.914062 183.375 126.214844 182.027344 124.339844 180.96875 L 121.367188 182.921875 C 119.9375 182.289062 118.410156 181.847656 116.824219 181.621094 L 115.339844 178.394531 C 114.285156 178.34375 113.210938 178.378906 112.125 178.503906 C 111.042969 178.628906 109.988281 178.832031 108.96875 179.117188 L 108.25 182.597656 C 106.753906 183.171875 105.367188 183.945312 104.117188 184.886719 L 100.78125 183.652344 C 99.191406 185.101562 97.839844 186.796875 96.785156 188.667969 L 98.742188 191.640625 C 98.105469 193.066406 97.660156 194.589844 97.4375 196.175781 L 94.203125 197.65625 C 94.15625 198.710938 94.191406 199.785156 94.3125 200.867188 C 94.4375 201.953125 94.644531 203.003906 94.929688 204.019531 L 98.414062 204.738281 C 98.988281 206.230469 99.765625 207.617188 100.707031 208.863281 L 99.46875 212.195312 C 100.921875 213.785156 102.617188 215.132812 104.496094 216.1875 L 107.46875 214.234375 C 108.898438 214.867188 110.425781 215.3125 112.011719 215.535156 L 113.496094 218.765625 C 114.550781 218.8125 115.625 218.777344 116.710938 218.65625 C 117.792969 218.53125 118.847656 218.324219 119.867188 218.039062 L 120.585938 214.5625 C 122.082031 213.984375 123.46875 213.210938 124.71875 212.269531 L 128.054688 213.503906 C 129.644531 212.054688 130.996094 210.359375 132.054688 208.488281 L 130.09375 205.519531 C 130.730469 204.089844 131.175781 202.566406 131.398438 200.980469 L 134.632812 199.5 " fill-opacity="1" fill-rule="nonzero"/></g><g fill="#130d6f" fill-opacity="1"><g transform="translate(155.747382, 50.964943)"><g><path d="M 2.875 -1.023438 L 3.601562 -1.3125 L 3.882812 -1.539062 L 3.878906 -1.886719 L 3.703125 -2.472656 L 3.519531 -2.875 L 3.457031 -3.113281 L 3.285156 -3.550781 L 3.234375 -3.757812 L 3.113281 -3.984375 L 2.492188 -5.761719 L 2.375 -5.980469 L 2.058594 -6.949219 L 2.027344 -7.308594 L 2.1875 -7.519531 L 2.609375 -7.695312 L 3.035156 -7.789062 L 3.253906 -7.90625 L 3.453125 -7.96875 L 3.597656 -8.15625 L 3.640625 -8.445312 L 3.273438 -9.496094 L 3.070312 -9.671875 L 2.808594 -9.738281 L 2.128906 -9.488281 L 1.914062 -9.433594 L 1.695312 -9.316406 L 1.476562 -9.261719 L 0.601562 -8.894531 L 0.367188 -8.859375 L 0.15625 -8.792969 L -0.0625 -8.675781 L -0.3125 -8.609375 L -0.496094 -8.496094 L -1.15625 -8.289062 L -1.484375 -8.132812 L -2.269531 -7.898438 L -2.4375 -7.710938 L -2.476562 -7.410156 L -2.386719 -7.195312 L -2.207031 -6.636719 L -2.0625 -6.304688 L -1.890625 -6.144531 L -1.652344 -6.105469 L -1.441406 -6.207031 L -0.390625 -6.566406 L -0.140625 -6.53125 L 0.0585938 -6.355469 L 0.164062 -5.996094 L 0.300781 -5.699219 L 0.378906 -5.453125 L 0.46875 -5.234375 L 0.558594 -4.921875 L 1.1875 -3.296875 L 1.246094 -3.066406 L 1.558594 -2.175781 L 1.664062 -1.953125 L 1.886719 -1.308594 L 1.941406 -1.09375 L 2.171875 -0.902344 L 2.53125 -0.910156 Z M 2.875 -1.023438 "/></g></g></g><g fill="#130d6f" fill-opacity="1"><g transform="translate(170.274598, 46.395004)"><g><path d="M 0.785156 -0.46875 L 0.960938 -0.273438 L 1.203125 -0.183594 L 1.429688 -0.238281 L 1.894531 -0.292969 L 2.132812 -0.359375 L 2.621094 -0.429688 L 2.835938 -0.613281 L 2.890625 -0.847656 L 2.875 -1.070312 L 2.808594 -1.320312 L 2.453125 -3.359375 L 2.515625 -3.617188 L 2.734375 -3.808594 L 4.089844 -4.058594 L 4.339844 -4.066406 L 4.546875 -4.101562 L 4.785156 -4.011719 L 4.941406 -3.8125 L 5.394531 -1.269531 L 5.550781 -1.105469 L 5.914062 -1.015625 L 6.511719 -1.117188 L 6.738281 -1.183594 L 7.214844 -1.230469 L 7.410156 -1.417969 L 7.511719 -1.636719 L 7.308594 -2.683594 L 7.277344 -3.054688 L 7.210938 -3.234375 L 6.21875 -9.019531 L 6.074219 -9.242188 L 5.828125 -9.296875 L 4.5 -9.078125 L 4.179688 -8.9375 L 4.113281 -8.640625 L 4.175781 -8.203125 L 4.234375 -8.011719 L 4.292969 -7.535156 L 4.367188 -7.320312 L 4.511719 -6.421875 L 4.421875 -6.167969 L 4.214844 -6 L 3.992188 -6 L 3.550781 -5.875 L 3.304688 -5.855469 L 3.101562 -5.796875 L 2.417969 -5.691406 L 2.179688 -5.753906 L 2.027344 -5.953125 L 1.972656 -6.207031 L 1.929688 -6.449219 L 1.882812 -6.652344 L 1.738281 -7.554688 L 1.71875 -7.8125 L 1.621094 -8.234375 L 1.476562 -8.433594 L 1.214844 -8.519531 L 0.964844 -8.453125 L -0.179688 -8.277344 L -0.414062 -8.117188 L -0.488281 -7.867188 L -0.46875 -7.609375 L -0.289062 -6.714844 L -0.269531 -6.480469 L -0.144531 -6.015625 L -0.0898438 -5.574219 L -0.03125 -5.300781 L -0.0117188 -5.066406 L 0.585938 -1.621094 L 0.65625 -1.417969 Z M 0.785156 -0.46875 "/></g></g></g><g fill="#130d6f" fill-opacity="1"><g transform="translate(187.385823, 44.29325)"><g><path d="M 4.070312 0.0625 L 5.742188 0.0507812 L 5.988281 -0.0546875 L 6.117188 -0.300781 L 6.125 -1.480469 L 6 -1.714844 L 5.753906 -1.820312 L 5.484375 -1.800781 L 5.261719 -1.835938 L 4.667969 -1.851562 L 4.28125 -1.808594 L 4.046875 -1.832031 L 3.789062 -1.824219 L 3.566406 -1.859375 L 3.308594 -1.835938 L 3.066406 -1.957031 L 2.972656 -2.167969 L 2.976562 -2.902344 L 3.085938 -3.148438 L 3.296875 -3.277344 L 3.644531 -3.285156 L 4.019531 -3.246094 L 4.464844 -3.269531 L 4.945312 -3.253906 L 5.179688 -3.277344 L 5.445312 -3.261719 L 5.679688 -3.355469 L 5.765625 -3.585938 L 5.808594 -4.640625 L 5.691406 -4.96875 L 5.425781 -5.121094 L 4.734375 -5.125 L 4.488281 -5.105469 L 3.996094 -5.140625 L 3.320312 -5.125 L 3.074219 -5.230469 L 2.984375 -5.59375 L 2.984375 -5.957031 L 3.09375 -6.175781 L 3.351562 -6.269531 L 3.570312 -6.257812 L 3.792969 -6.300781 L 5.464844 -6.265625 L 5.6875 -6.277344 L 5.933594 -6.417969 L 6.054688 -6.625 L 6.042969 -6.859375 L 6.054688 -7.09375 L 6.039062 -7.796875 L 5.933594 -8.019531 L 5.699219 -8.113281 L 5.457031 -8.113281 L 5.246094 -8.164062 L 4.296875 -8.15625 L 4.039062 -8.136719 L 3.808594 -8.160156 L 3.609375 -8.148438 L 3.375 -8.175781 L 2.414062 -8.15625 L 2.179688 -8.195312 L 1.960938 -8.148438 L 1.75 -8.175781 L 1.515625 -8.152344 L 1.28125 -8.164062 L 1.035156 -8.074219 L 0.90625 -7.828125 L 0.925781 -7.382812 L 0.886719 -6.90625 L 0.921875 -6.648438 L 0.890625 -5.5 L 0.921875 -5.257812 L 0.898438 -5.035156 L 0.878906 -4.074219 L 0.914062 -3.863281 L 0.890625 -1.96875 L 0.863281 -1.75 L 0.898438 -1.515625 L 0.859375 -0.707031 L 0.878906 -0.449219 L 0.972656 -0.132812 L 1.320312 0.0195312 L 2.164062 0.0390625 L 2.421875 0.015625 L 2.628906 0.0273438 L 3.109375 -0.00390625 L 3.332031 0.046875 L 3.601562 0.0585938 L 3.835938 0.0351562 Z M 4.070312 0.0625 "/></g></g></g><g fill="#130d6f" fill-opacity="1"><g transform="translate(202.84506, 45.184533)"><g/></g></g><g fill="#130d6f" fill-opacity="1"><g transform="translate(214.557561, 47.545254)"><g><path d="M 1.480469 0.515625 L 2.03125 0.667969 L 2.230469 0.742188 L 2.492188 0.804688 L 2.753906 0.789062 L 2.929688 0.589844 L 2.992188 0.363281 L 3.082031 0.121094 L 3.191406 -0.296875 L 3.28125 -0.5 L 3.355469 -0.761719 L 3.519531 -0.929688 L 3.8125 -0.96875 L 4.066406 -0.910156 L 4.285156 -0.792969 L 5.460938 -0.511719 L 6.652344 -0.59375 L 6.863281 -0.671875 L 7.078125 -0.800781 L 7.269531 -0.898438 L 7.46875 -1.019531 L 7.816406 -1.300781 L 8.144531 -1.671875 L 8.257812 -1.90625 L 8.382812 -2.0625 L 8.699219 -2.96875 L 8.714844 -3.171875 L 8.761719 -3.429688 L 8.757812 -3.882812 L 8.671875 -4.328125 L 8.523438 -4.78125 L 8.160156 -5.378906 L 7.871094 -5.742188 L 7.46875 -6.019531 L 7.304688 -6.15625 L 7.082031 -6.230469 L 6.886719 -6.378906 L 6.554688 -6.496094 L 6.195312 -6.601562 L 5.941406 -6.648438 L 5.265625 -6.878906 L 5.054688 -6.984375 L 4.347656 -7.160156 L 4.109375 -7.25 L 3.917969 -7.347656 L 3.671875 -7.378906 L 3.398438 -7.332031 L 3.238281 -7.1875 L 2.816406 -5.835938 L 2.628906 -5.40625 L 2.582031 -5.1875 L 1.640625 -2.308594 L 1.597656 -2.089844 L 0.921875 -0.0351562 L 0.976562 0.214844 L 1.285156 0.4375 Z M 4.378906 -2.753906 L 4.199219 -2.957031 L 4.160156 -3.179688 L 4.417969 -4.09375 L 4.515625 -4.320312 L 4.660156 -4.773438 L 4.839844 -4.949219 L 5.109375 -4.984375 L 6.257812 -4.578125 L 6.445312 -4.40625 L 6.585938 -4.226562 L 6.683594 -4.035156 L 6.722656 -3.777344 L 6.691406 -3.566406 L 6.613281 -3.246094 L 6.496094 -2.953125 L 6.351562 -2.78125 L 6.195312 -2.632812 L 5.992188 -2.503906 L 5.769531 -2.425781 L 5.574219 -2.429688 L 5.214844 -2.496094 L 4.652344 -2.6875 Z M 4.378906 -2.753906 "/></g></g></g><g fill="#130d6f" fill-opacity="1"><g transform="translate(229.886645, 53.293804)"><g><path d="M 1 -0.0078125 L 0.929688 0.367188 L 1.15625 0.664062 L 1.378906 0.742188 L 1.691406 0.949219 L 1.867188 1.019531 L 2.175781 1.183594 L 2.5625 1.257812 L 2.816406 1.011719 L 3.003906 0.660156 L 3.125 0.484375 L 3.210938 0.253906 L 3.585938 -0.394531 L 3.789062 -0.550781 L 4.046875 -0.558594 L 4.597656 -0.15625 L 4.710938 0.128906 L 4.722656 0.402344 L 4.707031 0.632812 L 4.753906 1.058594 L 4.75 1.535156 L 4.78125 1.75 L 4.753906 2 L 4.773438 2.234375 L 4.898438 2.542969 L 5.199219 2.824219 L 6.019531 3.25 L 6.203125 3.375 L 6.550781 3.546875 L 6.792969 3.5625 L 6.976562 3.367188 L 6.988281 3.082031 L 6.941406 2.871094 L 6.964844 2.628906 L 6.894531 1.917969 L 6.902344 1.679688 L 6.859375 0.96875 L 6.820312 0.746094 L 6.945312 0.496094 L 7.15625 0.316406 L 7.386719 0.242188 L 7.597656 0.195312 L 8.386719 -0.308594 L 8.839844 -0.835938 L 9.167969 -1.496094 L 9.25 -1.71875 L 9.378906 -2.40625 L 9.390625 -2.625 L 9.367188 -2.847656 L 9.109375 -3.78125 L 8.855469 -4.171875 L 8.535156 -4.515625 L 8.023438 -4.964844 L 7.699219 -5.152344 L 7.386719 -5.292969 L 6.769531 -5.625 L 6.585938 -5.777344 L 6.378906 -5.890625 L 6.167969 -5.9375 L 5.960938 -6.046875 L 5.777344 -6.199219 L 5.554688 -6.332031 L 4.921875 -6.609375 L 4.679688 -6.605469 L 4.402344 -6.382812 L 3.144531 -4.019531 L 3.054688 -3.800781 L 2.800781 -3.40625 L 2.691406 -3.175781 L 2.578125 -2.96875 L 2.492188 -2.761719 L 2.367188 -2.578125 L 1.910156 -1.746094 L 1.820312 -1.53125 Z M 4.929688 -2.207031 L 4.785156 -2.429688 L 4.792969 -2.640625 L 5.125 -3.257812 L 5.199219 -3.445312 L 5.453125 -3.867188 L 5.648438 -4.011719 L 5.910156 -3.976562 L 6.109375 -3.855469 L 6.542969 -3.675781 L 6.800781 -3.460938 L 7.054688 -3.296875 L 7.222656 -3.136719 L 7.308594 -2.679688 L 7.285156 -2.484375 L 7.179688 -2.191406 L 6.984375 -1.898438 L 6.78125 -1.742188 L 6.582031 -1.652344 L 6.421875 -1.617188 L 6.191406 -1.636719 L 5.851562 -1.726562 L 5.652344 -1.820312 L 5.167969 -2.105469 Z M 4.929688 -2.207031 "/></g></g></g><g fill="#130d6f" fill-opacity="1"><g transform="translate(244.271928, 61.896975)"><g><path d="M 3.539062 3.078125 L 4.414062 3.65625 L 4.84375 3.828125 L 5.949219 4.121094 L 7.078125 4.03125 L 7.328125 3.964844 L 8.191406 3.628906 L 8.394531 3.507812 L 8.570312 3.347656 L 8.742188 3.246094 L 8.941406 3.078125 L 9.503906 2.480469 L 9.96875 1.816406 L 10.167969 1.421875 L 10.25 1.171875 L 10.375 0.925781 L 10.457031 0.496094 L 10.527344 0.28125 L 10.535156 0.03125 L 10.511719 -0.167969 L 10.527344 -0.425781 L 10.425781 -1.097656 L 10.199219 -1.765625 L 9.316406 -3.105469 L 8.898438 -3.460938 L 8.234375 -3.941406 L 8.023438 -4.050781 L 7.796875 -4.144531 L 7.574219 -4.207031 L 7.15625 -4.394531 L 6.457031 -4.480469 L 6.242188 -4.476562 L 5.789062 -4.515625 L 5.324219 -4.441406 L 4.644531 -4.238281 L 4.4375 -4.152344 L 3.859375 -3.792969 L 3.46875 -3.460938 L 2.578125 -2.441406 L 2.210938 -1.789062 L 2.097656 -1.371094 L 1.996094 -1.132812 L 1.953125 -0.898438 L 1.90625 0.03125 L 1.960938 0.480469 L 1.96875 0.714844 L 2.316406 1.542969 L 2.429688 1.753906 L 3.015625 2.609375 Z M 4.585938 1.277344 L 4.457031 1.066406 L 4.308594 0.914062 L 4.132812 0.5 L 4.050781 0.0273438 L 4.0625 -0.171875 L 4.046875 -0.398438 L 4.289062 -1.042969 L 4.613281 -1.535156 L 4.84375 -1.800781 L 5.179688 -2.082031 L 5.367188 -2.203125 L 5.582031 -2.242188 L 5.789062 -2.328125 L 6.023438 -2.378906 L 6.257812 -2.382812 L 6.667969 -2.351562 L 6.894531 -2.300781 L 7.125 -2.191406 L 7.570312 -1.886719 L 7.984375 -1.503906 L 8.292969 -0.90625 L 8.40625 -0.46875 L 8.363281 0.0117188 L 8.300781 0.234375 L 8.207031 0.457031 L 8.140625 0.671875 L 7.859375 1.09375 L 7.433594 1.5 L 7.050781 1.808594 L 6.839844 1.863281 L 6.648438 1.929688 L 6.40625 2.003906 L 5.945312 1.996094 L 5.722656 1.933594 L 5.511719 1.898438 L 5.335938 1.78125 L 5.125 1.6875 Z M 4.585938 1.277344 "/></g></g></g><g fill="#130d6f" fill-opacity="1"><g transform="translate(257.666735, 73.937327)"><g><path d="M 2.277344 2.789062 L 2.503906 3.058594 L 2.773438 3.308594 L 2.921875 3.488281 L 3.21875 3.679688 L 3.589844 3.996094 L 4.121094 4.269531 L 5.027344 4.53125 L 5.960938 4.5 L 6.214844 4.441406 L 6.449219 4.429688 L 6.917969 4.28125 L 7.125 4.183594 L 7.34375 4.0625 L 7.542969 3.988281 L 7.742188 3.867188 L 7.933594 3.707031 L 8.242188 3.496094 L 8.496094 3.269531 L 9.101562 2.554688 L 9.34375 2.152344 L 9.453125 1.9375 L 9.675781 1.234375 L 9.808594 0.316406 L 9.734375 -0.394531 L 9.691406 -0.648438 L 9.574219 -0.859375 L 9.519531 -1.070312 L 9.40625 -1.296875 L 9.046875 -1.894531 L 7.359375 -3.957031 L 7.195312 -4.097656 L 7.054688 -4.28125 L 6.808594 -4.414062 L 6.554688 -4.335938 L 1.527344 -0.160156 L 1.371094 0 L 0.910156 0.382812 L 0.707031 0.703125 L 0.769531 0.957031 L 0.9375 1.121094 L 1.832031 2.234375 L 2.007812 2.390625 Z M 3.730469 1.535156 L 3.605469 1.347656 L 3.53125 1.058594 L 3.644531 0.84375 L 3.789062 0.710938 L 4.164062 0.410156 L 4.574219 0.0078125 L 5.054688 -0.328125 L 6.277344 -1.382812 L 6.445312 -1.492188 L 6.726562 -1.574219 L 7.027344 -1.339844 L 7.351562 -0.96875 L 7.542969 -0.683594 L 7.734375 -0.253906 L 7.789062 -0.0234375 L 7.804688 0.195312 L 7.789062 0.433594 L 7.742188 0.703125 L 7.664062 0.917969 L 7.566406 1.136719 L 6.898438 1.9375 L 6.195312 2.371094 L 5.734375 2.496094 L 5.082031 2.480469 L 4.628906 2.339844 L 4.332031 2.144531 L 3.964844 1.796875 Z M 3.730469 1.535156 "/></g></g></g><g fill="#130d6f" fill-opacity="1"><g transform="translate(268.010389, 87.629928)"><g><path d="M 1.828125 3.585938 L 2.03125 3.875 L 2.128906 4.074219 L 2.777344 4.757812 L 3.175781 5.015625 L 3.589844 5.226562 L 4.035156 5.351562 L 4.523438 5.386719 L 4.761719 5.335938 L 4.992188 5.339844 L 5.472656 5.191406 L 5.992188 4.96875 L 8.746094 3.429688 L 8.929688 3.300781 L 9.167969 3.195312 L 9.316406 3.085938 L 10.164062 2.613281 L 10.386719 2.527344 L 10.527344 2.277344 L 10.472656 2.011719 L 10.09375 1.378906 L 9.882812 0.933594 L 9.664062 0.777344 L 9.375 0.789062 L 5.363281 3.058594 L 4.691406 3.339844 L 4.503906 3.363281 L 4.238281 3.367188 L 4.019531 3.261719 L 3.6875 2.976562 L 3.34375 2.363281 L 3.261719 2.101562 L 3.269531 1.871094 L 3.300781 1.640625 L 3.394531 1.425781 L 3.554688 1.253906 L 4.113281 0.863281 L 7.417969 -0.941406 L 7.558594 -1.046875 L 7.894531 -1.210938 L 8.179688 -1.394531 L 8.335938 -1.644531 L 8.308594 -1.910156 L 8.199219 -2.105469 L 8.054688 -2.289062 L 7.851562 -2.753906 L 7.703125 -2.949219 L 7.5 -3.117188 L 7.230469 -3.144531 L 7.039062 -3.007812 L 6.792969 -2.871094 L 6.621094 -2.800781 L 5.207031 -1.972656 L 4.984375 -1.886719 L 4.804688 -1.757812 L 3.144531 -0.871094 L 2.359375 -0.355469 L 2 -0.0195312 L 1.742188 0.339844 L 1.507812 0.777344 L 1.433594 0.980469 L 1.386719 1.207031 L 1.351562 1.65625 L 1.375 1.910156 L 1.367188 2.113281 L 1.414062 2.601562 L 1.554688 3.042969 L 1.667969 3.246094 Z M 1.828125 3.585938 "/></g></g></g><g fill="#130d6f" fill-opacity="1"><g transform="translate(275.484101, 102.590111)"><g><path d="M 1.199219 3.890625 L 1.339844 4.460938 L 1.652344 5.21875 L 2.003906 5.828125 L 2.183594 5.988281 L 2.339844 6.195312 L 2.488281 6.355469 L 3.058594 6.769531 L 3.472656 6.976562 L 3.890625 7.121094 L 4.367188 7.222656 L 5.308594 7.226562 L 5.484375 7.09375 L 5.554688 6.824219 L 5.304688 6.21875 L 5.261719 5.984375 L 5.179688 5.765625 L 5.113281 5.542969 L 4.898438 5.332031 L 4.660156 5.214844 L 4.414062 5.171875 L 4.039062 5.011719 L 3.824219 4.886719 L 3.703125 4.742188 L 3.363281 4.425781 L 3.132812 3.847656 L 3.058594 3.515625 L 3.070312 3.070312 L 3.140625 2.613281 L 3.320312 2.195312 L 3.628906 1.824219 L 3.824219 1.671875 L 3.953125 1.542969 L 4.132812 1.417969 L 4.367188 1.304688 L 5.042969 1.078125 L 5.511719 1.007812 L 5.96875 1.042969 L 6.214844 1.082031 L 6.617188 1.246094 L 6.914062 1.441406 L 7.179688 1.683594 L 7.527344 2.394531 L 7.664062 2.878906 L 7.679688 3.257812 L 7.667969 3.480469 L 7.597656 3.679688 L 7.386719 4.105469 L 7.257812 4.285156 L 7.117188 4.566406 L 7.082031 4.859375 L 7.171875 5.054688 L 7.238281 5.289062 L 7.324219 5.507812 L 7.394531 5.828125 L 7.535156 6.152344 L 7.6875 6.3125 L 7.9375 6.3125 L 8.15625 6.167969 L 8.332031 6.023438 L 8.542969 5.878906 L 8.679688 5.695312 L 8.824219 5.539062 L 8.960938 5.320312 L 9.128906 5.128906 L 9.347656 4.710938 L 9.574219 3.796875 L 9.574219 2.613281 L 9.515625 2.398438 L 9.472656 2.164062 L 9.253906 1.472656 L 8.6875 0.46875 L 8.023438 -0.222656 L 7.671875 -0.464844 L 7.082031 -0.796875 L 6.605469 -0.96875 L 6.210938 -1.074219 L 5.5 -1.144531 L 5.007812 -1.101562 L 4.015625 -0.894531 L 3.226562 -0.558594 L 2.648438 -0.191406 L 1.839844 0.605469 L 1.503906 1.222656 L 1.238281 1.867188 L 1.144531 2.429688 L 1.097656 3 L 1.121094 3.214844 L 1.117188 3.460938 L 1.140625 3.675781 Z M 1.199219 3.890625 "/></g></g></g><g fill="#130d6f" fill-opacity="1"><g transform="translate(280.205407, 119.542642)"><g><path d="M 0.410156 3.023438 L 0.542969 3.796875 L 0.707031 4.117188 L 1.046875 4.183594 L 1.65625 4.132812 L 2.089844 4.035156 L 2.335938 4.023438 L 2.796875 3.945312 L 3.011719 3.9375 L 3.257812 3.867188 L 5.125 3.625 L 5.363281 3.554688 L 6.375 3.445312 L 6.738281 3.488281 L 6.90625 3.6875 L 6.996094 4.136719 L 7 4.574219 L 7.070312 4.808594 L 7.085938 5.019531 L 7.242188 5.199219 L 7.515625 5.300781 L 8.617188 5.15625 L 8.832031 4.996094 L 8.949219 4.753906 L 8.847656 4.035156 L 8.839844 3.8125 L 8.769531 3.574219 L 8.761719 3.351562 L 8.582031 2.421875 L 8.59375 2.183594 L 8.574219 1.960938 L 8.503906 1.722656 L 8.492188 1.464844 L 8.414062 1.261719 L 8.351562 0.574219 L 8.265625 0.222656 L 8.195312 -0.597656 L 8.046875 -0.800781 L 7.761719 -0.898438 L 7.53125 -0.855469 L 6.949219 -0.796875 L 6.59375 -0.722656 L 6.402344 -0.585938 L 6.316406 -0.363281 L 6.371094 -0.132812 L 6.507812 0.96875 L 6.421875 1.207031 L 6.207031 1.367188 L 5.835938 1.394531 L 5.515625 1.464844 L 5.257812 1.492188 L 5.027344 1.535156 L 4.699219 1.558594 L 2.980469 1.839844 L 2.746094 1.851562 L 1.808594 1.972656 L 1.566406 2.03125 L 0.894531 2.117188 L 0.671875 2.125 L 0.4375 2.3125 L 0.371094 2.664062 Z M 0.410156 3.023438 "/></g></g></g><g fill="#130d6f" fill-opacity="1"><g transform="translate(281.6047, 134.803046)"><g/></g></g><g fill="#130d6f" fill-opacity="1"><g transform="translate(280.986622, 146.758878)"><g><path d="M 0.277344 0.941406 L -0.0351562 0.976562 L -0.183594 1.179688 L -0.242188 1.40625 L -0.285156 1.898438 L -0.378906 2.34375 L -0.421875 2.785156 L -0.492188 3 L -0.507812 3.257812 L -0.878906 5.542969 L -0.796875 5.78125 L -0.457031 5.964844 L 0.480469 6.097656 L 0.84375 6.050781 L 1.011719 5.863281 L 1.027344 5.617188 L 1.015625 5.390625 L 1.089844 5.152344 L 1.152344 4.675781 L 1.234375 4.453125 L 1.230469 4.238281 L 1.324219 3.792969 L 1.339844 3.546875 L 1.46875 3.328125 L 1.714844 3.273438 L 5.628906 3.898438 L 5.910156 3.917969 L 6.367188 4.011719 L 7.03125 4.082031 L 7.25 4.125 L 7.523438 4.050781 L 7.695312 3.839844 L 7.765625 3.390625 L 7.757812 3.152344 L 7.875 2.699219 L 7.875 2.472656 L 7.820312 2.214844 L 7.582031 2.070312 L 5.964844 1.820312 L 5.75 1.761719 L 5.515625 1.75 L 5.09375 1.648438 L 4.835938 1.621094 L 4.613281 1.609375 Z M 0.277344 0.941406 "/></g></g></g><g fill="#130d6f" fill-opacity="1"><g transform="translate(277.971086, 161.47375)"><g><path d="M -1.320312 3.851562 L -1.824219 5.445312 L -1.804688 5.710938 L -1.609375 5.910156 L -0.492188 6.28125 L -0.226562 6.234375 L -0.0507812 6.035156 L 0.0117188 5.773438 L 0.117188 5.574219 L 0.316406 5.011719 L 0.394531 4.628906 L 0.488281 4.414062 L 0.558594 4.167969 L 0.664062 3.96875 L 0.722656 3.714844 L 0.910156 3.519531 L 1.140625 3.496094 L 1.839844 3.730469 L 2.039062 3.90625 L 2.09375 4.148438 L 1.996094 4.484375 L 1.84375 4.828125 L 1.722656 5.257812 L 1.5625 5.707031 L 1.511719 5.9375 L 1.414062 6.191406 L 1.429688 6.441406 L 1.625 6.59375 L 2.613281 6.957031 L 2.960938 6.949219 L 3.1875 6.742188 L 3.40625 6.089844 L 3.460938 5.847656 L 3.652344 5.394531 L 3.84375 4.742188 L 4.019531 4.542969 L 4.394531 4.570312 L 4.738281 4.683594 L 4.914062 4.855469 L 4.921875 5.128906 L 4.839844 5.335938 L 4.816406 5.558594 L 4.265625 7.140625 L 4.207031 7.355469 L 4.261719 7.632812 L 4.425781 7.808594 L 4.648438 7.871094 L 4.867188 7.957031 L 5.542969 8.15625 L 5.785156 8.125 L 5.949219 7.933594 L 6.027344 7.699219 L 6.136719 7.515625 L 6.425781 6.613281 L 6.484375 6.363281 L 6.578125 6.148438 L 6.632812 5.957031 L 6.726562 5.742188 L 7.007812 4.824219 L 7.117188 4.613281 L 7.140625 4.386719 L 7.230469 4.195312 L 7.28125 3.964844 L 7.367188 3.746094 L 7.355469 3.484375 L 7.164062 3.285156 L 6.734375 3.167969 L 6.289062 2.984375 L 6.035156 2.933594 L 4.957031 2.550781 L 4.710938 2.507812 L 4.507812 2.414062 L 3.601562 2.097656 L 3.390625 2.066406 L 1.597656 1.457031 L 1.394531 1.363281 L 1.160156 1.324219 L 0.40625 1.035156 L 0.15625 0.976562 L -0.171875 0.964844 L -0.429688 1.25 L -0.707031 2.046875 L -0.765625 2.296875 L -0.84375 2.492188 L -0.960938 2.957031 L -1.074219 3.15625 L -1.171875 3.40625 L -1.222656 3.636719 Z M -1.320312 3.851562 "/></g></g></g><g fill="#130d6f" fill-opacity="1"><g transform="translate(272.450878, 175.842321)"><g><path d="M -3.324219 6.042969 L -3.507812 6.453125 L -3.636719 6.636719 L -3.796875 6.957031 L -3.902344 7.273438 L -3.675781 7.441406 L -3.398438 7.496094 L -2.933594 7.550781 L -2.25 7.5625 L -1.792969 7.628906 L -1.3125 7.625 L -0.164062 7.742188 L 0.046875 7.726562 L 0.296875 7.730469 L 0.558594 7.789062 L 0.761719 7.78125 L 0.957031 7.808594 L 1.457031 7.800781 L 1.710938 7.847656 L 3.507812 7.949219 L 3.746094 8 L 3.992188 7.988281 L 4.210938 8.027344 L 4.675781 8.027344 L 4.957031 7.953125 L 5.246094 7.671875 L 5.3125 7.28125 L 5.238281 7 L 5.113281 6.8125 L 4.945312 6.628906 L 4.855469 6.460938 L 4.132812 5.535156 L 4.042969 5.335938 L 3.863281 5.171875 L 3.730469 4.953125 L 3.578125 4.792969 L 1.953125 2.546875 L 1.761719 2.359375 L 1.664062 2.175781 L 1.5 1.988281 L 1.269531 1.625 L 0.945312 1.246094 L 0.863281 1.058594 L 0.707031 0.90625 L 0.40625 0.476562 L 0.234375 0.300781 L -0.0507812 0.210938 L -0.222656 0.382812 L -0.421875 0.796875 L -0.554688 0.988281 L -0.847656 1.574219 L -0.902344 1.851562 L -0.824219 2.148438 L -0.585938 2.515625 L -0.5 2.816406 L -0.503906 3.09375 L -0.640625 3.273438 L -0.835938 3.726562 L -0.96875 3.894531 L -1.503906 4.90625 L -1.628906 5.078125 L -1.71875 5.324219 L -1.957031 5.488281 L -2.226562 5.59375 L -2.472656 5.578125 L -2.691406 5.539062 L -2.957031 5.660156 L -3.1875 5.839844 Z M 0.5 5.109375 L 0.65625 4.925781 L 0.761719 4.679688 L 0.925781 4.554688 L 1.125 4.652344 L 1.96875 5.738281 L 2 5.902344 L 1.839844 6 L 0.449219 5.867188 L 0.285156 5.722656 L 0.289062 5.527344 Z M 0.5 5.109375 "/></g></g></g><g fill="#130d6f" fill-opacity="1"><g transform="translate(263.551502, 190.483378)"><g><path d="M -2.671875 3.054688 L -3.414062 3.957031 L -3.8125 4.769531 L -4.015625 5.675781 L -4.027344 6.136719 L -3.996094 6.390625 L -4 6.613281 L -3.960938 6.828125 L -3.882812 7.042969 L -3.789062 7.257812 L -3.75 7.46875 L -3.367188 8.089844 L -3.085938 8.445312 L -2.9375 8.582031 L -2.804688 8.75 L -2.625 8.898438 L -2.46875 9.058594 L -2.109375 9.324219 L -1.882812 9.359375 L -1.652344 9.261719 L -1.488281 9.082031 L -1.304688 8.914062 L -0.324219 7.671875 L 0.15625 7.160156 L 0.414062 6.796875 L 0.46875 6.542969 L 0.367188 6.320312 L -0.492188 5.613281 L -0.703125 5.574219 L -0.933594 5.65625 L -1.167969 5.902344 L -1.503906 6.382812 L -1.664062 6.523438 L -1.839844 6.605469 L -2.015625 6.507812 L -2.09375 6.289062 L -2.136719 6.027344 L -2.132812 5.820312 L -2.003906 5.425781 L -1.792969 5.007812 L -1.609375 4.765625 L -1.175781 4.347656 L -0.578125 4.027344 L -0.101562 3.964844 L 0.105469 3.96875 L 0.574219 4.066406 L 0.894531 4.207031 L 1.21875 4.402344 L 1.75 4.824219 L 2.050781 5.175781 L 2.257812 5.589844 L 2.449219 6.21875 L 2.414062 6.71875 L 2.371094 6.941406 L 2.246094 7.128906 L 2.191406 7.339844 L 1.757812 7.90625 L 1.390625 8.164062 L 1.175781 8.277344 L 0.917969 8.351562 L 0.710938 8.363281 L 0.460938 8.351562 L 0.152344 8.417969 L -0.0898438 8.582031 L -0.328125 8.851562 L -0.515625 9.152344 L -0.898438 9.5625 L -0.988281 9.871094 L -0.878906 10.050781 L -0.402344 10.230469 L -0.175781 10.285156 L 0.644531 10.355469 L 0.972656 10.289062 L 1.226562 10.257812 L 1.445312 10.210938 L 2.300781 9.855469 L 2.492188 9.695312 L 2.960938 9.367188 L 3.6875 8.558594 L 3.828125 8.371094 L 3.898438 8.171875 L 4.03125 7.992188 L 4.351562 7.089844 L 4.457031 6.339844 L 4.429688 5.65625 L 4.382812 5.417969 L 4.359375 5.171875 L 4.304688 4.960938 L 3.90625 4.070312 L 3.144531 3.167969 L 2.863281 2.921875 L 2.195312 2.445312 L 1.140625 2 L 0.699219 1.910156 L 0.21875 1.863281 L -0.457031 1.914062 L -0.910156 2.039062 L -1.78125 2.363281 L -1.953125 2.480469 L -2.46875 2.921875 Z M -2.671875 3.054688 "/></g></g></g><g fill="#130d6f" fill-opacity="1"><g transform="translate(251.69871, 203.506427)"><g><path d="M -3.191406 2.453125 L -3.4375 2.707031 L -3.617188 2.839844 L -4.167969 3.601562 L -4.351562 4.042969 L -4.484375 4.484375 L -4.523438 4.945312 L -4.46875 5.433594 L -4.375 5.65625 L -4.335938 5.886719 L -4.105469 6.332031 L -3.789062 6.800781 L -1.773438 9.226562 L -1.613281 9.382812 L -1.464844 9.597656 L -1.328125 9.726562 L -0.707031 10.472656 L -0.585938 10.675781 L -0.3125 10.765625 L -0.0625 10.664062 L 0.488281 10.175781 L 0.890625 9.886719 L 1.003906 9.640625 L 0.9375 9.363281 L -2.023438 5.832031 L -2.425781 5.222656 L -2.484375 5.042969 L -2.535156 4.78125 L -2.46875 4.546875 L -2.253906 4.167969 L -1.714844 3.71875 L -1.46875 3.59375 L -1.242188 3.554688 L -1.007812 3.542969 L -0.78125 3.597656 L -0.585938 3.722656 L -0.0976562 4.199219 L 2.28125 7.117188 L 2.414062 7.238281 L 2.632812 7.542969 L 2.867188 7.789062 L 3.140625 7.894531 L 3.398438 7.820312 L 3.566406 7.675781 L 3.726562 7.5 L 4.140625 7.214844 L 4.308594 7.03125 L 4.4375 6.804688 L 4.414062 6.535156 L 4.246094 6.371094 L 4.066406 6.152344 L 3.964844 5.996094 L 2.890625 4.757812 L 2.769531 4.554688 L 2.609375 4.402344 L 1.433594 2.929688 L 0.78125 2.253906 L 0.382812 1.960938 L -0.015625 1.777344 L -0.488281 1.625 L -0.703125 1.585938 L -0.933594 1.582031 L -1.378906 1.632812 L -1.625 1.703125 L -1.828125 1.734375 L -2.296875 1.863281 L -2.707031 2.082031 L -2.886719 2.234375 Z M -3.191406 2.453125 "/></g></g></g><g fill="#130d6f" fill-opacity="1"><g transform="translate(238.305945, 213.574123)"><g><path d="M -3.554688 1.984375 L -4.996094 2.832031 L -5.15625 3.042969 L -5.148438 3.320312 L -4.5625 4.347656 L -4.335938 4.484375 L -4.070312 4.457031 L -3.847656 4.300781 L -3.636719 4.222656 L -3.113281 3.9375 L -2.800781 3.707031 L -2.585938 3.613281 L -2.367188 3.472656 L -2.15625 3.394531 L -1.945312 3.246094 L -1.675781 3.226562 L -1.488281 3.363281 L -1.125 4.003906 L -1.09375 4.269531 L -1.214844 4.484375 L -1.511719 4.667969 L -1.855469 4.824219 L -2.230469 5.0625 L -2.652344 5.289062 L -2.84375 5.425781 L -3.082031 5.550781 L -3.242188 5.746094 L -3.195312 5.992188 L -2.707031 6.921875 L -2.441406 7.148438 L -2.132812 7.148438 L -1.535156 6.808594 L -1.332031 6.664062 L -0.886719 6.453125 L -0.308594 6.097656 L -0.0429688 6.066406 L 0.214844 6.335938 L 0.394531 6.652344 L 0.414062 6.894531 L 0.238281 7.105469 L 0.0390625 7.203125 L -0.132812 7.355469 L -1.597656 8.160156 L -1.785156 8.28125 L -1.929688 8.523438 L -1.925781 8.765625 L -1.800781 8.964844 L -1.695312 9.171875 L -1.328125 9.769531 L -1.125 9.910156 L -0.875 9.878906 L -0.664062 9.753906 L -0.457031 9.691406 L 0.359375 9.214844 L 0.574219 9.066406 L 0.789062 8.96875 L 0.953125 8.863281 L 1.167969 8.765625 L 1.992188 8.273438 L 2.210938 8.1875 L 2.382812 8.035156 L 2.574219 7.953125 L 2.765625 7.816406 L 2.976562 7.710938 L 3.144531 7.507812 L 3.132812 7.230469 L 2.894531 6.855469 L 2.6875 6.421875 L 2.53125 6.214844 L 1.984375 5.207031 L 1.832031 5.011719 L 1.742188 4.808594 L 1.277344 3.96875 L 1.140625 3.804688 L 0.214844 2.152344 L 0.125 1.945312 L -0.0195312 1.761719 L -0.390625 1.042969 L -0.535156 0.832031 L -0.773438 0.601562 L -1.152344 0.644531 L -1.890625 1.050781 L -2.105469 1.199219 L -2.292969 1.292969 L -2.691406 1.558594 L -2.90625 1.628906 L -3.148438 1.75 L -3.339844 1.886719 Z M -3.554688 1.984375 "/></g></g></g></svg>