<svg width="345" height="269" viewBox="0 0 345 269" fill="none" xmlns="http://www.w3.org/2000/svg">
<path d="M108.609 96.9166C108.208 96.5155 107.646 96.2655 107.021 96.2655C106.396 96.2655 105.833 96.5155 105.427 96.9166V96.927C105.021 97.3333 104.771 97.8958 104.771 98.5155C104.771 99.1405 105.021 99.703 105.427 100.109C105.839 100.516 106.401 100.771 107.021 100.771C107.641 100.771 108.203 100.516 108.609 100.109H108.62C109.021 99.7083 109.271 99.1405 109.271 98.5155C109.271 97.8905 109.021 97.328 108.62 96.927L108.609 96.9166ZM108.286 41.6562H105.75V44.1926H108.286V41.6562ZM104.078 38.302H111.635V47.5416H108.693V55.2655H105.344V47.5416H102.401V38.302H104.078ZM108.693 61.7603V93.1718C109.563 93.4478 110.339 93.927 110.974 94.5572L110.979 94.5624C111.99 95.578 112.62 96.9791 112.62 98.5155C112.62 100.057 111.99 101.458 110.974 102.474C109.969 103.49 108.568 104.12 107.021 104.12C105.474 104.12 104.073 103.49 103.063 102.479C102.047 101.463 101.422 100.062 101.422 98.5155C101.422 96.9687 102.047 95.5676 103.063 94.5572C103.693 93.927 104.474 93.4426 105.344 93.1718V61.7603H108.693Z" fill="black"/>
<path d="M121.474 36.7499H118.938V39.2864H121.474V36.7499ZM117.266 33.3958H124.828V42.6353H121.885V55.2654H118.531V42.6353H115.589V33.3958H117.266ZM121.797 134.099C121.396 133.693 120.833 133.443 120.208 133.443C119.578 133.443 119.016 133.693 118.615 134.099V134.104C118.208 134.51 117.958 135.073 117.958 135.698C117.958 136.318 118.208 136.88 118.615 137.286C119.021 137.693 119.589 137.948 120.208 137.948C120.828 137.948 121.391 137.693 121.797 137.286H121.807C122.208 136.885 122.458 136.323 122.458 135.698C122.458 135.068 122.208 134.505 121.807 134.104L121.797 134.099ZM121.885 61.7603V130.349C122.75 130.625 123.526 131.104 124.161 131.734L124.167 131.74C125.182 132.76 125.807 134.156 125.807 135.698C125.807 137.24 125.177 138.635 124.161 139.651C123.156 140.672 121.755 141.297 120.208 141.297C118.661 141.297 117.26 140.672 116.25 139.656C115.234 138.641 114.609 137.24 114.609 135.693C114.609 134.146 115.234 132.745 116.25 131.734C116.88 131.104 117.661 130.625 118.531 130.349V61.7603H121.885Z" fill="black"/>
<path d="M134.984 152.214C134.583 151.813 134.021 151.557 133.396 151.557C132.765 151.557 132.203 151.813 131.807 152.214V152.219C131.396 152.625 131.146 153.188 131.146 153.813C131.146 154.432 131.396 154.995 131.807 155.401C132.208 155.807 132.776 156.063 133.396 156.063C134.015 156.063 134.578 155.807 134.984 155.401H134.995C135.396 155 135.646 154.438 135.646 153.813C135.646 153.188 135.396 152.625 134.995 152.219L134.984 152.214ZM134.667 19.1926H132.125V21.7292H134.667V19.1926ZM130.453 15.8438H138.01V25.0833H135.073V55.2655H131.719V25.0833H128.776V15.8438H130.453ZM135.073 61.7603V148.469C135.937 148.74 136.719 149.219 137.349 149.849L137.354 149.854C138.37 150.875 138.995 152.271 138.995 153.813C138.995 155.354 138.37 156.75 137.349 157.771C136.344 158.786 134.943 159.411 133.396 159.411C131.849 159.411 130.448 158.786 129.437 157.771C128.422 156.76 127.792 155.354 127.792 153.813C127.792 152.266 128.422 150.865 129.437 149.849C130.073 149.219 130.849 148.74 131.719 148.464V61.7603H135.073Z" fill="black"/>
<path d="M148.172 131.479C147.771 131.073 147.208 130.823 146.583 130.823C145.958 130.823 145.396 131.073 144.995 131.479V131.484C144.583 131.891 144.333 132.453 144.333 133.078C144.333 133.698 144.583 134.26 144.995 134.667C145.401 135.073 145.964 135.328 146.583 135.328C147.203 135.328 147.766 135.073 148.172 134.667H148.182C148.583 134.266 148.833 133.703 148.833 133.078C148.833 132.453 148.583 131.885 148.182 131.484L148.172 131.479ZM147.849 26.6666H145.313V29.203H147.849V26.6666ZM143.641 23.3176H151.203V32.5572H148.26V55.2655H144.906V32.5572H141.964V23.3176H143.641ZM148.26 61.7603V127.729C149.125 128.005 149.906 128.484 150.536 129.115L150.542 129.12C151.557 130.141 152.182 131.536 152.182 133.078C152.182 134.615 151.557 136.016 150.536 137.031C149.531 138.052 148.125 138.677 146.583 138.677C145.036 138.677 143.641 138.052 142.625 137.036C141.609 136.021 140.984 134.625 140.984 133.078C140.984 131.526 141.609 130.13 142.625 129.115C143.26 128.484 144.036 128.005 144.906 127.729V61.7603H148.26Z" fill="black"/>
<path d="M161.359 181.536C160.964 181.135 160.396 180.885 159.771 180.885C159.146 180.885 158.583 181.135 158.182 181.536V181.542C157.776 181.948 157.521 182.516 157.521 183.135C157.521 183.755 157.776 184.318 158.182 184.729C158.589 185.135 159.151 185.385 159.771 185.385C160.391 185.385 160.953 185.135 161.359 184.729H161.37C161.771 184.323 162.021 183.76 162.021 183.135C162.021 182.51 161.771 181.948 161.37 181.542L161.359 181.536ZM161.042 8.62492H158.5V11.1614H161.042V8.62492ZM156.828 5.27075H164.391V14.5103H161.448V55.2655H158.094V14.5103H155.151V5.27075H156.828ZM161.448 61.7603V177.786C162.318 178.062 163.094 178.542 163.724 179.172L163.729 179.177C164.745 180.198 165.375 181.594 165.375 183.135C165.375 184.672 164.745 186.073 163.729 187.088C162.719 188.109 161.318 188.734 159.771 188.734C158.229 188.734 156.828 188.109 155.813 187.094C154.797 186.078 154.172 184.677 154.172 183.135C154.172 181.588 154.797 180.182 155.813 179.172C156.448 178.542 157.224 178.062 158.099 177.786V61.7603H161.448Z" fill="black"/>
<mask id="mask0_192_304" style="mask-type:luminance" maskUnits="userSpaceOnUse" x="167" y="0" width="12" height="201">
<path d="M167 0.890625H179V200.891H167V0.890625Z" fill="white"/>
</mask>
<g mask="url(#mask0_192_304)">
<path d="M174.547 193.682C174.151 193.281 173.589 193.031 172.958 193.031C172.333 193.031 171.771 193.281 171.37 193.682V193.693C170.964 194.099 170.708 194.661 170.708 195.281C170.708 195.901 170.964 196.464 171.37 196.87C171.776 197.281 172.339 197.531 172.958 197.531C173.578 197.531 174.146 197.281 174.547 196.87H174.557C174.964 196.474 175.208 195.906 175.208 195.281C175.208 194.656 174.958 194.094 174.557 193.693L174.547 193.682ZM174.229 4.24479H171.693V6.78125H174.229V4.24479ZM170.016 0.890625H177.578V10.1354H174.635V55.2656H171.281V10.1354H168.344V0.890625H170.016ZM174.635 61.7604V189.938C175.505 190.208 176.281 190.693 176.911 191.323L176.917 191.328C177.932 192.344 178.563 193.745 178.563 195.281C178.563 196.823 177.932 198.224 176.917 199.24C175.906 200.255 174.505 200.885 172.958 200.885C171.417 200.885 170.016 200.255 169 199.245C167.984 198.229 167.359 196.828 167.359 195.281C167.359 193.734 167.984 192.333 169 191.323C169.635 190.693 170.411 190.208 171.286 189.938V61.7604H174.635Z" fill="black"/>
</g>
<path d="M187.74 170.386C187.339 169.979 186.771 169.729 186.146 169.729C185.521 169.729 184.958 169.979 184.557 170.386V170.391C184.151 170.797 183.896 171.359 183.896 171.984C183.896 172.604 184.151 173.167 184.557 173.573C184.964 173.984 185.526 174.234 186.146 174.234C186.766 174.234 187.333 173.984 187.74 173.573H187.745C188.146 173.172 188.396 172.609 188.396 171.984C188.396 171.354 188.146 170.792 187.745 170.391L187.74 170.386ZM187.417 12.6459H184.88V15.1824H187.417V12.6459ZM183.203 9.29175H190.766V18.5313H187.823V55.2657H184.474V18.5313H181.531V9.29175H183.203ZM187.823 61.7605V166.636C188.693 166.912 189.469 167.391 190.099 168.021L190.104 168.026C191.12 169.047 191.75 170.443 191.75 171.984C191.75 173.521 191.12 174.922 190.104 175.938C189.094 176.953 187.693 177.583 186.146 177.583C184.604 177.583 183.203 176.953 182.188 175.943C181.172 174.927 180.547 173.526 180.547 171.979C180.547 170.438 181.172 169.031 182.188 168.021C182.823 167.391 183.604 166.912 184.474 166.636V61.7605H187.823Z" fill="black"/>
<path d="M200.927 122.057C200.526 121.651 199.964 121.401 199.333 121.401C198.708 121.401 198.146 121.651 197.745 122.057V122.063C197.339 122.469 197.083 123.031 197.083 123.656C197.083 124.276 197.339 124.839 197.745 125.245C198.151 125.651 198.714 125.906 199.333 125.906C199.953 125.906 200.516 125.651 200.927 125.245H200.932C201.333 124.844 201.583 124.281 201.583 123.656C201.583 123.026 201.333 122.464 200.932 122.063L200.927 122.057ZM200.604 30.0678H198.068V32.599H200.604V30.0678ZM196.391 26.7136H203.953V35.9532H201.01V55.2657H197.661V35.9532H194.719V26.7136H196.391ZM201.01 61.7605V118.307C201.88 118.583 202.656 119.063 203.286 119.693L203.292 119.698C204.307 120.714 204.938 122.115 204.938 123.651C204.938 125.193 204.307 126.594 203.292 127.609C202.281 128.625 200.88 129.255 199.333 129.255C197.786 129.255 196.391 128.625 195.375 127.615C194.365 126.599 193.734 125.198 193.734 123.651C193.734 122.104 194.365 120.703 195.375 119.693C196.01 119.063 196.792 118.578 197.661 118.307V61.7605H201.01Z" fill="black"/>
<path d="M214.115 135.458C213.714 135.057 213.151 134.807 212.526 134.807C211.901 134.807 211.339 135.057 210.932 135.458V135.464C210.526 135.87 210.276 136.438 210.276 137.057C210.276 137.682 210.526 138.245 210.932 138.651C211.339 139.057 211.901 139.307 212.526 139.307C213.146 139.307 213.708 139.057 214.115 138.651H214.12C214.526 138.245 214.771 137.682 214.771 137.057C214.771 136.432 214.526 135.87 214.12 135.464L214.115 135.458ZM213.792 25.2345H211.255V27.7709H213.792V25.2345ZM209.583 21.8855H217.141V31.1199H214.198V55.2657H210.849V31.1199H207.906V21.8855H209.583ZM214.198 61.7605V131.708C215.068 131.984 215.844 132.464 216.479 133.099L216.484 133.104C217.495 134.12 218.125 135.516 218.125 137.057C218.125 138.599 217.495 140 216.479 141.016C215.469 142.031 214.068 142.662 212.526 142.662C210.979 142.662 209.578 142.031 208.563 141.021C207.552 140.005 206.922 138.604 206.922 137.057C206.922 135.511 207.552 134.109 208.563 133.094C209.198 132.464 209.979 131.984 210.849 131.708V61.7605H214.198Z" fill="black"/>
<path d="M227.302 113.255C226.901 112.854 226.333 112.604 225.708 112.604C225.089 112.604 224.526 112.854 224.12 113.255V113.266C223.714 113.672 223.464 114.234 223.464 114.854C223.464 115.474 223.714 116.042 224.12 116.448C224.526 116.854 225.089 117.109 225.708 117.109C226.333 117.109 226.896 116.854 227.302 116.448H227.313C227.708 116.047 227.958 115.484 227.958 114.854C227.958 114.229 227.708 113.667 227.313 113.266L227.302 113.255ZM226.979 33.2345H224.443V35.7709H226.979V33.2345ZM222.771 29.8855H230.328V39.1251H227.386V55.2657H224.037V39.1251H221.094V29.8855H222.771ZM227.386 61.7605V109.511C228.255 109.787 229.031 110.266 229.667 110.896L229.672 110.901C230.682 111.917 231.313 113.318 231.313 114.854C231.313 116.396 230.682 117.797 229.667 118.813C228.656 119.833 227.255 120.458 225.708 120.458C224.167 120.458 222.766 119.833 221.755 118.818C220.74 117.802 220.115 116.401 220.115 114.854C220.115 113.307 220.74 111.906 221.755 110.896C222.386 110.266 223.167 109.781 224.037 109.511V61.7605H227.386Z" fill="black"/>
<path d="M240.49 96.9167C240.089 96.5157 239.526 96.2657 238.901 96.2657C238.276 96.2657 237.714 96.5157 237.307 96.9167V96.9272C236.901 97.3334 236.651 97.8959 236.651 98.5157C236.651 99.1407 236.901 99.7032 237.307 100.109C237.719 100.516 238.276 100.771 238.901 100.771C239.521 100.771 240.083 100.516 240.49 100.109H240.495C240.901 99.7084 241.151 99.1407 241.151 98.5157C241.151 97.8907 240.901 97.3282 240.495 96.9272L240.49 96.9167ZM240.167 39.1251H237.63V41.6615H240.167V39.1251ZM235.958 35.7761H243.516V45.0157H240.573V55.2657H237.224V45.0157H234.281V35.7761H235.958ZM240.573 61.7605V93.172C241.443 93.448 242.219 93.9272 242.854 94.5574L242.86 94.5626C243.87 95.5782 244.5 96.9792 244.5 98.5157C244.5 100.057 243.87 101.458 242.854 102.474C241.849 103.49 240.448 104.12 238.901 104.12C237.354 104.12 235.953 103.49 234.938 102.479C233.927 101.464 233.302 100.063 233.302 98.5157C233.302 96.9688 233.927 95.5678 234.938 94.5574C235.573 93.9272 236.354 93.4428 237.224 93.172V61.7605H240.573Z" fill="black"/>
<mask id="mask1_192_304" style="mask-type:luminance" maskUnits="userSpaceOnUse" x="88" y="60" width="169" height="4">
<path d="M88.9585 60H256.959V64H88.9585V60Z" fill="white"/>
</mask>
<g mask="url(#mask1_192_304)">
<path d="M89.0054 60.0833H256.912V63.4374H89.0054V60.0833Z" fill="black"/>
</g>
</svg>
