<svg xmlns="http://www.w3.org/2000/svg" xmlns:xlink="http://www.w3.org/1999/xlink" width="500" zoomAndPan="magnify" viewBox="0 0 375 374.999991" height="500" preserveAspectRatio="xMidYMid meet" version="1.0"><defs><g/><clipPath id="31cb1c7f92"><path d="M 183 87.667969 L 192 87.667969 L 192 237.667969 L 183 237.667969 Z M 183 87.667969 " clip-rule="nonzero"/></clipPath><clipPath id="c1c6deadd8"><path d="M 124.46875 132 L 250.46875 132 L 250.46875 135 L 124.46875 135 Z M 124.46875 132 " clip-rule="nonzero"/></clipPath></defs><rect x="-37.5" width="450" fill="#ffffff" y="-37.499999" height="449.999989" fill-opacity="1"/><rect x="-37.5" width="450" fill="#ffffff" y="-37.499999" height="449.999989" fill-opacity="1"/><rect x="-37.5" width="450" fill="#ffffff" y="-37.499999" height="449.999989" fill-opacity="1"/><path fill="#0378be" d="M 139.207031 159.6875 C 138.90625 159.386719 138.484375 159.199219 138.015625 159.199219 C 137.546875 159.199219 137.125 159.386719 136.820312 159.6875 L 136.820312 159.695312 C 136.515625 160 136.328125 160.421875 136.328125 160.886719 C 136.328125 161.355469 136.515625 161.777344 136.820312 162.082031 C 137.128906 162.386719 137.550781 162.578125 138.015625 162.578125 C 138.480469 162.578125 138.902344 162.386719 139.207031 162.082031 L 139.214844 162.082031 C 139.515625 161.78125 139.703125 161.355469 139.703125 160.886719 C 139.703125 160.417969 139.515625 159.996094 139.214844 159.695312 Z M 138.964844 118.242188 L 137.0625 118.242188 L 137.0625 120.144531 L 138.964844 120.144531 Z M 135.808594 115.726562 L 141.476562 115.726562 L 141.476562 122.65625 L 139.269531 122.65625 L 139.269531 128.449219 L 136.757812 128.449219 L 136.757812 122.65625 L 134.550781 122.65625 L 134.550781 115.726562 Z M 139.269531 133.320312 L 139.269531 156.878906 C 139.921875 157.085938 140.503906 157.445312 140.980469 157.917969 L 140.984375 157.921875 C 141.742188 158.683594 142.214844 159.734375 142.214844 160.886719 C 142.214844 162.042969 141.742188 163.09375 140.980469 163.855469 C 140.226562 164.617188 139.175781 165.089844 138.015625 165.089844 C 136.855469 165.089844 135.804688 164.617188 135.046875 163.859375 C 134.285156 163.097656 133.816406 162.046875 133.816406 160.886719 C 133.816406 159.726562 134.285156 158.675781 135.046875 157.917969 C 135.519531 157.445312 136.105469 157.082031 136.757812 156.878906 L 136.757812 133.320312 Z M 139.269531 133.320312 " fill-opacity="1" fill-rule="nonzero"/><path fill="#644c9a" d="M 148.855469 114.5625 L 146.953125 114.5625 L 146.953125 116.464844 L 148.855469 116.464844 Z M 145.699219 112.046875 L 151.371094 112.046875 L 151.371094 118.976562 L 149.164062 118.976562 L 149.164062 128.449219 L 146.648438 128.449219 L 146.648438 118.976562 L 144.441406 118.976562 L 144.441406 112.046875 Z M 149.097656 187.574219 C 148.796875 187.269531 148.375 187.082031 147.90625 187.082031 C 147.433594 187.082031 147.011719 187.269531 146.710938 187.574219 L 146.710938 187.578125 C 146.40625 187.882812 146.21875 188.304688 146.21875 188.773438 C 146.21875 189.238281 146.40625 189.660156 146.710938 189.964844 C 147.015625 190.269531 147.441406 190.460938 147.90625 190.460938 C 148.371094 190.460938 148.792969 190.269531 149.097656 189.964844 L 149.105469 189.964844 C 149.40625 189.664062 149.59375 189.242188 149.59375 188.773438 C 149.59375 188.300781 149.40625 187.878906 149.105469 187.578125 Z M 149.164062 133.320312 L 149.164062 184.761719 C 149.8125 184.96875 150.394531 185.328125 150.871094 185.800781 L 150.875 185.804688 C 151.636719 186.570312 152.105469 187.617188 152.105469 188.773438 C 152.105469 189.929688 151.632812 190.976562 150.871094 191.738281 C 150.117188 192.503906 149.066406 192.972656 147.90625 192.972656 C 146.746094 192.972656 145.695312 192.503906 144.9375 191.742188 C 144.175781 190.980469 143.707031 189.929688 143.707031 188.769531 C 143.707031 187.609375 144.175781 186.558594 144.9375 185.800781 C 145.410156 185.328125 145.996094 184.96875 146.648438 184.761719 L 146.648438 133.320312 Z M 149.164062 133.320312 " fill-opacity="1" fill-rule="nonzero"/><path fill="#c52f90" d="M 158.988281 201.160156 C 158.6875 200.859375 158.265625 200.667969 157.796875 200.667969 C 157.324219 200.667969 156.902344 200.859375 156.605469 201.160156 L 156.605469 201.164062 C 156.296875 201.46875 156.109375 201.890625 156.109375 202.359375 C 156.109375 202.824219 156.296875 203.246094 156.605469 203.550781 C 156.90625 203.855469 157.332031 204.046875 157.796875 204.046875 C 158.261719 204.046875 158.683594 203.855469 158.988281 203.550781 L 158.996094 203.550781 C 159.296875 203.25 159.484375 202.828125 159.484375 202.359375 C 159.484375 201.890625 159.296875 201.46875 158.996094 201.164062 Z M 158.75 101.394531 L 156.84375 101.394531 L 156.84375 103.296875 L 158.75 103.296875 Z M 155.589844 98.882812 L 161.257812 98.882812 L 161.257812 105.8125 L 159.054688 105.8125 L 159.054688 128.449219 L 156.539062 128.449219 L 156.539062 105.8125 L 154.332031 105.8125 L 154.332031 98.882812 Z M 159.054688 133.320312 L 159.054688 198.351562 C 159.703125 198.554688 160.289062 198.914062 160.761719 199.386719 L 160.765625 199.390625 C 161.527344 200.15625 161.996094 201.203125 161.996094 202.359375 C 161.996094 203.515625 161.527344 204.5625 160.761719 205.328125 C 160.007812 206.089844 158.957031 206.558594 157.796875 206.558594 C 156.636719 206.558594 155.585938 206.089844 154.828125 205.328125 C 154.066406 204.570312 153.59375 203.515625 153.59375 202.359375 C 153.59375 201.199219 154.066406 200.148438 154.828125 199.386719 C 155.304688 198.914062 155.886719 198.554688 156.539062 198.347656 L 156.539062 133.320312 Z M 159.054688 133.320312 " fill-opacity="1" fill-rule="nonzero"/><path fill="#f04033" d="M 168.878906 185.609375 C 168.578125 185.304688 168.15625 185.117188 167.6875 185.117188 C 167.21875 185.117188 166.796875 185.304688 166.496094 185.609375 L 166.496094 185.613281 C 166.1875 185.917969 166 186.339844 166 186.808594 C 166 187.273438 166.1875 187.695312 166.496094 188 C 166.800781 188.304688 167.222656 188.496094 167.6875 188.496094 C 168.152344 188.496094 168.574219 188.304688 168.878906 188 L 168.886719 188 C 169.1875 187.699219 169.375 187.277344 169.375 186.808594 C 169.375 186.339844 169.1875 185.914062 168.886719 185.613281 Z M 168.636719 107 L 166.734375 107 L 166.734375 108.902344 L 168.636719 108.902344 Z M 165.480469 104.488281 L 171.152344 104.488281 L 171.152344 111.417969 L 168.945312 111.417969 L 168.945312 128.449219 L 166.429688 128.449219 L 166.429688 111.417969 L 164.222656 111.417969 L 164.222656 104.488281 Z M 168.945312 133.320312 L 168.945312 182.796875 C 169.59375 183.003906 170.179688 183.363281 170.652344 183.835938 L 170.65625 183.839844 C 171.417969 184.605469 171.886719 185.652344 171.886719 186.808594 C 171.886719 187.960938 171.417969 189.011719 170.652344 189.773438 C 169.898438 190.539062 168.84375 191.007812 167.6875 191.007812 C 166.527344 191.007812 165.480469 190.539062 164.71875 189.777344 C 163.957031 189.015625 163.488281 187.96875 163.488281 186.808594 C 163.488281 185.644531 163.957031 184.597656 164.71875 183.835938 C 165.195312 183.363281 165.777344 183.003906 166.429688 182.796875 L 166.429688 133.320312 Z M 168.945312 133.320312 " fill-opacity="1" fill-rule="nonzero"/><path fill="#f58229" d="M 178.769531 223.152344 C 178.472656 222.851562 178.046875 222.664062 177.578125 222.664062 C 177.109375 222.664062 176.6875 222.851562 176.386719 223.152344 L 176.386719 223.15625 C 176.082031 223.460938 175.890625 223.886719 175.890625 224.351562 C 175.890625 224.816406 176.082031 225.238281 176.386719 225.546875 C 176.691406 225.851562 177.113281 226.039062 177.578125 226.039062 C 178.042969 226.039062 178.464844 225.851562 178.769531 225.546875 L 178.777344 225.546875 C 179.078125 225.242188 179.265625 224.820312 179.265625 224.351562 C 179.265625 223.882812 179.078125 223.460938 178.777344 223.15625 Z M 178.53125 93.46875 L 176.625 93.46875 L 176.625 95.371094 L 178.53125 95.371094 Z M 175.371094 90.953125 L 181.042969 90.953125 L 181.042969 97.882812 L 178.835938 97.882812 L 178.835938 128.449219 L 176.320312 128.449219 L 176.320312 97.882812 L 174.113281 97.882812 L 174.113281 90.953125 Z M 178.835938 133.320312 L 178.835938 220.339844 C 179.488281 220.546875 180.070312 220.90625 180.542969 221.378906 L 180.546875 221.382812 C 181.308594 222.148438 181.78125 223.195312 181.78125 224.351562 C 181.78125 225.503906 181.308594 226.554688 180.546875 227.316406 C 179.789062 228.082031 178.738281 228.550781 177.578125 228.550781 C 176.421875 228.550781 175.371094 228.082031 174.609375 227.320312 C 173.847656 226.558594 173.378906 225.507812 173.378906 224.351562 C 173.378906 223.191406 173.847656 222.136719 174.609375 221.378906 C 175.085938 220.90625 175.667969 220.546875 176.324219 220.339844 L 176.324219 133.320312 Z M 178.835938 133.320312 " fill-opacity="1" fill-rule="nonzero"/><g clip-path="url(#31cb1c7f92)"><path fill="#fbb811" d="M 188.660156 232.261719 C 188.363281 231.960938 187.941406 231.773438 187.46875 231.773438 C 187 231.773438 186.578125 231.960938 186.277344 232.261719 L 186.277344 232.269531 C 185.972656 232.574219 185.78125 232.996094 185.78125 233.460938 C 185.78125 233.925781 185.972656 234.347656 186.277344 234.652344 C 186.582031 234.960938 187.003906 235.148438 187.46875 235.148438 C 187.933594 235.148438 188.359375 234.960938 188.660156 234.652344 L 188.667969 234.652344 C 188.972656 234.355469 189.15625 233.929688 189.15625 233.460938 C 189.15625 232.992188 188.96875 232.570312 188.667969 232.269531 Z M 188.421875 90.183594 L 186.519531 90.183594 L 186.519531 92.085938 L 188.421875 92.085938 Z M 185.261719 87.667969 L 190.933594 87.667969 L 190.933594 94.601562 L 188.726562 94.601562 L 188.726562 128.449219 L 186.210938 128.449219 L 186.210938 94.601562 L 184.007812 94.601562 L 184.007812 87.667969 Z M 188.726562 133.320312 L 188.726562 229.453125 C 189.378906 229.65625 189.960938 230.019531 190.433594 230.492188 L 190.4375 230.496094 C 191.199219 231.257812 191.671875 232.308594 191.671875 233.460938 C 191.671875 234.617188 191.199219 235.667969 190.4375 236.429688 C 189.679688 237.191406 188.628906 237.664062 187.46875 237.664062 C 186.3125 237.664062 185.261719 237.191406 184.5 236.433594 C 183.738281 235.671875 183.269531 234.621094 183.269531 233.460938 C 183.269531 232.300781 183.738281 231.25 184.5 230.492188 C 184.976562 230.019531 185.558594 229.65625 186.214844 229.453125 L 186.214844 133.320312 Z M 188.726562 133.320312 " fill-opacity="1" fill-rule="nonzero"/></g><path fill="#88c63f" d="M 198.554688 214.789062 C 198.253906 214.484375 197.828125 214.296875 197.359375 214.296875 C 196.890625 214.296875 196.46875 214.484375 196.167969 214.789062 L 196.167969 214.792969 C 195.863281 215.097656 195.671875 215.519531 195.671875 215.988281 C 195.671875 216.453125 195.863281 216.875 196.167969 217.179688 C 196.472656 217.488281 196.894531 217.675781 197.359375 217.675781 C 197.824219 217.675781 198.25 217.488281 198.554688 217.179688 L 198.558594 217.179688 C 198.859375 216.878906 199.046875 216.457031 199.046875 215.988281 C 199.046875 215.515625 198.859375 215.09375 198.558594 214.792969 Z M 198.3125 96.484375 L 196.410156 96.484375 L 196.410156 98.386719 L 198.3125 98.386719 Z M 195.152344 93.96875 L 200.824219 93.96875 L 200.824219 100.898438 L 198.617188 100.898438 L 198.617188 128.449219 L 196.105469 128.449219 L 196.105469 100.898438 L 193.898438 100.898438 L 193.898438 93.96875 Z M 198.617188 133.320312 L 198.617188 211.976562 C 199.269531 212.183594 199.851562 212.542969 200.324219 213.015625 L 200.328125 213.019531 C 201.089844 213.785156 201.5625 214.832031 201.5625 215.988281 C 201.5625 217.140625 201.089844 218.191406 200.328125 218.953125 C 199.570312 219.714844 198.519531 220.1875 197.359375 220.1875 C 196.203125 220.1875 195.152344 219.714844 194.390625 218.957031 C 193.628906 218.195312 193.160156 217.144531 193.160156 215.984375 C 193.160156 214.828125 193.628906 213.773438 194.390625 213.015625 C 194.867188 212.542969 195.453125 212.183594 196.105469 211.976562 L 196.105469 133.320312 Z M 198.617188 133.320312 " fill-opacity="1" fill-rule="nonzero"/><path fill="#05afaf" d="M 208.445312 178.542969 C 208.144531 178.238281 207.722656 178.050781 207.25 178.050781 C 206.78125 178.050781 206.359375 178.238281 206.058594 178.542969 L 206.058594 178.546875 C 205.753906 178.851562 205.5625 179.273438 205.5625 179.742188 C 205.5625 180.207031 205.753906 180.628906 206.058594 180.933594 C 206.363281 181.238281 206.785156 181.429688 207.25 181.429688 C 207.714844 181.429688 208.136719 181.238281 208.445312 180.933594 L 208.449219 180.933594 C 208.75 180.632812 208.9375 180.210938 208.9375 179.742188 C 208.9375 179.269531 208.75 178.847656 208.449219 178.546875 Z M 208.203125 109.550781 L 206.300781 109.550781 L 206.300781 111.449219 L 208.203125 111.449219 Z M 205.042969 107.035156 L 210.714844 107.035156 L 210.714844 113.964844 L 208.507812 113.964844 L 208.507812 128.449219 L 205.996094 128.449219 L 205.996094 113.964844 L 203.789062 113.964844 L 203.789062 107.035156 Z M 208.507812 133.320312 L 208.507812 175.730469 C 209.160156 175.9375 209.742188 176.296875 210.214844 176.769531 L 210.21875 176.773438 C 210.980469 177.535156 211.453125 178.585938 211.453125 179.738281 C 211.453125 180.894531 210.980469 181.945312 210.21875 182.707031 C 209.460938 183.46875 208.410156 183.941406 207.25 183.941406 C 206.089844 183.941406 205.042969 183.46875 204.28125 182.710938 C 203.523438 181.949219 203.050781 180.898438 203.050781 179.738281 C 203.050781 178.578125 203.523438 177.527344 204.28125 176.769531 C 204.757812 176.296875 205.34375 175.933594 205.996094 175.730469 L 205.996094 133.320312 Z M 208.507812 133.320312 " fill-opacity="1" fill-rule="nonzero"/><path fill="#0378be" d="M 218.335938 188.59375 C 218.035156 188.292969 217.613281 188.105469 217.144531 188.105469 C 216.675781 188.105469 216.253906 188.292969 215.949219 188.59375 L 215.949219 188.597656 C 215.644531 188.902344 215.457031 189.328125 215.457031 189.792969 C 215.457031 190.261719 215.644531 190.683594 215.949219 190.988281 C 216.253906 191.292969 216.675781 191.480469 217.144531 191.480469 C 217.609375 191.480469 218.03125 191.292969 218.335938 190.988281 L 218.339844 190.988281 C 218.644531 190.683594 218.828125 190.261719 218.828125 189.792969 C 218.828125 189.324219 218.644531 188.902344 218.339844 188.597656 Z M 218.09375 105.925781 L 216.191406 105.925781 L 216.191406 107.828125 L 218.09375 107.828125 Z M 214.9375 103.414062 L 220.605469 103.414062 L 220.605469 110.339844 L 218.398438 110.339844 L 218.398438 128.449219 L 215.886719 128.449219 L 215.886719 110.339844 L 213.679688 110.339844 L 213.679688 103.414062 Z M 218.398438 133.320312 L 218.398438 185.78125 C 219.050781 185.988281 219.632812 186.347656 220.109375 186.824219 L 220.113281 186.828125 C 220.871094 187.589844 221.34375 188.636719 221.34375 189.792969 C 221.34375 190.949219 220.871094 192 220.109375 192.761719 C 219.351562 193.523438 218.300781 193.996094 217.144531 193.996094 C 215.984375 193.996094 214.933594 193.523438 214.171875 192.765625 C 213.414062 192.003906 212.941406 190.953125 212.941406 189.792969 C 212.941406 188.632812 213.414062 187.582031 214.171875 186.820312 C 214.648438 186.347656 215.234375 185.988281 215.886719 185.78125 L 215.886719 133.320312 Z M 218.398438 133.320312 " fill-opacity="1" fill-rule="nonzero"/><path fill="#644c9a" d="M 228.226562 171.941406 C 227.925781 171.640625 227.5 171.453125 227.03125 171.453125 C 226.566406 171.453125 226.144531 171.640625 225.839844 171.941406 L 225.839844 171.949219 C 225.535156 172.253906 225.347656 172.675781 225.347656 173.140625 C 225.347656 173.605469 225.535156 174.03125 225.839844 174.335938 C 226.144531 174.640625 226.566406 174.832031 227.03125 174.832031 C 227.5 174.832031 227.921875 174.640625 228.226562 174.335938 L 228.234375 174.335938 C 228.53125 174.035156 228.71875 173.613281 228.71875 173.140625 C 228.71875 172.671875 228.53125 172.25 228.234375 171.949219 Z M 227.984375 111.925781 L 226.082031 111.925781 L 226.082031 113.828125 L 227.984375 113.828125 Z M 224.828125 109.414062 L 230.496094 109.414062 L 230.496094 116.34375 L 228.289062 116.34375 L 228.289062 128.449219 L 225.777344 128.449219 L 225.777344 116.34375 L 223.570312 116.34375 L 223.570312 109.414062 Z M 228.289062 133.320312 L 228.289062 169.132812 C 228.941406 169.339844 229.523438 169.699219 230 170.171875 L 230.003906 170.175781 C 230.761719 170.9375 231.234375 171.988281 231.234375 173.140625 C 231.234375 174.296875 230.761719 175.347656 230 176.109375 C 229.242188 176.875 228.191406 177.34375 227.03125 177.34375 C 225.875 177.34375 224.824219 176.875 224.066406 176.113281 C 223.304688 175.351562 222.835938 174.300781 222.835938 173.140625 C 222.835938 171.980469 223.304688 170.929688 224.066406 170.171875 C 224.539062 169.699219 225.125 169.335938 225.777344 169.132812 L 225.777344 133.320312 Z M 228.289062 133.320312 " fill-opacity="1" fill-rule="nonzero"/><path fill="#c52f90" d="M 238.117188 159.6875 C 237.816406 159.386719 237.394531 159.199219 236.925781 159.199219 C 236.457031 159.199219 236.035156 159.386719 235.730469 159.6875 L 235.730469 159.695312 C 235.425781 160 235.238281 160.421875 235.238281 160.886719 C 235.238281 161.355469 235.425781 161.777344 235.730469 162.082031 C 236.039062 162.386719 236.457031 162.578125 236.925781 162.578125 C 237.390625 162.578125 237.8125 162.386719 238.117188 162.082031 L 238.121094 162.082031 C 238.425781 161.78125 238.613281 161.355469 238.613281 160.886719 C 238.613281 160.417969 238.425781 159.996094 238.121094 159.695312 Z M 237.875 116.34375 L 235.972656 116.34375 L 235.972656 118.246094 L 237.875 118.246094 Z M 234.71875 113.832031 L 240.386719 113.832031 L 240.386719 120.761719 L 238.179688 120.761719 L 238.179688 128.449219 L 235.667969 128.449219 L 235.667969 120.761719 L 233.460938 120.761719 L 233.460938 113.832031 Z M 238.179688 133.320312 L 238.179688 156.878906 C 238.832031 157.085938 239.414062 157.445312 239.890625 157.917969 L 239.894531 157.921875 C 240.652344 158.683594 241.125 159.734375 241.125 160.886719 C 241.125 162.042969 240.652344 163.09375 239.890625 163.855469 C 239.136719 164.617188 238.085938 165.089844 236.925781 165.089844 C 235.765625 165.089844 234.714844 164.617188 233.953125 163.859375 C 233.195312 163.097656 232.726562 162.046875 232.726562 160.886719 C 232.726562 159.726562 233.195312 158.675781 233.953125 157.917969 C 234.429688 157.445312 235.015625 157.082031 235.667969 156.878906 L 235.667969 133.320312 Z M 238.179688 133.320312 " fill-opacity="1" fill-rule="nonzero"/><g clip-path="url(#c1c6deadd8)"><path fill="#f58229" d="M 124.503906 132.0625 L 250.433594 132.0625 L 250.433594 134.578125 L 124.503906 134.578125 Z M 124.503906 132.0625 " fill-opacity="1" fill-rule="nonzero"/></g><g fill="#333333" fill-opacity="1"><g transform="translate(57.766889, 261.451272)"><g><path d="M 7.84375 0 L 5.796875 0 L 5.796875 -15.796875 L 0.21875 -15.796875 L 0.21875 -17.609375 L 13.421875 -17.609375 L 13.421875 -15.796875 L 7.84375 -15.796875 Z M 7.84375 0 "/></g></g></g><g fill="#333333" fill-opacity="1"><g transform="translate(73.215415, 261.451272)"><g><path d="M 11.15625 0 L 11.15625 -8.546875 C 11.15625 -9.617188 10.910156 -10.421875 10.421875 -10.953125 C 9.929688 -11.484375 9.164062 -11.75 8.125 -11.75 C 6.726562 -11.75 5.710938 -11.367188 5.078125 -10.609375 C 4.441406 -9.859375 4.125 -8.625 4.125 -6.90625 L 4.125 0 L 2.125 0 L 2.125 -18.75 L 4.125 -18.75 L 4.125 -13.078125 C 4.125 -12.390625 4.09375 -11.820312 4.03125 -11.375 L 4.140625 -11.375 C 4.535156 -12.007812 5.097656 -12.507812 5.828125 -12.875 C 6.554688 -13.238281 7.382812 -13.421875 8.3125 -13.421875 C 9.925781 -13.421875 11.132812 -13.035156 11.9375 -12.265625 C 12.75 -11.503906 13.15625 -10.285156 13.15625 -8.609375 L 13.15625 0 Z M 11.15625 0 "/></g></g></g><g fill="#333333" fill-opacity="1"><g transform="translate(90.157509, 261.451272)"><g><path d="M 7.703125 0.234375 C 5.742188 0.234375 4.203125 -0.359375 3.078125 -1.546875 C 1.953125 -2.734375 1.390625 -4.382812 1.390625 -6.5 C 1.390625 -8.625 1.910156 -10.3125 2.953125 -11.5625 C 4.003906 -12.8125 5.414062 -13.4375 7.1875 -13.4375 C 8.832031 -13.4375 10.132812 -12.890625 11.09375 -11.796875 C 12.0625 -10.710938 12.546875 -9.28125 12.546875 -7.5 L 12.546875 -6.234375 L 3.453125 -6.234375 C 3.492188 -4.691406 3.882812 -3.515625 4.625 -2.703125 C 5.375 -1.898438 6.421875 -1.5 7.765625 -1.5 C 9.191406 -1.5 10.597656 -1.796875 11.984375 -2.390625 L 11.984375 -0.609375 C 11.273438 -0.304688 10.601562 -0.09375 9.96875 0.03125 C 9.34375 0.164062 8.585938 0.234375 7.703125 0.234375 Z M 7.15625 -11.765625 C 6.09375 -11.765625 5.242188 -11.421875 4.609375 -10.734375 C 3.984375 -10.046875 3.613281 -9.085938 3.5 -7.859375 L 10.40625 -7.859375 C 10.40625 -9.128906 10.125 -10.097656 9.5625 -10.765625 C 9 -11.429688 8.195312 -11.765625 7.15625 -11.765625 Z M 7.15625 -11.765625 "/></g></g></g><g fill="#333333" fill-opacity="1"><g transform="translate(105.798752, 261.451272)"><g/></g></g><g fill="#333333" fill-opacity="1"><g transform="translate(114.008285, 261.451272)"><g><path d="M 13.59375 -12.484375 C 13.59375 -10.703125 12.984375 -9.328125 11.765625 -8.359375 C 10.546875 -7.398438 8.804688 -6.921875 6.546875 -6.921875 L 4.46875 -6.921875 L 4.46875 0 L 2.421875 0 L 2.421875 -17.609375 L 6.984375 -17.609375 C 11.390625 -17.609375 13.59375 -15.898438 13.59375 -12.484375 Z M 4.46875 -8.6875 L 6.3125 -8.6875 C 8.125 -8.6875 9.4375 -8.976562 10.25 -9.5625 C 11.0625 -10.144531 11.46875 -11.085938 11.46875 -12.390625 C 11.46875 -13.546875 11.082031 -14.410156 10.3125 -14.984375 C 9.550781 -15.554688 8.367188 -15.84375 6.765625 -15.84375 L 4.46875 -15.84375 Z M 4.46875 -8.6875 "/></g></g></g><g fill="#333333" fill-opacity="1"><g transform="translate(130.661303, 261.451272)"><g><path d="M 8.140625 -13.4375 C 8.722656 -13.4375 9.25 -13.390625 9.71875 -13.296875 L 9.4375 -11.4375 C 8.894531 -11.5625 8.414062 -11.625 8 -11.625 C 6.925781 -11.625 6.007812 -11.1875 5.25 -10.3125 C 4.5 -9.445312 4.125 -8.367188 4.125 -7.078125 L 4.125 0 L 2.125 0 L 2.125 -13.203125 L 3.765625 -13.203125 L 4 -10.75 L 4.09375 -10.75 C 4.582031 -11.613281 5.171875 -12.273438 5.859375 -12.734375 C 6.554688 -13.203125 7.316406 -13.4375 8.140625 -13.4375 Z M 8.140625 -13.4375 "/></g></g></g><g fill="#333333" fill-opacity="1"><g transform="translate(142.532488, 261.451272)"><g><path d="M 13.515625 -6.609375 C 13.515625 -4.460938 12.972656 -2.785156 11.890625 -1.578125 C 10.804688 -0.367188 9.304688 0.234375 7.390625 0.234375 C 6.210938 0.234375 5.164062 -0.0390625 4.25 -0.59375 C 3.332031 -1.144531 2.625 -1.9375 2.125 -2.96875 C 1.632812 -4.007812 1.390625 -5.222656 1.390625 -6.609375 C 1.390625 -8.765625 1.925781 -10.441406 3 -11.640625 C 4.070312 -12.835938 5.566406 -13.4375 7.484375 -13.4375 C 9.328125 -13.4375 10.789062 -12.820312 11.875 -11.59375 C 12.96875 -10.375 13.515625 -8.710938 13.515625 -6.609375 Z M 3.453125 -6.609375 C 3.453125 -4.921875 3.789062 -3.632812 4.46875 -2.75 C 5.144531 -1.875 6.132812 -1.4375 7.4375 -1.4375 C 8.75 -1.4375 9.742188 -1.875 10.421875 -2.75 C 11.097656 -3.632812 11.4375 -4.921875 11.4375 -6.609375 C 11.4375 -8.285156 11.097656 -9.5625 10.421875 -10.4375 C 9.742188 -11.3125 8.742188 -11.75 7.421875 -11.75 C 6.109375 -11.75 5.117188 -11.316406 4.453125 -10.453125 C 3.785156 -9.597656 3.453125 -8.316406 3.453125 -6.609375 Z M 3.453125 -6.609375 "/></g></g></g><g fill="#333333" fill-opacity="1"><g transform="translate(159.233679, 261.451272)"><g><path d="M 11.109375 -1.765625 L 11 -1.765625 C 10.070312 -0.429688 8.691406 0.234375 6.859375 0.234375 C 5.128906 0.234375 3.785156 -0.351562 2.828125 -1.53125 C 1.867188 -2.707031 1.390625 -4.382812 1.390625 -6.5625 C 1.390625 -8.738281 1.867188 -10.425781 2.828125 -11.625 C 3.796875 -12.832031 5.140625 -13.4375 6.859375 -13.4375 C 8.648438 -13.4375 10.019531 -12.789062 10.96875 -11.5 L 11.125 -11.5 L 11.046875 -12.4375 L 11 -13.375 L 11 -18.75 L 13 -18.75 L 13 0 L 11.375 0 Z M 7.109375 -1.4375 C 8.472656 -1.4375 9.460938 -1.804688 10.078125 -2.546875 C 10.691406 -3.285156 11 -4.484375 11 -6.140625 L 11 -6.5625 C 11 -8.4375 10.6875 -9.769531 10.0625 -10.5625 C 9.4375 -11.363281 8.441406 -11.765625 7.078125 -11.765625 C 5.910156 -11.765625 5.015625 -11.304688 4.390625 -10.390625 C 3.765625 -9.484375 3.453125 -8.203125 3.453125 -6.546875 C 3.453125 -4.859375 3.757812 -3.582031 4.375 -2.71875 C 5 -1.863281 5.910156 -1.4375 7.109375 -1.4375 Z M 7.109375 -1.4375 "/></g></g></g><g fill="#333333" fill-opacity="1"><g transform="translate(176.151685, 261.451272)"><g><path d="M 4 -13.203125 L 4 -4.640625 C 4 -3.566406 4.242188 -2.765625 4.734375 -2.234375 C 5.222656 -1.703125 5.988281 -1.4375 7.03125 -1.4375 C 8.414062 -1.4375 9.425781 -1.8125 10.0625 -2.5625 C 10.695312 -3.320312 11.015625 -4.554688 11.015625 -6.265625 L 11.015625 -13.203125 L 13.015625 -13.203125 L 13.015625 0 L 11.375 0 L 11.078125 -1.765625 L 10.96875 -1.765625 C 10.5625 -1.117188 9.992188 -0.625 9.265625 -0.28125 C 8.546875 0.0625 7.71875 0.234375 6.78125 0.234375 C 5.175781 0.234375 3.972656 -0.144531 3.171875 -0.90625 C 2.367188 -1.664062 1.96875 -2.882812 1.96875 -4.5625 L 1.96875 -13.203125 Z M 4 -13.203125 "/></g></g></g><g fill="#333333" fill-opacity="1"><g transform="translate(193.093781, 261.451272)"><g><path d="M 7.390625 0.234375 C 5.484375 0.234375 4.003906 -0.347656 2.953125 -1.515625 C 1.910156 -2.691406 1.390625 -4.359375 1.390625 -6.515625 C 1.390625 -8.722656 1.921875 -10.425781 2.984375 -11.625 C 4.046875 -12.832031 5.5625 -13.4375 7.53125 -13.4375 C 8.164062 -13.4375 8.800781 -13.367188 9.4375 -13.234375 C 10.070312 -13.097656 10.566406 -12.9375 10.921875 -12.75 L 10.3125 -11.0625 C 9.875 -11.238281 9.390625 -11.382812 8.859375 -11.5 C 8.335938 -11.613281 7.878906 -11.671875 7.484375 -11.671875 C 4.796875 -11.671875 3.453125 -9.960938 3.453125 -6.546875 C 3.453125 -4.921875 3.78125 -3.671875 4.4375 -2.796875 C 5.09375 -1.929688 6.0625 -1.5 7.34375 -1.5 C 8.445312 -1.5 9.578125 -1.738281 10.734375 -2.21875 L 10.734375 -0.453125 C 9.847656 0.00390625 8.734375 0.234375 7.390625 0.234375 Z M 7.390625 0.234375 "/></g></g></g><g fill="#333333" fill-opacity="1"><g transform="translate(206.639213, 261.451272)"><g><path d="M 6.390625 -1.40625 C 6.742188 -1.40625 7.082031 -1.429688 7.40625 -1.484375 C 7.738281 -1.535156 8 -1.59375 8.1875 -1.65625 L 8.1875 -0.125 C 7.96875 -0.0195312 7.648438 0.0625 7.234375 0.125 C 6.816406 0.195312 6.4375 0.234375 6.09375 0.234375 C 3.539062 0.234375 2.265625 -1.109375 2.265625 -3.796875 L 2.265625 -11.65625 L 0.375 -11.65625 L 0.375 -12.609375 L 2.265625 -13.4375 L 3.109375 -16.265625 L 4.265625 -16.265625 L 4.265625 -13.203125 L 8.09375 -13.203125 L 8.09375 -11.65625 L 4.265625 -11.65625 L 4.265625 -3.875 C 4.265625 -3.082031 4.453125 -2.472656 4.828125 -2.046875 C 5.203125 -1.617188 5.722656 -1.40625 6.390625 -1.40625 Z M 6.390625 -1.40625 "/></g></g></g><g fill="#333333" fill-opacity="1"><g transform="translate(217.149328, 261.451272)"><g/></g></g><g fill="#333333" fill-opacity="1"><g transform="translate(225.358862, 261.451272)"><g><path d="M 2.421875 0 L 2.421875 -17.609375 L 4.46875 -17.609375 L 4.46875 -1.859375 L 12.234375 -1.859375 L 12.234375 0 Z M 2.421875 0 "/></g></g></g><g fill="#333333" fill-opacity="1"><g transform="translate(239.964245, 261.451272)"><g><path d="M 7.703125 0.234375 C 5.742188 0.234375 4.203125 -0.359375 3.078125 -1.546875 C 1.953125 -2.734375 1.390625 -4.382812 1.390625 -6.5 C 1.390625 -8.625 1.910156 -10.3125 2.953125 -11.5625 C 4.003906 -12.8125 5.414062 -13.4375 7.1875 -13.4375 C 8.832031 -13.4375 10.132812 -12.890625 11.09375 -11.796875 C 12.0625 -10.710938 12.546875 -9.28125 12.546875 -7.5 L 12.546875 -6.234375 L 3.453125 -6.234375 C 3.492188 -4.691406 3.882812 -3.515625 4.625 -2.703125 C 5.375 -1.898438 6.421875 -1.5 7.765625 -1.5 C 9.191406 -1.5 10.597656 -1.796875 11.984375 -2.390625 L 11.984375 -0.609375 C 11.273438 -0.304688 10.601562 -0.09375 9.96875 0.03125 C 9.34375 0.164062 8.585938 0.234375 7.703125 0.234375 Z M 7.15625 -11.765625 C 6.09375 -11.765625 5.242188 -11.421875 4.609375 -10.734375 C 3.984375 -10.046875 3.613281 -9.085938 3.5 -7.859375 L 10.40625 -7.859375 C 10.40625 -9.128906 10.125 -10.097656 9.5625 -10.765625 C 9 -11.429688 8.195312 -11.765625 7.15625 -11.765625 Z M 7.15625 -11.765625 "/></g></g></g><g fill="#333333" fill-opacity="1"><g transform="translate(255.605491, 261.451272)"><g><path d="M 10.234375 0 L 9.84375 -1.875 L 9.75 -1.875 C 9.09375 -1.050781 8.4375 -0.492188 7.78125 -0.203125 C 7.125 0.0859375 6.304688 0.234375 5.328125 0.234375 C 4.015625 0.234375 2.984375 -0.0976562 2.234375 -0.765625 C 1.492188 -1.441406 1.125 -2.40625 1.125 -3.65625 C 1.125 -6.320312 3.257812 -7.71875 7.53125 -7.84375 L 9.765625 -7.921875 L 9.765625 -8.734375 C 9.765625 -9.765625 9.539062 -10.523438 9.09375 -11.015625 C 8.65625 -11.515625 7.945312 -11.765625 6.96875 -11.765625 C 5.863281 -11.765625 4.617188 -11.425781 3.234375 -10.75 L 2.609375 -12.28125 C 3.265625 -12.632812 3.976562 -12.910156 4.75 -13.109375 C 5.53125 -13.316406 6.304688 -13.421875 7.078125 -13.421875 C 8.648438 -13.421875 9.816406 -13.070312 10.578125 -12.375 C 11.335938 -11.675781 11.71875 -10.554688 11.71875 -9.015625 L 11.71875 0 Z M 5.71875 -1.40625 C 6.96875 -1.40625 7.945312 -1.742188 8.65625 -2.421875 C 9.363281 -3.109375 9.71875 -4.066406 9.71875 -5.296875 L 9.71875 -6.5 L 7.71875 -6.40625 C 6.132812 -6.351562 4.988281 -6.109375 4.28125 -5.671875 C 3.582031 -5.234375 3.234375 -4.550781 3.234375 -3.625 C 3.234375 -2.90625 3.453125 -2.351562 3.890625 -1.96875 C 4.328125 -1.59375 4.9375 -1.40625 5.71875 -1.40625 Z M 5.71875 -1.40625 "/></g></g></g><g fill="#333333" fill-opacity="1"><g transform="translate(271.126288, 261.451272)"><g><path d="M 12.921875 -13.203125 L 12.921875 -11.9375 L 10.484375 -11.65625 C 10.703125 -11.375 10.898438 -11.003906 11.078125 -10.546875 C 11.253906 -10.085938 11.34375 -9.578125 11.34375 -9.015625 C 11.34375 -7.722656 10.898438 -6.691406 10.015625 -5.921875 C 9.140625 -5.148438 7.929688 -4.765625 6.390625 -4.765625 C 5.992188 -4.765625 5.625 -4.796875 5.28125 -4.859375 C 4.425781 -4.410156 4 -3.84375 4 -3.15625 C 4 -2.789062 4.144531 -2.519531 4.4375 -2.34375 C 4.738281 -2.175781 5.25 -2.09375 5.96875 -2.09375 L 8.3125 -2.09375 C 9.738281 -2.09375 10.832031 -1.789062 11.59375 -1.1875 C 12.363281 -0.59375 12.75 0.28125 12.75 1.4375 C 12.75 2.894531 12.160156 4.003906 10.984375 4.765625 C 9.816406 5.535156 8.109375 5.921875 5.859375 5.921875 C 4.140625 5.921875 2.8125 5.597656 1.875 4.953125 C 0.9375 4.316406 0.46875 3.410156 0.46875 2.234375 C 0.46875 1.429688 0.722656 0.738281 1.234375 0.15625 C 1.753906 -0.425781 2.476562 -0.820312 3.40625 -1.03125 C 3.070312 -1.1875 2.789062 -1.425781 2.5625 -1.75 C 2.332031 -2.070312 2.21875 -2.441406 2.21875 -2.859375 C 2.21875 -3.347656 2.34375 -3.769531 2.59375 -4.125 C 2.851562 -4.488281 3.257812 -4.84375 3.8125 -5.1875 C 3.132812 -5.46875 2.578125 -5.941406 2.140625 -6.609375 C 1.710938 -7.285156 1.5 -8.054688 1.5 -8.921875 C 1.5 -10.367188 1.929688 -11.484375 2.796875 -12.265625 C 3.671875 -13.046875 4.90625 -13.4375 6.5 -13.4375 C 7.1875 -13.4375 7.804688 -13.359375 8.359375 -13.203125 Z M 2.390625 2.21875 C 2.390625 2.925781 2.691406 3.460938 3.296875 3.828125 C 3.898438 4.203125 4.765625 4.390625 5.890625 4.390625 C 7.566406 4.390625 8.804688 4.140625 9.609375 3.640625 C 10.421875 3.140625 10.828125 2.460938 10.828125 1.609375 C 10.828125 0.890625 10.601562 0.390625 10.15625 0.109375 C 9.71875 -0.160156 8.890625 -0.296875 7.671875 -0.296875 L 5.28125 -0.296875 C 4.375 -0.296875 3.664062 -0.0820312 3.15625 0.34375 C 2.644531 0.78125 2.390625 1.40625 2.390625 2.21875 Z M 3.484375 -8.96875 C 3.484375 -8.050781 3.742188 -7.351562 4.265625 -6.875 C 4.785156 -6.40625 5.507812 -6.171875 6.4375 -6.171875 C 8.394531 -6.171875 9.375 -7.117188 9.375 -9.015625 C 9.375 -10.992188 8.382812 -11.984375 6.40625 -11.984375 C 5.46875 -11.984375 4.742188 -11.726562 4.234375 -11.21875 C 3.734375 -10.71875 3.484375 -9.96875 3.484375 -8.96875 Z M 3.484375 -8.96875 "/></g></g></g><g fill="#333333" fill-opacity="1"><g transform="translate(286.442304, 261.451272)"><g><path d="M 4 -13.203125 L 4 -4.640625 C 4 -3.566406 4.242188 -2.765625 4.734375 -2.234375 C 5.222656 -1.703125 5.988281 -1.4375 7.03125 -1.4375 C 8.414062 -1.4375 9.425781 -1.8125 10.0625 -2.5625 C 10.695312 -3.320312 11.015625 -4.554688 11.015625 -6.265625 L 11.015625 -13.203125 L 13.015625 -13.203125 L 13.015625 0 L 11.375 0 L 11.078125 -1.765625 L 10.96875 -1.765625 C 10.5625 -1.117188 9.992188 -0.625 9.265625 -0.28125 C 8.546875 0.0625 7.71875 0.234375 6.78125 0.234375 C 5.175781 0.234375 3.972656 -0.144531 3.171875 -0.90625 C 2.367188 -1.664062 1.96875 -2.882812 1.96875 -4.5625 L 1.96875 -13.203125 Z M 4 -13.203125 "/></g></g></g><g fill="#333333" fill-opacity="1"><g transform="translate(303.384388, 261.451272)"><g><path d="M 7.703125 0.234375 C 5.742188 0.234375 4.203125 -0.359375 3.078125 -1.546875 C 1.953125 -2.734375 1.390625 -4.382812 1.390625 -6.5 C 1.390625 -8.625 1.910156 -10.3125 2.953125 -11.5625 C 4.003906 -12.8125 5.414062 -13.4375 7.1875 -13.4375 C 8.832031 -13.4375 10.132812 -12.890625 11.09375 -11.796875 C 12.0625 -10.710938 12.546875 -9.28125 12.546875 -7.5 L 12.546875 -6.234375 L 3.453125 -6.234375 C 3.492188 -4.691406 3.882812 -3.515625 4.625 -2.703125 C 5.375 -1.898438 6.421875 -1.5 7.765625 -1.5 C 9.191406 -1.5 10.597656 -1.796875 11.984375 -2.390625 L 11.984375 -0.609375 C 11.273438 -0.304688 10.601562 -0.09375 9.96875 0.03125 C 9.34375 0.164062 8.585938 0.234375 7.703125 0.234375 Z M 7.15625 -11.765625 C 6.09375 -11.765625 5.242188 -11.421875 4.609375 -10.734375 C 3.984375 -10.046875 3.613281 -9.085938 3.5 -7.859375 L 10.40625 -7.859375 C 10.40625 -9.128906 10.125 -10.097656 9.5625 -10.765625 C 9 -11.429688 8.195312 -11.765625 7.15625 -11.765625 Z M 7.15625 -11.765625 "/></g></g></g><g fill="#000000" fill-opacity="1"><g transform="translate(100.874632, 285.837521)"><g><path d="M 6.515625 -5.984375 C 6.515625 -5.128906 6.222656 -4.472656 5.640625 -4.015625 C 5.054688 -3.554688 4.222656 -3.328125 3.140625 -3.328125 L 2.140625 -3.328125 L 2.140625 0 L 1.15625 0 L 1.15625 -8.4375 L 3.34375 -8.4375 C 5.457031 -8.4375 6.515625 -7.617188 6.515625 -5.984375 Z M 2.140625 -4.171875 L 3.03125 -4.171875 C 3.894531 -4.171875 4.519531 -4.304688 4.90625 -4.578125 C 5.300781 -4.859375 5.5 -5.3125 5.5 -5.9375 C 5.5 -6.5 5.316406 -6.914062 4.953125 -7.1875 C 4.585938 -7.457031 4.015625 -7.59375 3.234375 -7.59375 L 2.140625 -7.59375 Z M 2.140625 -4.171875 "/></g></g></g><g fill="#000000" fill-opacity="1"><g transform="translate(108.857218, 285.837521)"><g><path d="M 3.90625 -6.453125 C 4.1875 -6.453125 4.4375 -6.425781 4.65625 -6.375 L 4.53125 -5.484375 C 4.269531 -5.546875 4.035156 -5.578125 3.828125 -5.578125 C 3.316406 -5.578125 2.878906 -5.367188 2.515625 -4.953125 C 2.148438 -4.535156 1.96875 -4.015625 1.96875 -3.390625 L 1.96875 0 L 1.015625 0 L 1.015625 -6.328125 L 1.8125 -6.328125 L 1.921875 -5.15625 L 1.96875 -5.15625 C 2.195312 -5.570312 2.476562 -5.890625 2.8125 -6.109375 C 3.144531 -6.335938 3.507812 -6.453125 3.90625 -6.453125 Z M 3.90625 -6.453125 "/></g></g></g><g fill="#000000" fill-opacity="1"><g transform="translate(114.547703, 285.837521)"><g><path d="M 3.6875 0.109375 C 2.75 0.109375 2.007812 -0.171875 1.46875 -0.734375 C 0.9375 -1.304688 0.671875 -2.097656 0.671875 -3.109375 C 0.671875 -4.128906 0.921875 -4.941406 1.421875 -5.546875 C 1.921875 -6.148438 2.59375 -6.453125 3.4375 -6.453125 C 4.226562 -6.453125 4.851562 -6.1875 5.3125 -5.65625 C 5.78125 -5.132812 6.015625 -4.445312 6.015625 -3.59375 L 6.015625 -2.984375 L 1.65625 -2.984375 C 1.675781 -2.242188 1.863281 -1.679688 2.21875 -1.296875 C 2.570312 -0.910156 3.070312 -0.71875 3.71875 -0.71875 C 4.40625 -0.71875 5.082031 -0.863281 5.75 -1.15625 L 5.75 -0.296875 C 5.40625 -0.148438 5.082031 -0.046875 4.78125 0.015625 C 4.476562 0.078125 4.113281 0.109375 3.6875 0.109375 Z M 3.4375 -5.640625 C 2.925781 -5.640625 2.519531 -5.472656 2.21875 -5.140625 C 1.914062 -4.816406 1.738281 -4.359375 1.6875 -3.765625 L 4.984375 -3.765625 C 4.984375 -4.367188 4.847656 -4.832031 4.578125 -5.15625 C 4.316406 -5.476562 3.9375 -5.640625 3.4375 -5.640625 Z M 3.4375 -5.640625 "/></g></g></g><g fill="#000000" fill-opacity="1"><g transform="translate(122.045312, 285.837521)"><g><path d="M 3.96875 0.109375 C 3.550781 0.109375 3.171875 0.0351562 2.828125 -0.109375 C 2.492188 -0.265625 2.207031 -0.5 1.96875 -0.8125 L 1.90625 -0.8125 C 1.945312 -0.445312 1.96875 -0.0976562 1.96875 0.234375 L 1.96875 2.84375 L 1.015625 2.84375 L 1.015625 -6.328125 L 1.796875 -6.328125 L 1.921875 -5.46875 L 1.96875 -5.46875 C 2.21875 -5.8125 2.503906 -6.0625 2.828125 -6.21875 C 3.160156 -6.375 3.539062 -6.453125 3.96875 -6.453125 C 4.800781 -6.453125 5.445312 -6.160156 5.90625 -5.578125 C 6.363281 -5.003906 6.59375 -4.203125 6.59375 -3.171875 C 6.59375 -2.128906 6.359375 -1.320312 5.890625 -0.75 C 5.429688 -0.175781 4.789062 0.109375 3.96875 0.109375 Z M 3.828125 -5.625 C 3.179688 -5.625 2.710938 -5.445312 2.421875 -5.09375 C 2.128906 -4.738281 1.976562 -4.171875 1.96875 -3.390625 L 1.96875 -3.171875 C 1.96875 -2.285156 2.113281 -1.648438 2.40625 -1.265625 C 2.707031 -0.878906 3.1875 -0.6875 3.84375 -0.6875 C 4.394531 -0.6875 4.820312 -0.90625 5.125 -1.34375 C 5.4375 -1.789062 5.59375 -2.40625 5.59375 -3.1875 C 5.59375 -3.96875 5.4375 -4.566406 5.125 -4.984375 C 4.820312 -5.410156 4.390625 -5.625 3.828125 -5.625 Z M 3.828125 -5.625 "/></g></g></g><g fill="#000000" fill-opacity="1"><g transform="translate(130.154917, 285.837521)"><g><path d="M 4.90625 0 L 4.71875 -0.90625 L 4.671875 -0.90625 C 4.359375 -0.507812 4.039062 -0.238281 3.71875 -0.09375 C 3.40625 0.0390625 3.015625 0.109375 2.546875 0.109375 C 1.921875 0.109375 1.429688 -0.0507812 1.078125 -0.375 C 0.722656 -0.695312 0.546875 -1.15625 0.546875 -1.75 C 0.546875 -3.03125 1.566406 -3.703125 3.609375 -3.765625 L 4.6875 -3.796875 L 4.6875 -4.1875 C 4.6875 -4.6875 4.578125 -5.050781 4.359375 -5.28125 C 4.148438 -5.519531 3.8125 -5.640625 3.34375 -5.640625 C 2.8125 -5.640625 2.210938 -5.476562 1.546875 -5.15625 L 1.25 -5.890625 C 1.5625 -6.054688 1.898438 -6.1875 2.265625 -6.28125 C 2.640625 -6.382812 3.015625 -6.4375 3.390625 -6.4375 C 4.148438 -6.4375 4.710938 -6.265625 5.078125 -5.921875 C 5.441406 -5.585938 5.625 -5.050781 5.625 -4.3125 L 5.625 0 Z M 2.75 -0.671875 C 3.34375 -0.671875 3.804688 -0.832031 4.140625 -1.15625 C 4.484375 -1.488281 4.65625 -1.953125 4.65625 -2.546875 L 4.65625 -3.109375 L 3.703125 -3.078125 C 2.941406 -3.046875 2.390625 -2.925781 2.046875 -2.71875 C 1.710938 -2.507812 1.546875 -2.179688 1.546875 -1.734375 C 1.546875 -1.390625 1.648438 -1.125 1.859375 -0.9375 C 2.066406 -0.757812 2.363281 -0.671875 2.75 -0.671875 Z M 2.75 -0.671875 "/></g></g></g><g fill="#000000" fill-opacity="1"><g transform="translate(137.594789, 285.837521)"><g><path d="M 3.90625 -6.453125 C 4.1875 -6.453125 4.4375 -6.425781 4.65625 -6.375 L 4.53125 -5.484375 C 4.269531 -5.546875 4.035156 -5.578125 3.828125 -5.578125 C 3.316406 -5.578125 2.878906 -5.367188 2.515625 -4.953125 C 2.148438 -4.535156 1.96875 -4.015625 1.96875 -3.390625 L 1.96875 0 L 1.015625 0 L 1.015625 -6.328125 L 1.8125 -6.328125 L 1.921875 -5.15625 L 1.96875 -5.15625 C 2.195312 -5.570312 2.476562 -5.890625 2.8125 -6.109375 C 3.144531 -6.335938 3.507812 -6.453125 3.90625 -6.453125 Z M 3.90625 -6.453125 "/></g></g></g><g fill="#000000" fill-opacity="1"><g transform="translate(143.285272, 285.837521)"><g><path d="M 3.6875 0.109375 C 2.75 0.109375 2.007812 -0.171875 1.46875 -0.734375 C 0.9375 -1.304688 0.671875 -2.097656 0.671875 -3.109375 C 0.671875 -4.128906 0.921875 -4.941406 1.421875 -5.546875 C 1.921875 -6.148438 2.59375 -6.453125 3.4375 -6.453125 C 4.226562 -6.453125 4.851562 -6.1875 5.3125 -5.65625 C 5.78125 -5.132812 6.015625 -4.445312 6.015625 -3.59375 L 6.015625 -2.984375 L 1.65625 -2.984375 C 1.675781 -2.242188 1.863281 -1.679688 2.21875 -1.296875 C 2.570312 -0.910156 3.070312 -0.71875 3.71875 -0.71875 C 4.40625 -0.71875 5.082031 -0.863281 5.75 -1.15625 L 5.75 -0.296875 C 5.40625 -0.148438 5.082031 -0.046875 4.78125 0.015625 C 4.476562 0.078125 4.113281 0.109375 3.6875 0.109375 Z M 3.4375 -5.640625 C 2.925781 -5.640625 2.519531 -5.472656 2.21875 -5.140625 C 1.914062 -4.816406 1.738281 -4.359375 1.6875 -3.765625 L 4.984375 -3.765625 C 4.984375 -4.367188 4.847656 -4.832031 4.578125 -5.15625 C 4.316406 -5.476562 3.9375 -5.640625 3.4375 -5.640625 Z M 3.4375 -5.640625 "/></g></g></g><g fill="#000000" fill-opacity="1"><g transform="translate(150.782879, 285.837521)"><g><path d="M 0.875 -0.609375 C 0.875 -0.867188 0.929688 -1.0625 1.046875 -1.1875 C 1.171875 -1.320312 1.34375 -1.390625 1.5625 -1.390625 C 1.78125 -1.390625 1.953125 -1.320312 2.078125 -1.1875 C 2.203125 -1.0625 2.265625 -0.867188 2.265625 -0.609375 C 2.265625 -0.359375 2.203125 -0.164062 2.078125 -0.03125 C 1.953125 0.101562 1.78125 0.171875 1.5625 0.171875 C 1.363281 0.171875 1.195312 0.109375 1.0625 -0.015625 C 0.9375 -0.140625 0.875 -0.335938 0.875 -0.609375 Z M 0.875 -0.609375 "/></g></g></g><g fill="#000000" fill-opacity="1"><g transform="translate(154.793266, 285.837521)"><g/></g></g><g fill="#000000" fill-opacity="1"><g transform="translate(158.728592, 285.837521)"><g><path d="M 7.75 0 L 6.640625 0 L 2.015625 -7.09375 L 1.96875 -7.09375 C 2.03125 -6.257812 2.0625 -5.492188 2.0625 -4.796875 L 2.0625 0 L 1.15625 0 L 1.15625 -8.4375 L 2.265625 -8.4375 L 6.875 -1.390625 L 6.921875 -1.390625 C 6.910156 -1.492188 6.890625 -1.828125 6.859375 -2.390625 C 6.835938 -2.953125 6.832031 -3.351562 6.84375 -3.59375 L 6.84375 -8.4375 L 7.75 -8.4375 Z M 7.75 0 "/></g></g></g><g fill="#000000" fill-opacity="1"><g transform="translate(168.506743, 285.837521)"><g><path d="M 3.6875 0.109375 C 2.75 0.109375 2.007812 -0.171875 1.46875 -0.734375 C 0.9375 -1.304688 0.671875 -2.097656 0.671875 -3.109375 C 0.671875 -4.128906 0.921875 -4.941406 1.421875 -5.546875 C 1.921875 -6.148438 2.59375 -6.453125 3.4375 -6.453125 C 4.226562 -6.453125 4.851562 -6.1875 5.3125 -5.65625 C 5.78125 -5.132812 6.015625 -4.445312 6.015625 -3.59375 L 6.015625 -2.984375 L 1.65625 -2.984375 C 1.675781 -2.242188 1.863281 -1.679688 2.21875 -1.296875 C 2.570312 -0.910156 3.070312 -0.71875 3.71875 -0.71875 C 4.40625 -0.71875 5.082031 -0.863281 5.75 -1.15625 L 5.75 -0.296875 C 5.40625 -0.148438 5.082031 -0.046875 4.78125 0.015625 C 4.476562 0.078125 4.113281 0.109375 3.6875 0.109375 Z M 3.4375 -5.640625 C 2.925781 -5.640625 2.519531 -5.472656 2.21875 -5.140625 C 1.914062 -4.816406 1.738281 -4.359375 1.6875 -3.765625 L 4.984375 -3.765625 C 4.984375 -4.367188 4.847656 -4.832031 4.578125 -5.15625 C 4.316406 -5.476562 3.9375 -5.640625 3.4375 -5.640625 Z M 3.4375 -5.640625 "/></g></g></g><g fill="#000000" fill-opacity="1"><g transform="translate(176.004351, 285.837521)"><g><path d="M 3.0625 -0.671875 C 3.226562 -0.671875 3.390625 -0.679688 3.546875 -0.703125 C 3.703125 -0.734375 3.828125 -0.765625 3.921875 -0.796875 L 3.921875 -0.0625 C 3.816406 -0.0078125 3.664062 0.03125 3.46875 0.0625 C 3.269531 0.09375 3.085938 0.109375 2.921875 0.109375 C 1.691406 0.109375 1.078125 -0.53125 1.078125 -1.8125 L 1.078125 -5.578125 L 0.171875 -5.578125 L 0.171875 -6.046875 L 1.078125 -6.453125 L 1.484375 -7.796875 L 2.046875 -7.796875 L 2.046875 -6.328125 L 3.875 -6.328125 L 3.875 -5.578125 L 2.046875 -5.578125 L 2.046875 -1.859375 C 2.046875 -1.472656 2.132812 -1.175781 2.3125 -0.96875 C 2.5 -0.769531 2.75 -0.671875 3.0625 -0.671875 Z M 3.0625 -0.671875 "/></g></g></g><g fill="#000000" fill-opacity="1"><g transform="translate(181.042429, 285.837521)"><g><path d="M 6.1875 0 L 5.03125 -3.71875 C 4.957031 -3.9375 4.816406 -4.453125 4.609375 -5.265625 L 4.5625 -5.265625 C 4.414062 -4.585938 4.285156 -4.066406 4.171875 -3.703125 L 2.96875 0 L 1.859375 0 L 0.140625 -6.328125 L 1.140625 -6.328125 C 1.546875 -4.734375 1.851562 -3.519531 2.0625 -2.6875 C 2.28125 -1.863281 2.40625 -1.304688 2.4375 -1.015625 L 2.484375 -1.015625 C 2.523438 -1.234375 2.59375 -1.515625 2.6875 -1.859375 C 2.78125 -2.210938 2.863281 -2.492188 2.9375 -2.703125 L 4.09375 -6.328125 L 5.140625 -6.328125 L 6.265625 -2.703125 C 6.484375 -2.035156 6.628906 -1.476562 6.703125 -1.03125 L 6.75 -1.03125 C 6.769531 -1.164062 6.8125 -1.378906 6.875 -1.671875 C 6.945312 -1.960938 7.347656 -3.515625 8.078125 -6.328125 L 9.078125 -6.328125 L 7.328125 0 Z M 6.1875 0 "/></g></g></g><g fill="#000000" fill-opacity="1"><g transform="translate(191.10349, 285.837521)"><g><path d="M 6.484375 -3.171875 C 6.484375 -2.140625 6.222656 -1.332031 5.703125 -0.75 C 5.179688 -0.175781 4.460938 0.109375 3.546875 0.109375 C 2.984375 0.109375 2.476562 -0.0195312 2.03125 -0.28125 C 1.59375 -0.550781 1.253906 -0.929688 1.015625 -1.421875 C 0.785156 -1.921875 0.671875 -2.503906 0.671875 -3.171875 C 0.671875 -4.203125 0.925781 -5.003906 1.4375 -5.578125 C 1.957031 -6.160156 2.675781 -6.453125 3.59375 -6.453125 C 4.476562 -6.453125 5.179688 -6.15625 5.703125 -5.5625 C 6.222656 -4.96875 6.484375 -4.171875 6.484375 -3.171875 Z M 1.65625 -3.171875 C 1.65625 -2.359375 1.816406 -1.738281 2.140625 -1.3125 C 2.460938 -0.894531 2.9375 -0.6875 3.5625 -0.6875 C 4.195312 -0.6875 4.675781 -0.894531 5 -1.3125 C 5.320312 -1.738281 5.484375 -2.359375 5.484375 -3.171875 C 5.484375 -3.972656 5.320312 -4.582031 5 -5 C 4.675781 -5.414062 4.195312 -5.625 3.5625 -5.625 C 2.925781 -5.625 2.445312 -5.414062 2.125 -5 C 1.8125 -4.59375 1.65625 -3.984375 1.65625 -3.171875 Z M 1.65625 -3.171875 "/></g></g></g><g fill="#000000" fill-opacity="1"><g transform="translate(199.109176, 285.837521)"><g><path d="M 3.90625 -6.453125 C 4.1875 -6.453125 4.4375 -6.425781 4.65625 -6.375 L 4.53125 -5.484375 C 4.269531 -5.546875 4.035156 -5.578125 3.828125 -5.578125 C 3.316406 -5.578125 2.878906 -5.367188 2.515625 -4.953125 C 2.148438 -4.535156 1.96875 -4.015625 1.96875 -3.390625 L 1.96875 0 L 1.015625 0 L 1.015625 -6.328125 L 1.8125 -6.328125 L 1.921875 -5.15625 L 1.96875 -5.15625 C 2.195312 -5.570312 2.476562 -5.890625 2.8125 -6.109375 C 3.144531 -6.335938 3.507812 -6.453125 3.90625 -6.453125 Z M 3.90625 -6.453125 "/></g></g></g><g fill="#000000" fill-opacity="1"><g transform="translate(204.799658, 285.837521)"><g><path d="M 1.96875 -3.234375 C 2.132812 -3.472656 2.382812 -3.785156 2.71875 -4.171875 L 4.765625 -6.328125 L 5.90625 -6.328125 L 3.34375 -3.625 L 6.078125 0 L 4.921875 0 L 2.6875 -2.984375 L 1.96875 -2.375 L 1.96875 0 L 1.015625 0 L 1.015625 -8.984375 L 1.96875 -8.984375 L 1.96875 -4.21875 C 1.96875 -4.007812 1.953125 -3.679688 1.921875 -3.234375 Z M 1.96875 -3.234375 "/></g></g></g><g fill="#000000" fill-opacity="1"><g transform="translate(211.870024, 285.837521)"><g><path d="M 0.875 -0.609375 C 0.875 -0.867188 0.929688 -1.0625 1.046875 -1.1875 C 1.171875 -1.320312 1.34375 -1.390625 1.5625 -1.390625 C 1.78125 -1.390625 1.953125 -1.320312 2.078125 -1.1875 C 2.203125 -1.0625 2.265625 -0.867188 2.265625 -0.609375 C 2.265625 -0.359375 2.203125 -0.164062 2.078125 -0.03125 C 1.953125 0.101562 1.78125 0.171875 1.5625 0.171875 C 1.363281 0.171875 1.195312 0.109375 1.0625 -0.015625 C 0.9375 -0.140625 0.875 -0.335938 0.875 -0.609375 Z M 0.875 -0.609375 "/></g></g></g><g fill="#000000" fill-opacity="1"><g transform="translate(215.880411, 285.837521)"><g/></g></g><g fill="#000000" fill-opacity="1"><g transform="translate(219.815736, 285.837521)"><g><path d="M 1.15625 0 L 1.15625 -8.4375 L 2.140625 -8.4375 L 2.140625 0 Z M 1.15625 0 "/></g></g></g><g fill="#000000" fill-opacity="1"><g transform="translate(223.976235, 285.837521)"><g><path d="M 5.34375 0 L 5.34375 -4.09375 C 5.34375 -4.613281 5.222656 -5 4.984375 -5.25 C 4.753906 -5.5 4.390625 -5.625 3.890625 -5.625 C 3.234375 -5.625 2.75 -5.445312 2.4375 -5.09375 C 2.125 -4.738281 1.96875 -4.148438 1.96875 -3.328125 L 1.96875 0 L 1.015625 0 L 1.015625 -6.328125 L 1.796875 -6.328125 L 1.953125 -5.46875 L 2 -5.46875 C 2.195312 -5.78125 2.472656 -6.019531 2.828125 -6.1875 C 3.179688 -6.363281 3.578125 -6.453125 4.015625 -6.453125 C 4.773438 -6.453125 5.347656 -6.265625 5.734375 -5.890625 C 6.117188 -5.523438 6.3125 -4.9375 6.3125 -4.125 L 6.3125 0 Z M 5.34375 0 "/></g></g></g><g fill="#000000" fill-opacity="1"><g transform="translate(232.097386, 285.837521)"><g><path d="M 5.34375 0 L 5.34375 -4.09375 C 5.34375 -4.613281 5.222656 -5 4.984375 -5.25 C 4.753906 -5.5 4.390625 -5.625 3.890625 -5.625 C 3.234375 -5.625 2.75 -5.445312 2.4375 -5.09375 C 2.125 -4.738281 1.96875 -4.148438 1.96875 -3.328125 L 1.96875 0 L 1.015625 0 L 1.015625 -6.328125 L 1.796875 -6.328125 L 1.953125 -5.46875 L 2 -5.46875 C 2.195312 -5.78125 2.472656 -6.019531 2.828125 -6.1875 C 3.179688 -6.363281 3.578125 -6.453125 4.015625 -6.453125 C 4.773438 -6.453125 5.347656 -6.265625 5.734375 -5.890625 C 6.117188 -5.523438 6.3125 -4.9375 6.3125 -4.125 L 6.3125 0 Z M 5.34375 0 "/></g></g></g><g fill="#000000" fill-opacity="1"><g transform="translate(240.218536, 285.837521)"><g><path d="M 6.484375 -3.171875 C 6.484375 -2.140625 6.222656 -1.332031 5.703125 -0.75 C 5.179688 -0.175781 4.460938 0.109375 3.546875 0.109375 C 2.984375 0.109375 2.476562 -0.0195312 2.03125 -0.28125 C 1.59375 -0.550781 1.253906 -0.929688 1.015625 -1.421875 C 0.785156 -1.921875 0.671875 -2.503906 0.671875 -3.171875 C 0.671875 -4.203125 0.925781 -5.003906 1.4375 -5.578125 C 1.957031 -6.160156 2.675781 -6.453125 3.59375 -6.453125 C 4.476562 -6.453125 5.179688 -6.15625 5.703125 -5.5625 C 6.222656 -4.96875 6.484375 -4.171875 6.484375 -3.171875 Z M 1.65625 -3.171875 C 1.65625 -2.359375 1.816406 -1.738281 2.140625 -1.3125 C 2.460938 -0.894531 2.9375 -0.6875 3.5625 -0.6875 C 4.195312 -0.6875 4.675781 -0.894531 5 -1.3125 C 5.320312 -1.738281 5.484375 -2.359375 5.484375 -3.171875 C 5.484375 -3.972656 5.320312 -4.582031 5 -5 C 4.675781 -5.414062 4.195312 -5.625 3.5625 -5.625 C 2.925781 -5.625 2.445312 -5.414062 2.125 -5 C 1.8125 -4.59375 1.65625 -3.984375 1.65625 -3.171875 Z M 1.65625 -3.171875 "/></g></g></g><g fill="#000000" fill-opacity="1"><g transform="translate(248.224216, 285.837521)"><g><path d="M 2.40625 0 L 0 -6.328125 L 1.03125 -6.328125 L 2.390625 -2.578125 C 2.703125 -1.703125 2.882812 -1.128906 2.9375 -0.859375 L 2.984375 -0.859375 C 3.023438 -1.066406 3.15625 -1.488281 3.375 -2.125 C 3.601562 -2.769531 4.109375 -4.171875 4.890625 -6.328125 L 5.921875 -6.328125 L 3.515625 0 Z M 2.40625 0 "/></g></g></g><g fill="#000000" fill-opacity="1"><g transform="translate(255.011672, 285.837521)"><g><path d="M 4.90625 0 L 4.71875 -0.90625 L 4.671875 -0.90625 C 4.359375 -0.507812 4.039062 -0.238281 3.71875 -0.09375 C 3.40625 0.0390625 3.015625 0.109375 2.546875 0.109375 C 1.921875 0.109375 1.429688 -0.0507812 1.078125 -0.375 C 0.722656 -0.695312 0.546875 -1.15625 0.546875 -1.75 C 0.546875 -3.03125 1.566406 -3.703125 3.609375 -3.765625 L 4.6875 -3.796875 L 4.6875 -4.1875 C 4.6875 -4.6875 4.578125 -5.050781 4.359375 -5.28125 C 4.148438 -5.519531 3.8125 -5.640625 3.34375 -5.640625 C 2.8125 -5.640625 2.210938 -5.476562 1.546875 -5.15625 L 1.25 -5.890625 C 1.5625 -6.054688 1.898438 -6.1875 2.265625 -6.28125 C 2.640625 -6.382812 3.015625 -6.4375 3.390625 -6.4375 C 4.148438 -6.4375 4.710938 -6.265625 5.078125 -5.921875 C 5.441406 -5.585938 5.625 -5.050781 5.625 -4.3125 L 5.625 0 Z M 2.75 -0.671875 C 3.34375 -0.671875 3.804688 -0.832031 4.140625 -1.15625 C 4.484375 -1.488281 4.65625 -1.953125 4.65625 -2.546875 L 4.65625 -3.109375 L 3.703125 -3.078125 C 2.941406 -3.046875 2.390625 -2.925781 2.046875 -2.71875 C 1.710938 -2.507812 1.546875 -2.179688 1.546875 -1.734375 C 1.546875 -1.390625 1.648438 -1.125 1.859375 -0.9375 C 2.066406 -0.757812 2.363281 -0.671875 2.75 -0.671875 Z M 2.75 -0.671875 "/></g></g></g><g fill="#000000" fill-opacity="1"><g transform="translate(262.451544, 285.837521)"><g><path d="M 3.0625 -0.671875 C 3.226562 -0.671875 3.390625 -0.679688 3.546875 -0.703125 C 3.703125 -0.734375 3.828125 -0.765625 3.921875 -0.796875 L 3.921875 -0.0625 C 3.816406 -0.0078125 3.664062 0.03125 3.46875 0.0625 C 3.269531 0.09375 3.085938 0.109375 2.921875 0.109375 C 1.691406 0.109375 1.078125 -0.53125 1.078125 -1.8125 L 1.078125 -5.578125 L 0.171875 -5.578125 L 0.171875 -6.046875 L 1.078125 -6.453125 L 1.484375 -7.796875 L 2.046875 -7.796875 L 2.046875 -6.328125 L 3.875 -6.328125 L 3.875 -5.578125 L 2.046875 -5.578125 L 2.046875 -1.859375 C 2.046875 -1.472656 2.132812 -1.175781 2.3125 -0.96875 C 2.5 -0.769531 2.75 -0.671875 3.0625 -0.671875 Z M 3.0625 -0.671875 "/></g></g></g><g fill="#000000" fill-opacity="1"><g transform="translate(267.489622, 285.837521)"><g><path d="M 3.6875 0.109375 C 2.75 0.109375 2.007812 -0.171875 1.46875 -0.734375 C 0.9375 -1.304688 0.671875 -2.097656 0.671875 -3.109375 C 0.671875 -4.128906 0.921875 -4.941406 1.421875 -5.546875 C 1.921875 -6.148438 2.59375 -6.453125 3.4375 -6.453125 C 4.226562 -6.453125 4.851562 -6.1875 5.3125 -5.65625 C 5.78125 -5.132812 6.015625 -4.445312 6.015625 -3.59375 L 6.015625 -2.984375 L 1.65625 -2.984375 C 1.675781 -2.242188 1.863281 -1.679688 2.21875 -1.296875 C 2.570312 -0.910156 3.070312 -0.71875 3.71875 -0.71875 C 4.40625 -0.71875 5.082031 -0.863281 5.75 -1.15625 L 5.75 -0.296875 C 5.40625 -0.148438 5.082031 -0.046875 4.78125 0.015625 C 4.476562 0.078125 4.113281 0.109375 3.6875 0.109375 Z M 3.4375 -5.640625 C 2.925781 -5.640625 2.519531 -5.472656 2.21875 -5.140625 C 1.914062 -4.816406 1.738281 -4.359375 1.6875 -3.765625 L 4.984375 -3.765625 C 4.984375 -4.367188 4.847656 -4.832031 4.578125 -5.15625 C 4.316406 -5.476562 3.9375 -5.640625 3.4375 -5.640625 Z M 3.4375 -5.640625 "/></g></g></g></svg>